NewsreaderText-SemiBold.ufo
<glyph name="exclam" format="2">
	<unicode hex="0021"/>
	<advance width="542.44"/>
	<outline>
		<contour>
			<point x="412.96" y="1277.448" type="line" smooth="yes"/>
			<point x="413.536" y="1335.976"/>
			<point x="342.704" y="1364.24"/>
			<point x="271.872" y="1364.24" type="curve" smooth="yes"/>
			<point x="201.04" y="1364.24"/>
			<point x="130.208" y="1335.976"/>
			<point x="130.784" y="1277.448" type="curve" smooth="yes"/>
			<point x="133.088" y="1176.048" type="line" smooth="yes"/>
			<point x="134.816" y="1065.64"/>
			<point x="177.84" y="854.848"/>
			<point x="239.328" y="440.944" type="curve"/>
			<point x="304.416" y="440.944" type="line"/>
			<point x="365.904" y="854.848"/>
			<point x="408.928" y="1065.64"/>
			<point x="410.656" y="1176.048" type="curve" smooth="yes"/>
		</contour>
		<contour>
			<point x="271.568" y="277" type="curve" smooth="yes"/>
			<point x="184.184" y="277"/>
			<point x="120.888" y="211.28"/>
			<point x="120.888" y="129.592" type="curve" smooth="yes"/>
			<point x="120.888" y="47.48"/>
			<point x="184.184" y="-18.24"/>
			<point x="271.568" y="-18.24" type="curve" smooth="yes"/>
			<point x="358.952" y="-18.24"/>
			<point x="422.248" y="47.48"/>
			<point x="422.248" y="129.592" type="curve" smooth="yes"/>
			<point x="422.248" y="211.28"/>
			<point x="358.952" y="277"/>
		</contour>
	</outline>
</glyph>
<glyph name="quotesingle" format="2">
  <advance width="400.624"/>
  <unicode hex="0027"/>
  <outline>
    <contour>
      <point x="153.392" y="828.504" type="line"/>
      <point x="245.808" y="828.504" type="line"/>
      <point x="322.432" y="1287.76" type="line"/>
      <point x="322.432" y="1340.0" type="line"/>
      <point x="79.616" y="1340.0" type="line"/>
      <point x="79.616" y="1287.76" type="line"/>
    </contour>
  </outline>
</glyph>
<glyph name="parenleft" format="2">
  <advance width="563.624"/>
  <unicode hex="0028"/>
  <outline>
    <contour>
      <point x="267.256" y="572.848" type="curve" smooth="yes"/>
      <point x="267.256" y="829.36"/>
      <point x="312.59309146363535" y="1052.3137463418166"/>
      <point x="514.648" y="1382.64" type="curve"/>
      <point x="459.2" y="1423.24" type="line"/>
      <point x="144.32305696307472" y="1050.0649423099314"/>
      <point x="73.976" y="863.704"/>
      <point x="73.976" y="572.848" type="curve" smooth="yes"/>
      <point x="73.976" y="281.992"/>
      <point x="144.32305696307472" y="95.63105769006856"/>
      <point x="459.2" y="-277.544" type="curve"/>
      <point x="514.648" y="-236.944" type="line"/>
      <point x="312.59309146363535" y="93.38225365818349"/>
      <point x="267.256" y="316.336"/>
    </contour>
  </outline>
</glyph>
<glyph name="parenright" format="2">
  <advance width="564"/>
  <unicode hex="0029"/>
  <outline>
    <contour>
      <point x="296.368" y="572.848" type="curve" smooth="yes"/>
      <point x="296.368" y="316.336"/>
      <point x="250.856" y="93.44800000000001"/>
      <point x="48.976" y="-236.944" type="curve"/>
      <point x="104.424" y="-277.544" type="line"/>
      <point x="419.368" y="95.56"/>
      <point x="489.648" y="281.992"/>
      <point x="489.648" y="572.848" type="curve" smooth="yes"/>
      <point x="489.648" y="863.704"/>
      <point x="419.368" y="1050.136"/>
      <point x="104.424" y="1423.24" type="curve"/>
      <point x="48.976" y="1382.64" type="line"/>
      <point x="250.856" y="1052.248"/>
      <point x="296.368" y="829.36"/>
    </contour>
  </outline>
</glyph>
<glyph name="plus" format="2">
  <advance width="1000.0"/>
  <unicode hex="002B"/>
  <outline>
    <contour>
      <point x="445.28" y="805.72" type="line"/>
      <point x="445.28" y="66.28" type="line"/>
      <point x="554.72" y="66.28" type="line"/>
      <point x="554.72" y="805.72" type="line"/>
    </contour>
    <contour>
      <point x="869.72" y="490.72" type="line"/>
      <point x="130.28" y="490.72" type="line"/>
      <point x="130.28" y="381.28" type="line"/>
      <point x="869.72" y="381.28" type="line"/>
    </contour>
  </outline>
</glyph>
<glyph name="comma" format="2">
	<unicode hex="002C"/>
	<advance width="485.592"/>
	<outline>
		<contour>
			<point x="61.664" y="-303.816" type="curve"/>
			<point x="119.992" y="-363.296" type="line"/>
			<point x="333.128" y="-180.552"/>
			<point x="394.464" y="-46.136"/>
			<point x="394.464" y="94.376" type="curve" smooth="yes"/>
			<point x="394.464" y="210.52"/>
			<point x="331.648" y="276.424"/>
			<point x="236.872" y="276.424" type="curve" smooth="yes"/>
			<point x="144.88" y="276.424"/>
			<point x="84.464" y="210.128"/>
			<point x="84.464" y="124.408" type="curve" smooth="yes"/>
			<point x="84.464" y="66.712"/>
			<point x="229.608" y="45.872"/>
			<point x="229.608" y="-50.784" type="curve" smooth="yes"/>
			<point x="229.608" y="-115.968"/>
			<point x="181.392" y="-200.728"/>
		</contour>
	</outline>
</glyph>
<glyph name="hyphen" format="2">
  <advance width="694.752"/>
  <unicode hex="002D"/>
  <outline>
    <contour>
      <point x="112.248" y="519.656" type="line"/>
      <point x="112.248" y="361.248" type="line"/>
      <point x="582.504" y="361.248" type="line"/>
      <point x="582.504" y="519.656" type="line"/>
    </contour>
  </outline>
</glyph>
<glyph name="period" format="2">
	<unicode hex="002E"/>
	<advance width="471.376"/>
	<outline>
		<contour>
			<point x="235.688" y="277" type="curve" smooth="yes"/>
			<point x="148.304" y="277"/>
			<point x="85.008" y="211.28"/>
			<point x="85.008" y="129.592" type="curve" smooth="yes"/>
			<point x="85.008" y="47.48"/>
			<point x="148.304" y="-18.24"/>
			<point x="235.688" y="-18.24" type="curve" smooth="yes"/>
			<point x="323.072" y="-18.24"/>
			<point x="386.368" y="47.48"/>
			<point x="386.368" y="129.592" type="curve" smooth="yes"/>
			<point x="386.368" y="211.28"/>
			<point x="323.072" y="277"/>
		</contour>
	</outline>
</glyph>
<glyph name="slash" format="2">
  <advance width="782.304"/>
  <unicode hex="002F"/>
  <outline>
    <contour>
      <point x="49.064" y="0.0" type="line"/>
      <point x="170.968" y="0.0" type="line"/>
      <point x="732.664" y="1340.0" type="line"/>
      <point x="611.184" y="1340.0" type="line"/>
    </contour>
  </outline>
</glyph>
<glyph name="zero" format="2">
  <advance width="1185"/>
  <unicode hex="0030"/>
  <outline>
    <contour>
      <point x="596.672" y="79.112" type="curve" smooth="yes"/>
      <point x="427.27014886894983" y="79.112"/>
      <point x="335.912" y="295.184"/>
      <point x="335.912" y="707.632" type="curve" smooth="yes"/>
      <point x="335.912" y="1069.784"/>
      <point x="427.4780030884321" y="1260.888"/>
      <point x="588.128" y="1260.888" type="curve" smooth="yes"/>
      <point x="756.9605103389267" y="1260.888"/>
      <point x="848.312" y="1044.816"/>
      <point x="848.312" y="632.368" type="curve" smooth="yes"/>
      <point x="848.312" y="270.216"/>
      <point x="756.7527398151494" y="79.112"/>
    </contour>
    <contour>
      <point x="592.4" y="1364.24" type="curve" smooth="yes"/>
      <point x="273.9008743545611" y="1364.24"/>
      <point x="73.24" y="1093.992"/>
      <point x="73.24" y="668.0" type="curve" smooth="yes"/>
      <point x="73.24" y="243.43200000000002"/>
      <point x="273.9008743545611" y="-24.240000000000002"/>
      <point x="592.4" y="-24.240000000000002" type="curve" smooth="yes"/>
      <point x="912.6271256454389" y="-24.240000000000002"/>
      <point x="1111.56" y="246.008"/>
      <point x="1111.56" y="672.0" type="curve" smooth="yes"/>
      <point x="1111.56" y="1096.568"/>
      <point x="912.6271256454389" y="1364.24"/>
    </contour>
  </outline>
</glyph>
<glyph name="colon" format="2">
	<unicode hex="003A"/>
	<advance width="513.68"/>
	<outline>
		<contour>
			<point x="256.84" y="277" type="curve" smooth="yes"/>
			<point x="169.456" y="277"/>
			<point x="106.16" y="211.28"/>
			<point x="106.16" y="129.592" type="curve" smooth="yes"/>
			<point x="106.16" y="47.48"/>
			<point x="169.456" y="-18.24"/>
			<point x="256.84" y="-18.24" type="curve" smooth="yes"/>
			<point x="344.224" y="-18.24"/>
			<point x="407.52" y="47.48"/>
			<point x="407.52" y="129.592" type="curve" smooth="yes"/>
			<point x="407.52" y="211.28"/>
			<point x="344.224" y="277"/>
		</contour>
		<contour>
			<point x="256.84" y="876.992" type="curve" smooth="yes"/>
			<point x="169.456" y="876.992"/>
			<point x="106.16" y="811.272"/>
			<point x="106.16" y="729.584" type="curve" smooth="yes"/>
			<point x="106.16" y="647.472"/>
			<point x="169.456" y="581.752"/>
			<point x="256.84" y="581.752" type="curve" smooth="yes"/>
			<point x="344.224" y="581.752"/>
			<point x="407.52" y="647.472"/>
			<point x="407.52" y="729.584" type="curve" smooth="yes"/>
			<point x="407.52" y="811.272"/>
			<point x="344.224" y="876.992"/>
		</contour>
	</outline>
</glyph>
<glyph name="less" format="2">
  <advance width="1000.0"/>
  <unicode hex="003C"/>
  <guideline x="136.152" y="422.0" angle="176.59492390808282" identifier="kprTFTNFtj"/>
  <outline>
    <contour>
      <point x="136.152" y="407.072" type="line"/>
      <point x="943.152" y="770.984" type="line"/>
      <point x="943.152" y="894.968" type="line"/>
      <point x="43.152" y="481.056" type="line"/>
      <point x="43.152" y="390.944" type="line"/>
      <point x="943.152" y="-22.968" type="line"/>
      <point x="943.152" y="101.01599999999999" type="line"/>
      <point x="136.152" y="464.928" type="line"/>
    </contour>
  </outline>
</glyph>
<glyph name="greater" format="2">
  <advance width="1000.0"/>
  <unicode hex="003E"/>
  <outline>
    <contour>
      <point x="863.848" y="407.072" type="line"/>
      <point x="863.848" y="464.928" type="line"/>
      <point x="56.848" y="101.01599999999999" type="line"/>
      <point x="56.848" y="-22.968" type="line"/>
      <point x="956.848" y="390.944" type="line"/>
      <point x="956.848" y="481.056" type="line"/>
      <point x="56.848" y="894.968" type="line"/>
      <point x="56.848" y="770.984" type="line"/>
    </contour>
  </outline>
</glyph>
<glyph name="question" format="2">
  <advance width="893"/>
  <unicode hex="003F"/>
  <outline>
    <contour>
      <point x="303.352" y="1364.24" type="curve" smooth="yes"/>
      <point x="132.216" y="1364.24"/>
      <point x="54.336" y="1312.336"/>
      <point x="54.336" y="1239.52" type="curve" smooth="yes"/>
      <point x="54.336" y="1178.648"/>
      <point x="101.272" y="1131.864"/>
      <point x="161.936" y="1131.864" type="curve" smooth="yes"/>
      <point x="278.11137127371273" y="1131.864"/>
      <point x="323.6244552845528" y="1244.128"/>
      <point x="452.328" y="1244.128" type="curve" smooth="yes"/>
      <point x="580.4" y="1244.128"/>
      <point x="658.928" y="1166.904"/>
      <point x="658.928" y="1032.096" type="curve" smooth="yes"/>
      <point x="658.928" y="887.48"/>
      <point x="543.376" y="799.992"/>
      <point x="270.104" y="812.512" type="curve"/>
      <point x="356.672" y="440.944" type="line"/>
      <point x="407.728" y="440.944" type="line"/>
      <point x="424.688" y="761.896" type="line"/>
      <point x="356.176" y="620.064" type="line"/>
      <point x="697.056" y="613.152"/>
      <point x="810.08" y="738.128"/>
      <point x="810.08" y="939.424" type="curve" smooth="yes"/>
      <point x="810.08" y="1203.52"/>
      <point x="610.496" y="1364.24"/>
    </contour>
    <contour>
      <point x="388.52" y="281.24" type="curve" smooth="yes"/>
      <point x="301.136" y="281.24"/>
      <point x="237.84" y="215.51999999999998"/>
      <point x="237.84" y="133.832" type="curve" smooth="yes"/>
      <point x="237.84" y="51.72"/>
      <point x="301.136" y="-14.0"/>
      <point x="388.52" y="-14.0" type="curve" smooth="yes"/>
      <point x="475.904" y="-14.0"/>
      <point x="539.2" y="51.72"/>
      <point x="539.2" y="133.832" type="curve" smooth="yes"/>
      <point x="539.2" y="215.51999999999998"/>
      <point x="475.904" y="281.24"/>
    </contour>
  </outline>
</glyph>
<glyph name="at" format="2">
  <advance width="1764"/>
  <unicode hex="0040"/>
  <outline>
    <contour>
      <point x="1220.12" y="186.976" type="curve" smooth="yes"/>
      <point x="1507.168" y="186.976"/>
      <point x="1724.232" y="424.008"/>
      <point x="1724.232" y="757.584" type="curve" smooth="yes"/>
      <point x="1724.232" y="1133.672"/>
      <point x="1453.144" y="1398.224"/>
      <point x="991.512" y="1398.224" type="curve" smooth="yes"/>
      <point x="449.392" y="1398.224"/>
      <point x="70.4" y="990.832"/>
      <point x="70.4" y="485.552" type="curve" smooth="yes"/>
      <point x="70.4" y="41.623999999999995"/>
      <point x="362.20799999999997" y="-260.24"/>
      <point x="891.728" y="-260.24" type="curve" smooth="yes"/>
      <point x="1146.12" y="-260.24"/>
      <point x="1355.752" y="-189.664"/>
      <point x="1532.872" y="-69.936" type="curve"/>
      <point x="1487.904" y="5.512" type="line"/>
      <point x="1304.424" y="-114.824"/>
      <point x="1104.968" y="-158.704"/>
      <point x="921.152" y="-158.704" type="curve" smooth="yes"/>
      <point x="460.624" y="-158.704"/>
      <point x="233.272" y="111.168"/>
      <point x="233.272" y="493.344" type="curve" smooth="yes"/>
      <point x="233.272" y="977.92"/>
      <point x="531.472" y="1307.472"/>
      <point x="989.6" y="1307.472" type="curve" smooth="yes"/>
      <point x="1357.656" y="1307.472"/>
      <point x="1574.872" y="1063.616"/>
      <point x="1574.872" y="732.128" type="curve" smooth="yes"/>
      <point x="1574.872" y="445.144"/>
      <point x="1420.024" y="274.208"/>
      <point x="1278.952" y="274.208" type="curve" smooth="yes"/>
      <point x="1228.824" y="274.208"/>
      <point x="1192.272" y="300.576"/>
      <point x="1192.272" y="374.04" type="curve" smooth="yes"/>
      <point x="1192.272" y="403.528"/>
      <point x="1198.424" y="440.168"/>
      <point x="1218.216" y="504.81600000000003" type="curve" smooth="yes"/>
      <point x="1363.912" y="991.792" type="line"/>
      <point x="1171.968" y="991.792" type="line"/>
      <point x="1120.528" y="903.16" type="line"/>
      <point x="1026.656" y="636.288" type="line" smooth="yes"/>
      <point x="966.048" y="460.456"/>
      <point x="832.328" y="340.224"/>
      <point x="766.744" y="340.224" type="curve" smooth="yes"/>
      <point x="726.68" y="340.224"/>
      <point x="703.736" y="362.016"/>
      <point x="703.736" y="411.624" type="curve" smooth="yes"/>
      <point x="703.736" y="580.488"/>
      <point x="870.96" y="906.32"/>
      <point x="1029.768" y="906.32" type="curve" smooth="yes"/>
      <point x="1081.28" y="906.32"/>
      <point x="1102.344" y="875.624"/>
      <point x="1115.04" y="842.232" type="curve"/>
      <point x="1160.824" y="907.224" type="line"/>
      <point x="1108.376" y="972.848"/>
      <point x="1056.504" y="1003.272"/>
      <point x="975.904" y="1003.272" type="curve" smooth="yes"/>
      <point x="690.2" y="1003.272"/>
      <point x="466.2" y="625.2"/>
      <point x="466.2" y="383.936" type="curve" smooth="yes"/>
      <point x="466.2" y="260.872"/>
      <point x="530.416" y="190.792"/>
      <point x="653.92" y="190.792" type="curve" smooth="yes"/>
      <point x="763.912" y="190.792"/>
      <point x="879.4" y="257.552"/>
      <point x="1056.52" y="562.6" type="curve"/>
      <point x="1026.184" y="562.6" type="line"/>
      <point x="999.432" y="468.376" type="line" smooth="yes"/>
      <point x="989.28" y="432.76800000000003"/>
      <point x="985.976" y="399.312"/>
      <point x="985.976" y="370.008" type="curve" smooth="yes"/>
      <point x="985.976" y="239.192"/>
      <point x="1079.912" y="186.976"/>
    </contour>
  </outline>
</glyph>
<glyph name="A" format="2">
  <advance width="1457.68"/>
  <unicode hex="0041"/>
  <guideline x="706.744" y="1256.48" angle="181.0836779048566" identifier="odRBaw6Blq"/>
  <anchor x="713.224" y="1340.0" name="UCtop"/>
  <anchor x="1360.16" y="0.0" name="right"/>
  <anchor x="709.928" y="0.0" name="bottom"/>
  <outline>
    <contour>
      <point x="344.64" y="464.112" type="line"/>
      <point x="1017.088" y="464.112" type="line"/>
      <point x="1017.088" y="573.344" type="line"/>
      <point x="344.64" y="573.344" type="line"/>
    </contour>
    <contour>
      <point x="1331.888" y="100.632" type="line"/>
      <point x="793.616" y="1351.52" type="line"/>
      <point x="649.096" y="1351.52" type="line"/>
      <point x="132.64" y="98.632" type="line"/>
      <point x="-20.36" y="41.968" type="line"/>
      <point x="-20.36" y="0.0" type="line"/>
      <point x="417.328" y="0.0" type="line"/>
      <point x="417.328" y="41.968" type="line"/>
      <point x="259.416" y="98.632" type="line"/>
      <point x="670.792" y="1136.064" type="line"/>
      <point x="620.328" y="1136.064" type="line"/>
      <point x="1056.888" y="98.632" type="line"/>
      <point x="888.976" y="41.968" type="line"/>
      <point x="888.976" y="0.0" type="line"/>
      <point x="1479.888" y="0.0" type="line"/>
      <point x="1479.888" y="41.968" type="line"/>
    </contour>
  </outline>
</glyph>
<glyph name="B" format="2">
  <advance width="1333.952"/>
  <unicode hex="0042"/>
  <guideline x="331.608" y="1340.0" angle="6.34019174590991" identifier="SmX6ZW6ZTT"/>
  <anchor x="658.616" y="1340.0" name="UCtop"/>
  <anchor x="675.576" y="0.0" name="bottom"/>
  <outline>
    <contour>
      <point x="365.528" y="1227.344" type="line"/>
      <point x="658.408" y="1227.344" type="line" smooth="yes"/>
      <point x="835.208" y="1227.344"/>
      <point x="919.608" y="1136.856"/>
      <point x="919.608" y="1005.912" type="curve" smooth="yes"/>
      <point x="919.608" y="846.088"/>
      <point x="828.056" y="767.328"/>
      <point x="680.864" y="767.328" type="curve" smooth="yes"/>
      <point x="365.528" y="767.328" type="line"/>
      <point x="363.832" y="654.672" type="line"/>
      <point x="692.472" y="654.672" type="line" smooth="yes"/>
      <point x="897.664" y="654.672"/>
      <point x="988.608" y="547.184"/>
      <point x="988.608" y="392.816" type="curve" smooth="yes"/>
      <point x="988.608" y="197.992"/>
      <point x="873.784" y="112.656"/>
      <point x="683.896" y="112.656" type="curve" smooth="yes"/>
      <point x="364.832" y="112.656" type="line"/>
      <point x="375.008" y="0.0" type="line"/>
      <point x="752.408" y="0.0" type="line" smooth="yes"/>
      <point x="1109.28" y="0.0"/>
      <point x="1260.368" y="167.76"/>
      <point x="1260.368" y="393.4" type="curve" smooth="yes"/>
      <point x="1260.368" y="583.76"/>
      <point x="1111.28" y="718.0"/>
      <point x="870.224" y="732.0" type="curve"/>
      <point x="867.224" y="717.0" type="line"/>
      <point x="1058.584" y="734.0"/>
      <point x="1178.824" y="858.0"/>
      <point x="1178.824" y="1024.0" type="curve" smooth="yes"/>
      <point x="1178.824" y="1203.0"/>
      <point x="1053.584" y="1340.0"/>
      <point x="748.984" y="1340.0" type="curve" smooth="yes"/>
      <point x="374.008" y="1340.0" type="line"/>
    </contour>
    <contour>
      <point x="73.976" y="0.0" type="line"/>
      <point x="481.01599999999996" y="0.0" type="line"/>
      <point x="481.01599999999996" y="1340.0" type="line"/>
      <point x="73.976" y="1340.0" type="line"/>
      <point x="73.976" y="1298.032" type="line"/>
      <point x="223.496" y="1241.792" type="line"/>
      <point x="223.496" y="98.208" type="line"/>
      <point x="73.976" y="41.968" type="line"/>
    </contour>
  </outline>
</glyph>
<glyph name="C" format="2">
  <advance width="1401"/>
  <unicode hex="0043"/>
  <anchor x="779.608" y="1340.0" name="UCtop"/>
  <anchor x="786.32" y="0.0" name="bottom"/>
  <anchor x="1350.504" y="0.0" name="right"/>
  <outline>
    <contour>
      <point x="898.064" y="91.2" type="curve" smooth="yes"/>
      <point x="580.72" y="91.2"/>
      <point x="350.224" y="314.208"/>
      <point x="350.224" y="743.656" type="curve" smooth="yes"/>
      <point x="350.224" y="1069.632"/>
      <point x="521.024" y="1248.92"/>
      <point x="838.088" y="1248.92" type="curve" smooth="yes"/>
      <point x="940.936" y="1248.92"/>
      <point x="1027.448" y="1227.104"/>
      <point x="1135.632" y="1158.624" type="curve"/>
      <point x="1066.8" y="1231.272" type="line"/>
      <point x="1261.024" y="908.528" type="line"/>
      <point x="1318.048" y="920.92" type="line"/>
      <point x="1251.992" y="1406.48" type="line"/>
      <point x="1220.848" y="1406.48" type="line"/>
      <point x="1089.912" y="1313.304" type="line"/>
      <point x="1160.448" y="1329.24" type="line"/>
      <point x="1044.328" y="1356.24"/>
      <point x="969.784" y="1364.24"/>
      <point x="885.088" y="1364.24" type="curve" smooth="yes"/>
      <point x="384.152" y="1364.24"/>
      <point x="81.28" y="1081.032"/>
      <point x="81.28" y="658.0" type="curve" smooth="yes"/>
      <point x="81.28" y="223.824"/>
      <point x="375.104" y="-24.240000000000002"/>
      <point x="846.392" y="-24.240000000000002" type="curve" smooth="yes"/>
      <point x="1017.784" y="-24.240000000000002"/>
      <point x="1173.12" y="5.52"/>
      <point x="1283.32" y="52.488" type="curve"/>
      <point x="1323.528" y="388.344" type="line"/>
      <point x="1267.984" y="388.344" type="line"/>
      <point x="1101.848" y="98.144" type="line"/>
      <point x="1161.416" y="142.352" type="line"/>
      <point x="1065.112" y="104.656"/>
      <point x="988.224" y="91.2"/>
    </contour>
  </outline>
</glyph>
<glyph name="D" format="2">
	<unicode hex="0044"/>
	<advance width="1534.008"/>
	<outline>
		<contour>
			<point x="1179.784" y="687.576" type="curve" smooth="yes"/>
			<point x="1179.784" y="280.72"/>
			<point x="963.944" y="112.656"/>
			<point x="641.608" y="112.656" type="curve" smooth="yes"/>
			<point x="350.064" y="112.656" type="line"/>
			<point x="333.528" y="0" type="line"/>
			<point x="672.728" y="0" type="line" smooth="yes"/>
			<point x="1116.728" y="0"/>
			<point x="1451.728" y="260"/>
			<point x="1451.728" y="710" type="curve" smooth="yes"/>
			<point x="1451.728" y="1134"/>
			<point x="1194.728" y="1340"/>
			<point x="670.728" y="1340" type="curve" smooth="yes"/>
			<point x="333.528" y="1340" type="line"/>
			<point x="350.064" y="1227.344" type="line"/>
			<point x="622.576" y="1227.344" type="line" smooth="yes"/>
			<point x="967.52" y="1227.344"/>
			<point x="1179.784" y="1057.52"/>
		</contour>
		<contour>
			<point x="73.976" y="0" type="line"/>
			<point x="481.016" y="0" type="line"/>
			<point x="481.016" y="1340" type="line"/>
			<point x="73.976" y="1340" type="line"/>
			<point x="73.976" y="1298.032" type="line"/>
			<point x="223.496" y="1241.792" type="line"/>
			<point x="223.496" y="98.208" type="line"/>
			<point x="73.976" y="41.968" type="line"/>
		</contour>
	</outline>
	<anchor name="UCtop" x="767.96" y="1340"/>
	<anchor name="bottom" x="769.112" y="0"/>
</glyph>
<glyph name="E" format="2">
	<unicode hex="0045"/>
	<advance width="1291.272"/>
	<outline>
		<contour>
			<point x="931.488" y="965" type="line"/>
			<point x="841.8" y="965" type="line"/>
			<point x="819.8" y="759.328" type="line"/>
			<point x="342.008" y="759.328" type="line"/>
			<point x="342.008" y="646.672" type="line"/>
			<point x="819.8" y="646.672" type="line"/>
			<point x="841.8" y="441" type="line"/>
			<point x="931.488" y="441" type="line"/>
			<point x="931.488" y="703" type="line"/>
		</contour>
		<contour>
			<point x="1198.904" y="954.792" type="line"/>
			<point x="1123.728" y="1400.448" type="line"/>
			<point x="1098.4" y="1400.448" type="line"/>
			<point x="979.192" y="1340" type="line"/>
			<point x="342.008" y="1340" type="line"/>
			<point x="342.008" y="1227.344" type="line"/>
			<point x="1019.008" y="1227.344" type="line"/>
			<point x="946.2" y="1264.88" type="line"/>
			<point x="1145.12" y="942.824" type="line"/>
		</contour>
		<contour>
			<point x="974.8" y="73.936" type="line"/>
			<point x="1031.248" y="112.656" type="line"/>
			<point x="342.008" y="112.656" type="line"/>
			<point x="342.008" y="0" type="line"/>
			<point x="1001.008" y="0" type="line"/>
			<point x="1128.728" y="-68.328" type="line"/>
			<point x="1156.176" y="-68.328" type="line"/>
			<point x="1236.232" y="401.376" type="line"/>
			<point x="1188.872" y="413.648" type="line"/>
		</contour>
		<contour>
			<point x="73.976" y="0" type="line"/>
			<point x="481.016" y="0" type="line"/>
			<point x="481.016" y="1340" type="line"/>
			<point x="73.976" y="1340" type="line"/>
			<point x="73.976" y="1298.032" type="line"/>
			<point x="223.496" y="1241.792" type="line"/>
			<point x="223.496" y="98.208" type="line"/>
			<point x="73.976" y="41.968" type="line"/>
		</contour>
	</outline>
	<anchor name="UCtop" x="652.96" y="1340"/>
	<anchor name="right" x="1143.096" y="0"/>
	<anchor name="bottom" x="687.2" y="0"/>
</glyph>
<glyph name="F" format="2">
  <advance width="1194"/>
  <unicode hex="0046"/>
  <anchor x="618.168" y="1340.0" name="UCtop"/>
  <anchor x="352.256" y="0.0" name="bottom"/>
  <outline>
    <contour>
      <point x="926.4639999999999" y="930.184" type="line"/>
      <point x="836.776" y="930.184" type="line"/>
      <point x="814.776" y="724.512" type="line"/>
      <point x="345.464" y="724.512" type="line"/>
      <point x="345.464" y="611.856" type="line"/>
      <point x="814.776" y="611.856" type="line"/>
      <point x="836.776" y="406.184" type="line"/>
      <point x="926.4639999999999" y="406.184" type="line"/>
      <point x="926.4639999999999" y="668.184" type="line"/>
    </contour>
    <contour>
      <point x="1072.64" y="1400.448" type="line"/>
      <point x="953.432" y="1340.0" type="line"/>
      <point x="324.728" y="1340.0" type="line"/>
      <point x="324.728" y="1227.344" type="line"/>
      <point x="1036.448" y="1227.344" type="line"/>
      <point x="918.136" y="1264.88" type="line"/>
      <point x="1117.056" y="942.824" type="line"/>
      <point x="1170.84" y="954.792" type="line"/>
      <point x="1095.664" y="1400.448" type="line"/>
    </contour>
    <contour>
      <point x="481.01599999999996" y="1340.0" type="line"/>
      <point x="73.976" y="1340.0" type="line"/>
      <point x="73.976" y="1298.032" type="line"/>
      <point x="223.496" y="1241.792" type="line"/>
      <point x="223.496" y="98.208" type="line"/>
      <point x="73.976" y="41.968" type="line"/>
      <point x="73.976" y="0.0" type="line"/>
      <point x="630.5360000000001" y="0.0" type="line"/>
      <point x="630.5360000000001" y="41.968" type="line"/>
      <point x="481.01599999999996" y="98.208" type="line"/>
    </contour>
  </outline>
</glyph>
<glyph name="G" format="2">
  <advance width="1502.16"/>
  <unicode hex="0047"/>
  <anchor x="792.272" y="1340.0" name="UCtop"/>
  <anchor x="813.472" y="0.0" name="bottom"/>
  <outline>
    <contour>
      <point x="1340.608" y="177.0" type="line"/>
      <point x="1340.608" y="500.792" type="line"/>
      <point x="1472.848" y="557.032" type="line"/>
      <point x="1472.848" y="599.0" type="line"/>
      <point x="916.288" y="599.0" type="line"/>
      <point x="916.288" y="557.032" type="line"/>
      <point x="1083.088" y="497.336" type="line"/>
      <point x="1083.088" y="48.519999999999996" type="line"/>
      <point x="1176.792" y="186.568" type="line"/>
      <point x="1109.976" y="125.688"/>
      <point x="988.264" y="91.2"/>
      <point x="864.832" y="91.2" type="curve" smooth="yes"/>
      <point x="569.024" y="91.2"/>
      <point x="349.8" y="312.088"/>
      <point x="349.8" y="734.056" type="curve" smooth="yes"/>
      <point x="349.8" y="1069.632"/>
      <point x="517.296" y="1248.92"/>
      <point x="834.536" y="1248.92" type="curve" smooth="yes"/>
      <point x="963.6" y="1248.92"/>
      <point x="1061.48" y="1214.92"/>
      <point x="1163.392" y="1140.768" type="curve"/>
      <point x="1060.0" y="1244.52" type="line"/>
      <point x="1261.712" y="908.528" type="line"/>
      <point x="1318.736" y="920.92" type="line"/>
      <point x="1252.68" y="1406.48" type="line"/>
      <point x="1221.536" y="1406.48" type="line"/>
      <point x="1088.296" y="1312.152" type="line"/>
      <point x="1165.744" y="1328.088" type="line"/>
      <point x="1052.536" y="1354.936"/>
      <point x="974.416" y="1364.24"/>
      <point x="881.536" y="1364.24" type="curve" smooth="yes"/>
      <point x="380.272" y="1364.24"/>
      <point x="80.856" y="1081.032"/>
      <point x="80.856" y="658.0" type="curve" smooth="yes"/>
      <point x="80.856" y="232.728"/>
      <point x="364.688" y="-24.240000000000002"/>
      <point x="841.728" y="-24.240000000000002" type="curve" smooth="yes"/>
      <point x="1040.896" y="-24.240000000000002"/>
      <point x="1220.04" y="10.096"/>
      <point x="1368.632" y="74.792" type="curve"/>
      <point x="1368.632" y="81.152" type="line"/>
    </contour>
  </outline>
</glyph>
<glyph name="H" format="2">
	<unicode hex="0048"/>
	<advance width="1622.176"/>
	<outline>
		<contour>
			<point x="481.016" y="98.208" type="line"/>
			<point x="481.016" y="1241.792" type="line"/>
			<point x="630.536" y="1298.032" type="line"/>
			<point x="630.536" y="1340" type="line"/>
			<point x="73.976" y="1340" type="line"/>
			<point x="73.976" y="1298.032" type="line"/>
			<point x="223.496" y="1241.792" type="line"/>
			<point x="223.496" y="98.208" type="line"/>
			<point x="73.976" y="41.968" type="line"/>
			<point x="73.976" y="0" type="line"/>
			<point x="630.536" y="0" type="line"/>
			<point x="630.536" y="41.968" type="line"/>
		</contour>
		<contour>
			<point x="1398.68" y="98.208" type="line"/>
			<point x="1398.68" y="1241.792" type="line"/>
			<point x="1548.2" y="1298.032" type="line"/>
			<point x="1548.2" y="1340" type="line"/>
			<point x="991.64" y="1340" type="line"/>
			<point x="991.64" y="1298.032" type="line"/>
			<point x="1141.16" y="1241.792" type="line"/>
			<point x="1141.16" y="98.208" type="line"/>
			<point x="991.64" y="41.968" type="line"/>
			<point x="991.64" y="0" type="line"/>
			<point x="1548.2" y="0" type="line"/>
			<point x="1548.2" y="41.968" type="line"/>
		</contour>
		<contour>
			<point x="334.8" y="627.52" type="line"/>
			<point x="1287.8" y="627.52" type="line"/>
			<point x="1287.8" y="740.176" type="line"/>
			<point x="334.8" y="740.176" type="line"/>
		</contour>
	</outline>
	<anchor name="UCtop" x="810.8" y="1340"/>
	<anchor name="bottom" x="810.8" y="0"/>
</glyph>
<glyph name="I" format="2">
	<unicode hex="0049"/>
	<advance width="704.512"/>
	<outline>
		<contour>
			<point x="630.536" y="41.968" type="line"/>
			<point x="481.016" y="98.208" type="line"/>
			<point x="481.016" y="1241.792" type="line"/>
			<point x="630.536" y="1298.032" type="line"/>
			<point x="630.536" y="1340" type="line"/>
			<point x="73.976" y="1340" type="line"/>
			<point x="73.976" y="1298.032" type="line"/>
			<point x="223.496" y="1241.792" type="line"/>
			<point x="223.496" y="98.208" type="line"/>
			<point x="73.976" y="41.968" type="line"/>
			<point x="73.976" y="0" type="line"/>
			<point x="630.536" y="0" type="line"/>
		</contour>
	</outline>
	<anchor name="UCtop" x="352.256" y="1340"/>
	<anchor name="right" x="536.496" y="0"/>
	<anchor name="bottom" x="352.256" y="0"/>
</glyph>
<glyph name="K" format="2">
	<unicode hex="004B"/>
	<advance width="1498.104"/>
	<outline>
		<contour>
			<point x="1379.88" y="101.784" type="line"/>
			<point x="778.68" y="811.36" type="line"/>
			<point x="716" y="703.6" type="line"/>
			<point x="1266.368" y="1246.88" type="line"/>
			<point x="1412.584" y="1298.032" type="line"/>
			<point x="1412.584" y="1340" type="line"/>
			<point x="962.048" y="1340" type="line"/>
			<point x="962.048" y="1298.032" type="line"/>
			<point x="1114.232" y="1247.64" type="line"/>
			<point x="629.016" y="748.6" type="line"/>
			<point x="390.248" y="748.6" type="line"/>
			<point x="390.248" y="638.52" type="line"/>
			<point x="601.904" y="638.52" type="line"/>
			<point x="1057.912" y="94.968" type="line"/>
			<point x="918.632" y="41.968" type="line"/>
			<point x="918.632" y="0" type="line"/>
			<point x="1525.824" y="0" type="line"/>
			<point x="1525.824" y="41.968" type="line"/>
		</contour>
		<contour>
			<point x="481.016" y="1241.792" type="line"/>
			<point x="630.536" y="1298.032" type="line"/>
			<point x="630.536" y="1340" type="line"/>
			<point x="73.976" y="1340" type="line"/>
			<point x="73.976" y="1298.032" type="line"/>
			<point x="223.496" y="1241.792" type="line"/>
			<point x="223.496" y="98.208" type="line"/>
			<point x="73.976" y="41.968" type="line"/>
			<point x="73.976" y="0" type="line"/>
			<point x="625.448" y="0" type="line"/>
			<point x="625.448" y="41.968" type="line"/>
			<point x="481.016" y="98.208" type="line"/>
		</contour>
	</outline>
	<anchor name="bottom" x="765.16" y="0"/>
	<anchor name="UCtop" x="769.4" y="1340"/>
</glyph>
<glyph name="L" format="2">
	<unicode hex="004C"/>
	<advance width="1232.448"/>
	<outline>
		<contour>
			<point x="1113.752" y="-72.992" type="line"/>
			<point x="1205.776" y="427.192" type="line"/>
			<point x="1154.448" y="439.736" type="line"/>
			<point x="918.44" y="74.752" type="line"/>
			<point x="1026.096" y="112.656" type="line"/>
			<point x="342.008" y="112.656" type="line"/>
			<point x="342.008" y="0" type="line"/>
			<point x="944.496" y="0" type="line"/>
			<point x="1079.608" y="-72.992" type="line"/>
		</contour>
		<contour>
			<point x="481.016" y="1241.792" type="line"/>
			<point x="630.536" y="1298.032" type="line"/>
			<point x="630.536" y="1340" type="line"/>
			<point x="73.976" y="1340" type="line"/>
			<point x="73.976" y="1298.032" type="line"/>
			<point x="223.496" y="1241.792" type="line"/>
			<point x="223.496" y="98.208" type="line"/>
			<point x="73.976" y="41.968" type="line"/>
			<point x="73.976" y="0" type="line"/>
			<point x="481.016" y="0" type="line"/>
		</contour>
	</outline>
	<anchor name="UCtop" x="352.256" y="1340"/>
	<anchor name="bottom" x="625.352" y="0"/>
	<anchor name="mid" x="969.448" y="702"/>
	<anchor name="right" x="688.304" y="1339.424"/>
</glyph>
<glyph name="M" format="2">
  <advance width="1987.168"/>
  <unicode hex="004D"/>
  <anchor x="973.656" y="1340.0" name="UCtop"/>
  <anchor x="933.816" y="0.0" name="bottom"/>
  <outline>
    <contour>
      <point x="1799.792" y="100.328" type="line"/>
      <point x="1707.552" y="1241.792" type="line"/>
      <point x="1859.192" y="1298.032" type="line"/>
      <point x="1859.192" y="1340.0" type="line"/>
      <point x="1432.952" y="1340.0" type="line"/>
      <point x="988.128" y="267.752" type="line"/>
      <point x="1010.856" y="267.752" type="line"/>
      <point x="562.52" y="1340.0" type="line"/>
      <point x="112.224" y="1340.0" type="line"/>
      <point x="112.224" y="1298.032" type="line"/>
      <point x="274.376" y="1233.824" type="line"/>
      <point x="194.312" y="101.176" type="line"/>
      <point x="36.312" y="41.968" type="line"/>
      <point x="36.312" y="0.0" type="line"/>
      <point x="468.512" y="0.0" type="line"/>
      <point x="468.512" y="41.968" type="line"/>
      <point x="311.512" y="101.176" type="line"/>
      <point x="374.12" y="1151.08" type="line"/>
      <point x="360.544" y="1148.504" type="line"/>
      <point x="853.512" y="-10.944" type="line"/>
      <point x="993.88" y="-10.944" type="line"/>
      <point x="1474.336" y="1152.872" type="line"/>
      <point x="1461.184" y="1155.448" type="line"/>
      <point x="1539.032" y="93.968" type="line"/>
      <point x="1382.032" y="41.968" type="line"/>
      <point x="1382.032" y="0.0" type="line"/>
      <point x="1952.976" y="0.0" type="line"/>
      <point x="1952.976" y="41.968" type="line"/>
    </contour>
  </outline>
</glyph>
<glyph name="N" format="2">
  <advance width="1509.328"/>
  <unicode hex="004E"/>
  <anchor x="780.872" y="1340.0" name="UCtop"/>
  <anchor x="786.632" y="0.0" name="bottom"/>
  <outline>
    <contour>
      <point x="226.344" y="98.208" type="line"/>
      <point x="76.824" y="41.968" type="line"/>
      <point x="76.824" y="0.0" type="line"/>
      <point x="500.976" y="0.0" type="line"/>
      <point x="500.976" y="41.968" type="line"/>
      <point x="336.76" y="98.208" type="line"/>
      <point x="336.76" y="1230.0" type="line"/>
      <point x="293.16" y="1194.0" type="line"/>
      <point x="1161.008" y="-10.944" type="line"/>
      <point x="1299.832" y="-10.944" type="line"/>
      <point x="1299.832" y="1241.792" type="line"/>
      <point x="1449.352" y="1298.032" type="line"/>
      <point x="1449.352" y="1340.0" type="line"/>
      <point x="1025.2" y="1340.0" type="line"/>
      <point x="1025.2" y="1298.032" type="line"/>
      <point x="1189.416" y="1241.792" type="line"/>
      <point x="1189.416" y="232.47199999999998" type="line"/>
      <point x="1258.888" y="296.064" type="line"/>
      <point x="498.18399999999997" y="1340.0" type="line"/>
      <point x="63.344" y="1340.0" type="line"/>
      <point x="63.344" y="1301.0" type="line"/>
      <point x="226.344" y="1223.672" type="line"/>
    </contour>
  </outline>
</glyph>
<glyph name="P" format="2">
	<unicode hex="0050"/>
	<advance width="1254.896"/>
	<outline>
		<contour>
			<point x="961.424" y="952.672" type="curve" smooth="yes"/>
			<point x="961.424" y="772.88"/>
			<point x="843.992" y="677.848"/>
			<point x="680.744" y="677.848" type="curve" smooth="yes"/>
			<point x="298.52" y="677.848" type="line"/>
			<point x="306.008" y="565.192" type="line"/>
			<point x="708.32" y="565.192" type="line" smooth="yes"/>
			<point x="1067.224" y="565.192"/>
			<point x="1220.888" y="744.888"/>
			<point x="1220.888" y="961.28" type="curve" smooth="yes"/>
			<point x="1220.888" y="1172.368"/>
			<point x="1075.072" y="1340"/>
			<point x="708.32" y="1340" type="curve" smooth="yes"/>
			<point x="306.008" y="1340" type="line"/>
			<point x="298.52" y="1227.344" type="line"/>
			<point x="606.208" y="1227.344" type="line" smooth="yes"/>
			<point x="866.024" y="1227.344"/>
			<point x="961.424" y="1127.888"/>
		</contour>
		<contour>
			<point x="481.016" y="1340" type="line"/>
			<point x="73.976" y="1340" type="line"/>
			<point x="73.976" y="1298.032" type="line"/>
			<point x="223.496" y="1241.792" type="line"/>
			<point x="223.496" y="98.208" type="line"/>
			<point x="73.976" y="41.968" type="line"/>
			<point x="73.976" y="0" type="line"/>
			<point x="630.536" y="0" type="line"/>
			<point x="630.536" y="41.968" type="line"/>
			<point x="481.016" y="98.208" type="line"/>
		</contour>
	</outline>
	<anchor name="UCtop" x="660.152" y="1340"/>
	<anchor name="bottom" x="352.256" y="0"/>
</glyph>
<glyph name="Q" format="2">
	<unicode hex="0051"/>
	<advance width="1546.624"/>
	<outline>
		<contour>
			<point x="780.864" y="-230.768" type="line" smooth="yes"/>
			<point x="960.864" y="-369.912"/>
			<point x="1031.152" y="-395.968"/>
			<point x="1223.208" y="-395.968" type="curve" smooth="yes"/>
			<point x="1365.192" y="-395.968"/>
			<point x="1454.616" y="-375.088"/>
			<point x="1530.4" y="-353.816" type="curve"/>
			<point x="1530.4" y="-297.344" type="line"/>
			<point x="1350.576" y="-307.92"/>
			<point x="1280.76" y="-278.104"/>
			<point x="1088.432" y="-167.408" type="curve" smooth="yes"/>
			<point x="709.064" y="51.144" type="line"/>
			<point x="750.104" y="-1.272" type="line"/>
			<point x="1167.048" y="-31.28"/>
			<point x="1465.768" y="267.696"/>
			<point x="1465.768" y="672" type="curve" smooth="yes"/>
			<point x="1465.768" y="1084.904"/>
			<point x="1187.04" y="1364.24"/>
			<point x="781.776" y="1364.24" type="curve" smooth="yes"/>
			<point x="372.152" y="1364.24"/>
			<point x="81.28" y="1078.936"/>
			<point x="81.28" y="668" type="curve" smooth="yes"/>
			<point x="81.28" y="412.184"/>
			<point x="170.216" y="233.968"/>
			<point x="380.872" y="74.688" type="curve" smooth="yes"/>
		</contour>
		<contour>
			<point x="782.872" y="94.048" type="curve" smooth="yes"/>
			<point x="531.424" y="94.048"/>
			<point x="352.8" y="310.752"/>
			<point x="352.8" y="718.232" type="curve" smooth="yes"/>
			<point x="352.8" y="1060.72"/>
			<point x="518.024" y="1245.952"/>
			<point x="764.176" y="1245.952" type="curve" smooth="yes"/>
			<point x="1015.624" y="1245.952"/>
			<point x="1194.248" y="1029.248"/>
			<point x="1194.248" y="621.768" type="curve" smooth="yes"/>
			<point x="1194.248" y="279.28"/>
			<point x="1029.024" y="94.048"/>
		</contour>
	</outline>
	<anchor name="UCtop" x="790.152" y="1340"/>
	<anchor name="bottom" x="772.872" y="-311.072"/>
</glyph>
<glyph name="R" format="2">
	<unicode hex="0052"/>
	<advance width="1344.304"/>
	<outline>
		<contour>
			<point x="667.456" y="730.936" type="curve" smooth="yes"/>
			<point x="261.456" y="730.936" type="line"/>
			<point x="299.648" y="618.28" type="line"/>
			<point x="656.768" y="618.28" type="line" smooth="yes"/>
			<point x="767.68" y="618.28"/>
			<point x="798.648" y="577.64"/>
			<point x="844.2" y="428.392" type="curve" smooth="yes"/>
			<point x="919.968" y="178.688" type="line" smooth="yes"/>
			<point x="970.336" y="7.36"/>
			<point x="1026.352" y="-26.48"/>
			<point x="1346.76" y="-2.12" type="curve"/>
			<point x="1346.76" y="69.992" type="line"/>
			<point x="1263.032" y="68.992"/>
			<point x="1227.76" y="77.416"/>
			<point x="1183.424" y="210.144" type="curve" smooth="yes"/>
			<point x="1097.872" y="463.696" type="line" smooth="yes"/>
			<point x="1048.504" y="608.944"/>
			<point x="997.928" y="664.76"/>
			<point x="827.92" y="673.336" type="curve"/>
			<point x="827.92" y="668.032" type="line"/>
			<point x="1065.272" y="695.672"/>
			<point x="1189.208" y="825.184"/>
			<point x="1189.208" y="1003.424" type="curve" smooth="yes"/>
			<point x="1189.208" y="1188.424"/>
			<point x="1057.632" y="1340"/>
			<point x="725.632" y="1340" type="curve" smooth="yes"/>
			<point x="306.008" y="1340" type="line"/>
			<point x="268.664" y="1227.344" type="line"/>
			<point x="597.648" y="1227.344" type="line" smooth="yes"/>
			<point x="839.616" y="1227.344"/>
			<point x="929.744" y="1135.008"/>
			<point x="929.744" y="978.792" type="curve" smooth="yes"/>
			<point x="929.744" y="816.696"/>
			<point x="820.16" y="730.936"/>
		</contour>
		<contour>
			<point x="481.016" y="1340" type="line"/>
			<point x="73.976" y="1340" type="line"/>
			<point x="73.976" y="1298.032" type="line"/>
			<point x="223.496" y="1241.792" type="line"/>
			<point x="223.496" y="98.208" type="line"/>
			<point x="73.976" y="41.968" type="line"/>
			<point x="73.976" y="0" type="line"/>
			<point x="630.536" y="0" type="line"/>
			<point x="630.536" y="41.968" type="line"/>
			<point x="481.016" y="98.208" type="line"/>
		</contour>
	</outline>
	<anchor name="UCtop" x="660.368" y="1340"/>
	<anchor name="bottom" x="746.128" y="0"/>
</glyph>
<glyph name="S" format="2">
  <advance width="1125"/>
  <unicode hex="0053"/>
  <anchor x="547.624" y="1340.0" name="UCtop"/>
  <anchor x="566.104" y="0.0" name="bottom"/>
  <outline>
    <contour>
      <point x="922.064" y="1283.36" type="line"/>
      <point x="810.856" y="1340.36"/>
      <point x="710.04" y="1364.24"/>
      <point x="585.104" y="1364.24" type="curve" smooth="yes"/>
      <point x="293.152" y="1364.24"/>
      <point x="108.104" y="1215.488"/>
      <point x="108.104" y="983.344" type="curve" smooth="yes"/>
      <point x="108.104" y="756.232"/>
      <point x="255.464" y="672.296"/>
      <point x="428.496" y="607.84" type="curve" smooth="yes"/>
      <point x="601.528" y="543.384"/>
      <point x="810.8" y="503.168"/>
      <point x="810.8" y="316.248" type="curve" smooth="yes"/>
      <point x="810.8" y="165.112"/>
      <point x="700.0" y="88.32"/>
      <point x="483.544" y="88.32" type="curve" smooth="yes"/>
      <point x="389.12" y="88.32"/>
      <point x="314.0" y="111.2"/>
      <point x="209.152" y="166.776" type="curve"/>
      <point x="416.28" y="36.76" type="line"/>
      <point x="139.152" y="408.472" type="line"/>
      <point x="77.76" y="408.472" type="line"/>
      <point x="164.76" y="35.76" type="line"/>
      <point x="283.36" y="-9.088000000000001"/>
      <point x="382.84" y="-24.240000000000002"/>
      <point x="521.016" y="-24.240000000000002" type="curve" smooth="yes"/>
      <point x="820.368" y="-24.240000000000002"/>
      <point x="1042.504" y="122.848"/>
      <point x="1042.504" y="401.2" type="curve" smooth="yes"/>
      <point x="1042.504" y="655.68"/>
      <point x="844.384" y="738.856"/>
      <point x="666.384" y="801.008" type="curve" smooth="yes"/>
      <point x="488.384" y="863.16"/>
      <point x="321.72" y="909.104"/>
      <point x="321.72" y="1066.752" type="curve" smooth="yes"/>
      <point x="321.72" y="1182.096"/>
      <point x="403.336" y="1257.952"/>
      <point x="570.672" y="1257.952" type="curve" smooth="yes"/>
      <point x="652.552" y="1257.952"/>
      <point x="726.488" y="1233.864"/>
      <point x="796.064" y="1184.44" type="curve"/>
      <point x="738.592" y="1251.64" type="line"/>
      <point x="939.152" y="935.008" type="line"/>
      <point x="995.448" y="947.248" type="line"/>
      <point x="922.424" y="1406.48" type="line"/>
      <point x="893.128" y="1406.48" type="line"/>
      <point x="767.736" y="1314.304" type="line"/>
    </contour>
  </outline>
</glyph>
<glyph name="T" format="2">
  <advance width="1353.12"/>
  <unicode hex="0054"/>
  <anchor x="676.56" y="1340.0" name="UCtop"/>
  <anchor x="676.56" y="0.0" name="bottom"/>
  <outline>
    <contour>
      <point x="544.408" y="1276.032" type="line"/>
      <point x="544.408" y="98.208" type="line"/>
      <point x="394.888" y="41.968" type="line"/>
      <point x="394.888" y="0.0" type="line"/>
      <point x="951.448" y="0.0" type="line"/>
      <point x="951.448" y="41.968" type="line"/>
      <point x="801.928" y="98.208" type="line"/>
      <point x="801.928" y="1276.032" type="line"/>
    </contour>
    <contour>
      <point x="1190.168" y="1227.344" type="line"/>
      <point x="1099.44" y="1256.096" type="line"/>
      <point x="1260.304" y="951.44" type="line"/>
      <point x="1317.328" y="962.984" type="line"/>
      <point x="1275.632" y="1410.968" type="line"/>
      <point x="1245.76" y="1410.968" type="line"/>
      <point x="1085.256" y="1318.912" type="line"/>
      <point x="1167.168" y="1340.0" type="line"/>
      <point x="162.208" y="1340.0" type="line"/>
      <point x="267.864" y="1318.912" type="line"/>
      <point x="107.36" y="1410.968" type="line"/>
      <point x="77.488" y="1410.968" type="line"/>
      <point x="35.792" y="962.984" type="line"/>
      <point x="92.816" y="951.44" type="line"/>
      <point x="253.68" y="1256.096" type="line"/>
      <point x="139.208" y="1227.344" type="line"/>
    </contour>
  </outline>
</glyph>
<glyph name="U" format="2">
	<unicode hex="0055"/>
	<advance width="1526.832"/>
	<outline>
		<contour>
			<point x="1222.768" y="517.832" type="line" smooth="yes"/>
			<point x="1222.768" y="275.92"/>
			<point x="1081.736" y="145.248"/>
			<point x="833.152" y="145.248" type="curve" smooth="yes"/>
			<point x="577.536" y="145.248"/>
			<point x="450.016" y="276.496"/>
			<point x="450.016" y="541.208" type="curve" smooth="yes"/>
			<point x="450.016" y="1241.792" type="line"/>
			<point x="599.536" y="1298.032" type="line"/>
			<point x="599.536" y="1340" type="line"/>
			<point x="42.976" y="1340" type="line"/>
			<point x="42.976" y="1298.032" type="line"/>
			<point x="192.496" y="1241.792" type="line"/>
			<point x="192.496" y="544.696" type="line" smooth="yes"/>
			<point x="192.496" y="166.64"/>
			<point x="397.672" y="-24.24"/>
			<point x="779.2" y="-24.24" type="curve" smooth="yes"/>
			<point x="1135.976" y="-24.24"/>
			<point x="1333.184" y="169.456"/>
			<point x="1333.184" y="529.352" type="curve" smooth="yes"/>
			<point x="1333.184" y="1241.792" type="line"/>
			<point x="1482.704" y="1298.032" type="line"/>
			<point x="1482.704" y="1340" type="line"/>
			<point x="1066.04" y="1340" type="line"/>
			<point x="1066.04" y="1298.032" type="line"/>
			<point x="1222.768" y="1241.792" type="line"/>
		</contour>
	</outline>
	<anchor name="UCtop" x="812.888" y="1340"/>
	<anchor name="right" x="1024.592" y="0"/>
	<anchor name="bottom" x="812.888" y="0"/>
	<anchor name="horn" x="1299.776" y="1340"/>
</glyph>
<glyph name="V" format="2">
	<unicode hex="0056"/>
	<advance width="1398.6"/>
	<outline>
		<contour>
			<point x="122.216" y="1239.368" type="line"/>
			<point x="644.888" y="-11.52" type="line"/>
			<point x="789.408" y="-11.52" type="line"/>
			<point x="1264.504" y="1241.368" type="line"/>
			<point x="1413.264" y="1298.032" type="line"/>
			<point x="1413.264" y="1340" type="line"/>
			<point x="982.304" y="1340" type="line"/>
			<point x="982.304" y="1298.032" type="line"/>
			<point x="1142.336" y="1241.368" type="line"/>
			<point x="767.712" y="203.936" type="line"/>
			<point x="821.568" y="203.936" type="line"/>
			<point x="400.608" y="1241.368" type="line"/>
			<point x="570.64" y="1298.032" type="line"/>
			<point x="570.64" y="1340" type="line"/>
			<point x="-25.784" y="1340" type="line"/>
			<point x="-25.784" y="1298.032" type="line"/>
		</contour>
	</outline>
	<anchor name="UCtop" x="754.416" y="1340"/>
	<anchor name="bottom" x="724.736" y="0"/>
</glyph>
<glyph name="W" format="2">
	<unicode hex="0057"/>
	<advance width="1985.904"/>
	<outline>
		<contour>
			<point x="1033.904" y="1113.312" type="line"/>
			<point x="961" y="1093.728" type="line"/>
			<point x="1390.72" y="-11.52" type="line"/>
			<point x="1535.24" y="-11.52" type="line"/>
			<point x="1851.536" y="1241.368" type="line"/>
			<point x="1995.688" y="1298.032" type="line"/>
			<point x="1995.688" y="1340" type="line"/>
			<point x="1566.456" y="1340" type="line"/>
			<point x="1566.456" y="1298.032" type="line"/>
			<point x="1731.096" y="1241.368" type="line"/>
			<point x="1492.424" y="205.664" type="line"/>
			<point x="1575.392" y="226.976" type="line"/>
			<point x="1146.52" y="1351.52" type="line"/>
			<point x="999.152" y="1351.52" type="line"/>
			<point x="604.072" y="250.016" type="line"/>
			<point x="663" y="250.016" type="line"/>
			<point x="401.944" y="1241.368" type="line"/>
			<point x="569.856" y="1298.032" type="line"/>
			<point x="569.856" y="1340" type="line"/>
			<point x="-17.328" y="1340" type="line"/>
			<point x="-17.328" y="1298.032" type="line"/>
			<point x="130.672" y="1239.368" type="line"/>
			<point x="470.72" y="-11.52" type="line"/>
			<point x="615.24" y="-11.52" type="line"/>
		</contour>
	</outline>
	<anchor name="UCtop" x="1061.944" y="1340"/>
	<anchor name="bottom" x="1040.744" y="0"/>
</glyph>
<glyph name="X" format="2">
  <advance width="1459"/>
  <unicode hex="0058"/>
  <anchor x="750.032" y="1340.0" name="UCtop"/>
  <anchor x="737.312" y="0.0" name="bottom"/>
  <outline>
    <contour>
      <point x="713.928" y="633.04" type="line"/>
      <point x="784.272" y="688.48" type="line"/>
      <point x="1235.264" y="1241.368" type="line"/>
      <point x="1386.144" y="1298.032" type="line"/>
      <point x="1386.144" y="1340.0" type="line"/>
      <point x="949.728" y="1340.0" type="line"/>
      <point x="949.728" y="1298.032" type="line"/>
      <point x="1104.248" y="1241.368" type="line"/>
      <point x="726.4" y="760.2" type="line"/>
      <point x="657.296" y="705.424" type="line"/>
      <point x="154.368" y="98.632" type="line"/>
      <point x="3.4880000000000004" y="41.968" type="line"/>
      <point x="3.4880000000000004" y="0.0" type="line"/>
      <point x="439.48" y="0.0" type="line"/>
      <point x="439.48" y="41.968" type="line"/>
      <point x="285.384" y="98.632" type="line"/>
    </contour>
    <contour>
      <point x="1021.808" y="98.632" type="line"/>
      <point x="853.896" y="41.968" type="line"/>
      <point x="853.896" y="0.0" type="line"/>
      <point x="1479.616" y="0.0" type="line"/>
      <point x="1479.616" y="41.968" type="line"/>
      <point x="1331.616" y="100.632" type="line"/>
      <point x="828.384" y="776.192" type="line"/>
      <point x="794.328" y="811.096" type="line"/>
      <point x="482.728" y="1241.368" type="line"/>
      <point x="650.64" y="1298.032" type="line"/>
      <point x="650.64" y="1340.0" type="line"/>
      <point x="25.344" y="1340.0" type="line"/>
      <point x="25.344" y="1298.032" type="line"/>
      <point x="173.344" y="1239.368" type="line"/>
      <point x="627.184" y="626.136" type="line"/>
      <point x="658.544" y="594.776" type="line"/>
    </contour>
  </outline>
</glyph>
<glyph name="Y" format="2">
  <advance width="1400"/>
  <unicode hex="0059"/>
  <anchor x="748.296" y="1340.0" name="UCtop"/>
  <anchor x="722.432" y="0.0" name="bottom"/>
  <outline>
    <contour>
      <point x="125.128" y="1239.368" type="line"/>
      <point x="595.4" y="586.936" type="line"/>
      <point x="595.4" y="98.208" type="line"/>
      <point x="445.88" y="41.968" type="line"/>
      <point x="445.88" y="0.0" type="line"/>
      <point x="1002.44" y="0.0" type="line"/>
      <point x="1002.44" y="41.968" type="line"/>
      <point x="852.92" y="98.208" type="line"/>
      <point x="852.92" y="591.392" type="line"/>
      <point x="1250.92" y="1241.368" type="line"/>
      <point x="1395.44" y="1298.032" type="line"/>
      <point x="1395.44" y="1340.0" type="line"/>
      <point x="959.384" y="1340.0" type="line"/>
      <point x="959.384" y="1298.032" type="line"/>
      <point x="1117.296" y="1241.368" type="line"/>
      <point x="777.232" y="647.624" type="line"/>
      <point x="848.288" y="644.776" type="line"/>
      <point x="432.248" y="1241.368" type="line"/>
      <point x="596.128" y="1298.032" type="line"/>
      <point x="596.128" y="1340.0" type="line"/>
      <point x="-18.631999999999998" y="1340.0" type="line"/>
      <point x="-18.631999999999998" y="1298.032" type="line"/>
    </contour>
  </outline>
</glyph>
<glyph name="Z" format="2">
	<unicode hex="005A"/>
	<advance width="1270.136"/>
	<outline>
		<contour>
			<point x="1173.104" y="1340" type="line"/>
			<point x="305.32" y="1340" type="line"/>
			<point x="170.632" y="1405.36" type="line"/>
			<point x="142.848" y="1405.36" type="line"/>
			<point x="59.52" y="949.344" type="line"/>
			<point x="108.304" y="936.224" type="line"/>
			<point x="308.44" y="1227.344" type="line"/>
			<point x="981.104" y="1227.344" type="line"/>
			<point x="873.128" y="1271" type="line"/>
			<point x="86.464" y="38.656" type="line"/>
			<point x="86.464" y="0" type="line"/>
			<point x="1009.992" y="0" type="line"/>
			<point x="1138.952" y="-58.752" type="line"/>
			<point x="1163.432" y="-58.752" type="line"/>
			<point x="1230.368" y="370.016" type="line"/>
			<point x="1180.856" y="380.56" type="line"/>
			<point x="1012.176" y="112.656" type="line"/>
			<point x="289.424" y="112.656" type="line"/>
			<point x="380.44" y="69" type="line"/>
			<point x="1173.104" y="1301.344" type="line"/>
		</contour>
	</outline>
	<anchor name="UCtop" x="674.288" y="1340"/>
	<anchor name="bottom" x="642.304" y="0"/>
</glyph>
<glyph name="bracketleft" format="2">
  <advance width="620.008"/>
  <unicode hex="005B"/>
  <outline>
    <contour>
      <point x="173.008" y="-254.608" type="line"/>
      <point x="591.856" y="-254.608" type="line"/>
      <point x="591.856" y="-171.888" type="line"/>
      <point x="346.896" y="-171.888" type="line"/>
      <point x="346.896" y="1316.28" type="line"/>
      <point x="591.856" y="1316.28" type="line"/>
      <point x="591.856" y="1399.0" type="line"/>
      <point x="173.008" y="1399.0" type="line"/>
    </contour>
  </outline>
</glyph>
<glyph name="backslash" format="2">
  <advance width="782.304"/>
  <unicode hex="005C"/>
  <outline>
    <contour>
      <point x="733.24" y="0.0" type="line"/>
      <point x="171.12" y="1340.0" type="line"/>
      <point x="49.64" y="1340.0" type="line"/>
      <point x="611.336" y="0.0" type="line"/>
    </contour>
  </outline>
</glyph>
<glyph name="bracketright" format="2">
  <advance width="621"/>
  <unicode hex="005D"/>
  <outline>
    <contour>
      <point x="448.152" y="1399.576" type="line"/>
      <point x="29.304" y="1399.576" type="line"/>
      <point x="29.304" y="1316.856" type="line"/>
      <point x="274.264" y="1316.856" type="line"/>
      <point x="274.264" y="-171.312" type="line"/>
      <point x="29.304" y="-171.312" type="line"/>
      <point x="29.304" y="-254.032" type="line"/>
      <point x="448.152" y="-254.032" type="line"/>
    </contour>
  </outline>
</glyph>
<glyph name="asciicircum" format="2">
  <advance width="1000.0"/>
  <unicode hex="005E"/>
  <guideline x="503.0" y="1246.0" angle="67.29316685461875" identifier="xLWgQyvl5X"/>
  <outline>
    <contour>
      <point x="475.92" y="1246.0" type="line"/>
      <point x="757.52" y="592.0" type="line"/>
      <point x="875.08" y="592.0" type="line"/>
      <point x="549.48" y="1340.0" type="line"/>
      <point x="448.52" y="1340.0" type="line"/>
      <point x="124.92" y="592.0" type="line"/>
      <point x="242.48" y="592.0" type="line"/>
      <point x="522.08" y="1246.0" type="line"/>
    </contour>
  </outline>
</glyph>
<glyph name="a" format="2">
  <advance width="922"/>
  <unicode hex="0061"/>
  <anchor x="433.68" y="860.48" name="top"/>
  <anchor x="930.632" y="0.0" name="right"/>
  <anchor x="471.904" y="0.0" name="bottom"/>
  <outline>
    <contour>
      <point x="587.16" y="542.576" type="line"/>
      <point x="164.192" y="439.544"/>
      <point x="66.03999999999999" y="346.696"/>
      <point x="66.03999999999999" y="200.816" type="curve" smooth="yes"/>
      <point x="66.03999999999999" y="51.488"/>
      <point x="164.16" y="-24.240000000000002"/>
      <point x="303.672" y="-24.240000000000002" type="curve" smooth="yes"/>
      <point x="421.456" y="-24.240000000000002"/>
      <point x="519.488" y="49.672"/>
      <point x="554.12" y="179.48" type="curve"/>
      <point x="545.576" y="173.72" type="line"/>
      <point x="547.696" y="55.088"/>
      <point x="602.424" y="-23.088"/>
      <point x="725.288" y="-23.088" type="curve" smooth="yes"/>
      <point x="788.312" y="-23.088"/>
      <point x="865.88" y="11.968"/>
      <point x="930.632" y="71.544" type="curve"/>
      <point x="930.632" y="128.992" type="line"/>
      <point x="898.48" y="108.992"/>
      <point x="865.72" y="98.96000000000001"/>
      <point x="838.112" y="98.96000000000001" type="curve" smooth="yes"/>
      <point x="792.896" y="98.96000000000001"/>
      <point x="770.136" y="125.29599999999999"/>
      <point x="770.136" y="180.088" type="curve" smooth="yes"/>
      <point x="770.136" y="619.704" type="line" smooth="yes"/>
      <point x="770.136" y="777.184"/>
      <point x="702.68" y="879.536"/>
      <point x="493.064" y="879.536" type="curve" smooth="yes"/>
      <point x="289.144" y="879.536"/>
      <point x="79.888" y="759.992"/>
      <point x="79.888" y="658.064" type="curve" smooth="yes"/>
      <point x="79.888" y="621.28"/>
      <point x="109.976" y="599.432"/>
      <point x="162.576" y="599.432" type="curve" smooth="yes"/>
      <point x="201.784" y="599.432"/>
      <point x="240.448" y="614.096"/>
      <point x="262.448" y="637.944" type="curve" smooth="yes"/>
      <point x="284.872" y="661.368"/>
      <point x="296.72" y="712.616"/>
      <point x="308.808" y="806.776" type="curve"/>
      <point x="268.832" y="746.36" type="line"/>
      <point x="308.08" y="764.576"/>
      <point x="356.872" y="774.608"/>
      <point x="395.6" y="774.608" type="curve" smooth="yes"/>
      <point x="495.88" y="774.608"/>
      <point x="538.488" y="720.664"/>
      <point x="538.488" y="637.384" type="curve" smooth="yes"/>
      <point x="538.488" y="264.24" type="line" smooth="yes"/>
      <point x="538.488" y="188.07999999999998"/>
      <point x="478.72" y="122.92"/>
      <point x="405.072" y="122.92" type="curve" smooth="yes"/>
      <point x="339.52" y="122.92"/>
      <point x="291.512" y="163.864"/>
      <point x="291.512" y="251.048" type="curve" smooth="yes"/>
      <point x="291.512" y="339.632"/>
      <point x="343.856" y="401.272"/>
      <point x="596.376" y="460.704" type="curve"/>
    </contour>
  </outline>
</glyph>
<glyph name="b" format="2">
  <advance width="1087.128"/>
  <unicode hex="0062"/>
  <anchor x="526.792" y="1414.88" name="UCtop"/>
  <anchor x="531.032" y="0.0" name="bottom"/>
  <outline>
    <contour>
      <point x="212.088" y="52.76" type="line"/>
      <point x="333.416" y="-2.24"/>
      <point x="421.112" y="-24.240000000000002"/>
      <point x="525.616" y="-24.240000000000002" type="curve" smooth="yes"/>
      <point x="785.232" y="-24.240000000000002"/>
      <point x="1022.152" y="155.224"/>
      <point x="1022.152" y="474.24" type="curve" smooth="yes"/>
      <point x="1022.152" y="716.328"/>
      <point x="890.696" y="884.72"/>
      <point x="642.664" y="884.72" type="curve" smooth="yes"/>
      <point x="535.88" y="884.72"/>
      <point x="412.4" y="832.696"/>
      <point x="273.488" y="749.088" type="curve"/>
      <point x="306.984" y="676.392" type="line"/>
      <point x="370.992" y="724.672"/>
      <point x="452.456" y="746.192"/>
      <point x="538.808" y="746.192" type="curve" smooth="yes"/>
      <point x="680.216" y="746.192"/>
      <point x="774.288" y="634.792"/>
      <point x="774.288" y="422.424" type="curve" smooth="yes"/>
      <point x="774.288" y="186.464"/>
      <point x="691.4" y="71.056"/>
      <point x="553.776" y="71.056" type="curve" smooth="yes"/>
      <point x="433.88" y="71.056"/>
      <point x="363.928" y="152.088"/>
      <point x="363.928" y="258.968" type="curve" smooth="yes"/>
      <point x="363.928" y="1228.048" type="line"/>
      <point x="378.592" y="1423.24" type="line"/>
      <point x="350.536" y="1423.24" type="line"/>
      <point x="-20.024" y="1320.16" type="line"/>
      <point x="-20.024" y="1284.472" type="line"/>
      <point x="57.976" y="1249.776"/>
      <point x="102.464" y="1219.32"/>
      <point x="132.28" y="1181.96" type="curve"/>
      <point x="132.28" y="204.152" type="line"/>
      <point x="104.768" y="-4.848" type="line"/>
      <point x="140.16" y="-21.936" type="line"/>
      <point x="314.968" y="52.76" type="line"/>
    </contour>
  </outline>
</glyph>
<glyph name="c" format="2">
	<unicode hex="0063"/>
	<advance width="875.216"/>
	<outline>
		<contour>
			<point x="577.8" y="884.72" type="curve" smooth="yes"/>
			<point x="249.632" y="884.72"/>
			<point x="63.128" y="669.416"/>
			<point x="63.128" y="405.816" type="curve" smooth="yes"/>
			<point x="63.128" y="161.848"/>
			<point x="225.912" y="-24.24"/>
			<point x="472.536" y="-24.24" type="curve" smooth="yes"/>
			<point x="604.656" y="-24.24"/>
			<point x="721.04" y="39.696"/>
			<point x="836.544" y="182.776" type="curve"/>
			<point x="804.488" y="223.344" type="line"/>
			<point x="734.248" y="167.888"/>
			<point x="667.216" y="143.248"/>
			<point x="588.28" y="143.248" type="curve" smooth="yes"/>
			<point x="402" y="143.248"/>
			<point x="283.632" y="273.44"/>
			<point x="283.632" y="514.256" type="curve" smooth="yes"/>
			<point x="283.632" y="703.416"/>
			<point x="375.312" y="785.576"/>
			<point x="469.624" y="785.576" type="curve" smooth="yes"/>
			<point x="558.72" y="785.576"/>
			<point x="605.56" y="642.92"/>
			<point x="714.584" y="642.92" type="curve" smooth="yes"/>
			<point x="778.336" y="642.92"/>
			<point x="828.208" y="686.128"/>
			<point x="828.208" y="752.456" type="curve" smooth="yes"/>
			<point x="828.208" y="817.6"/>
			<point x="760.456" y="884.72"/>
		</contour>
	</outline>
	<anchor name="top" x="485.96" y="860.48"/>
	<anchor name="right" x="836.544" y="0"/>
	<anchor name="bottom" x="476.624" y="0"/>
</glyph>
<glyph name="d" format="2">
	<unicode hex="0064"/>
	<advance width="1104.4"/>
	<outline>
		<contour>
			<point x="723.2" y="601.512" type="curve" smooth="yes"/>
			<point x="723.2" y="136" type="line"/>
			<point x="746.528" y="-21.936" type="line"/>
			<point x="774.584" y="-21.936" type="line"/>
			<point x="1083.544" y="50.272" type="line"/>
			<point x="1083.544" y="85.784" type="line"/>
			<point x="1034.76" y="99.416"/>
			<point x="983.512" y="127.144"/>
			<point x="954.848" y="158.232" type="curve"/>
			<point x="954.848" y="1226.896" type="line"/>
			<point x="968.936" y="1423.24" type="line"/>
			<point x="941.456" y="1423.24" type="line"/>
			<point x="585.872" y="1324.192" type="line"/>
			<point x="585.872" y="1289.656" type="line"/>
			<point x="651.776" y="1259.568"/>
			<point x="694.536" y="1234.296"/>
			<point x="723.2" y="1198.088" type="curve"/>
			<point x="723.2" y="774.888" type="line"/>
			<point x="863.168" y="807.72" type="line"/>
			<point x="743.536" y="862.72"/>
			<point x="657.112" y="884.72"/>
			<point x="555.176" y="884.72" type="curve" smooth="yes"/>
			<point x="303.056" y="884.72"/>
			<point x="64.976" y="706.656"/>
			<point x="64.976" y="386.24" type="curve" smooth="yes"/>
			<point x="64.976" y="144.152"/>
			<point x="196.432" y="-24.24"/>
			<point x="444.464" y="-24.24" type="curve" smooth="yes"/>
			<point x="532.832" y="-24.24"/>
			<point x="604.584" y="1.152"/>
			<point x="773.112" y="105.704" type="curve"/>
			<point x="773.112" y="189" type="line"/>
			<point x="702.192" y="136.96"/>
			<point x="624.456" y="114.288"/>
			<point x="548.32" y="114.288" type="curve" smooth="yes"/>
			<point x="406.912" y="114.288"/>
			<point x="312.84" y="225.688"/>
			<point x="312.84" y="446.112" type="curve" smooth="yes"/>
			<point x="312.84" y="674.016"/>
			<point x="395.728" y="789.424"/>
			<point x="539.112" y="789.424" type="curve" smooth="yes"/>
			<point x="660.16" y="789.424"/>
			<point x="723.2" y="709.544"/>
		</contour>
	</outline>
	<anchor name="right" x="954.848" y="1399"/>
	<anchor name="UCtop" x="540.976" y="1414.88"/>
	<anchor name="bottom" x="565.568" y="0"/>
	<anchor name="center" x="795" y="1074.544"/>
</glyph>
<glyph name="g" format="2">
	<unicode hex="0067"/>
	<advance width="994.944"/>
	<outline>
		<contour>
			<point x="445.472" y="-530" type="curve" smooth="yes"/>
			<point x="767.456" y="-530"/>
			<point x="955.664" y="-374.152"/>
			<point x="955.24" y="-184.376" type="curve" smooth="yes"/>
			<point x="954.816" y="-12.984"/>
			<point x="820.048" y="56.224"/>
			<point x="555.4" y="73.072" type="curve" smooth="yes"/>
			<point x="311.104" y="88.648"/>
			<point x="272.656" y="117.352"/>
			<point x="272.656" y="176.96" type="curve" smooth="yes"/>
			<point x="272.656" y="223.936"/>
			<point x="304.6" y="254.152"/>
			<point x="381.688" y="263.576" type="curve"/>
			<point x="347.784" y="293.872" type="line"/>
			<point x="187.4" y="267.416"/>
			<point x="96.552" y="197.328"/>
			<point x="94.432" y="91.64" type="curve" smooth="yes"/>
			<point x="92.312" y="-14.96"/>
			<point x="148.92" y="-106.32"/>
			<point x="423.936" y="-127.256" type="curve" smooth="yes"/>
			<point x="698.952" y="-148.192"/>
			<point x="778.472" y="-181.68"/>
			<point x="778.472" y="-270.688" type="curve" smooth="yes"/>
			<point x="778.472" y="-363.88"/>
			<point x="663.344" y="-443.04"/>
			<point x="483.28" y="-443.04" type="curve" smooth="yes"/>
			<point x="298.488" y="-443.04"/>
			<point x="210.792" y="-380.008"/>
			<point x="210.792" y="-280.032" type="curve" smooth="yes"/>
			<point x="210.792" y="-195.176"/>
			<point x="261.92" y="-129.776"/>
			<point x="481.216" y="-95.2" type="curve"/>
			<point x="480.792" y="-72.896" type="line"/>
			<point x="405.2" y="-72.896" type="line"/>
			<point x="105.256" y="-130.984"/>
			<point x="20" y="-204.536"/>
			<point x="20" y="-307.296" type="curve" smooth="yes"/>
			<point x="20" y="-443.456"/>
			<point x="163.488" y="-530"/>
		</contour>
		<contour>
			<point x="451.048" y="244" type="curve" smooth="yes"/>
			<point x="673.488" y="244"/>
			<point x="835.12" y="372.728"/>
			<point x="835.12" y="565.36" type="curve" smooth="yes"/>
			<point x="835.12" y="723.464"/>
			<point x="696.808" y="884.72"/>
			<point x="452.32" y="884.72" type="curve" smooth="yes"/>
			<point x="229.88" y="884.72"/>
			<point x="68.248" y="755.992"/>
			<point x="68.248" y="563.36" type="curve" smooth="yes"/>
			<point x="68.248" y="378.968"/>
			<point x="219.704" y="244"/>
		</contour>
		<contour>
			<point x="459.472" y="326.264" type="curve" smooth="yes"/>
			<point x="365.336" y="326.264"/>
			<point x="302.024" y="410.696"/>
			<point x="302.024" y="584.384" type="curve" smooth="yes"/>
			<point x="302.024" y="732.688"/>
			<point x="356.184" y="802.456"/>
			<point x="443.896" y="802.456" type="curve" smooth="yes"/>
			<point x="538.032" y="802.456"/>
			<point x="601.344" y="718.024"/>
			<point x="601.344" y="544.336" type="curve" smooth="yes"/>
			<point x="601.344" y="396.032"/>
			<point x="547.184" y="326.264"/>
		</contour>
		<contour>
			<point x="581.256" y="810.328" type="line"/>
			<point x="793.192" y="839.888"/>
			<point x="835.344" y="702.76"/>
			<point x="922.064" y="702.76" type="curve" smooth="yes"/>
			<point x="969.488" y="702.76"/>
			<point x="1013.848" y="739.488"/>
			<point x="1013.848" y="808.568" type="curve" smooth="yes"/>
			<point x="1013.848" y="864.808"/>
			<point x="987" y="890.656"/>
			<point x="941.848" y="890.656" type="curve" smooth="yes"/>
			<point x="854.512" y="890.656"/>
			<point x="765.08" y="841.024"/>
			<point x="558.16" y="870.72" type="curve"/>
		</contour>
	</outline>
	<anchor name="top" x="451.536" y="860.48"/>
	<anchor name="bottom" x="472.736" y="-530"/>
</glyph>
<glyph name="i" format="2">
	<unicode hex="0069"/>
	<advance width="575.128"/>
	<outline>
		<contour>
			<point x="291.168" y="1126.728" type="curve" smooth="yes"/>
			<point x="379.976" y="1126.728"/>
			<point x="439.576" y="1191.024"/>
			<point x="439.576" y="1275.832" type="curve" smooth="yes"/>
			<point x="439.576" y="1359.368"/>
			<point x="379.976" y="1423.24"/>
			<point x="291.168" y="1423.24" type="curve" smooth="yes"/>
			<point x="203.208" y="1423.24"/>
			<point x="143.184" y="1359.368"/>
			<point x="143.184" y="1275.832" type="curve" smooth="yes"/>
			<point x="143.184" y="1191.024"/>
			<point x="203.208" y="1126.728"/>
		</contour>
		<contour>
			<point x="422.568" y="884.72" type="line"/>
			<point x="387.184" y="884.72" type="line"/>
			<point x="44.552" y="796.272" type="line"/>
			<point x="44.552" y="760.184" type="line"/>
			<point x="100.464" y="738.216"/>
			<point x="154.864" y="705.336"/>
			<point x="181.104" y="672.008" type="curve"/>
			<point x="181.104" y="90.088" type="line"/>
			<point x="48.608" y="39.12" type="line"/>
			<point x="48.608" y="0" type="line"/>
			<point x="546.976" y="0" type="line"/>
			<point x="546.976" y="39.12" type="line"/>
			<point x="412.752" y="90.088" type="line"/>
			<point x="412.752" y="692.616" type="line"/>
		</contour>
	</outline>
	<anchor name="top" x="283.656" y="1373.984"/>
	<anchor name="bottom" x="297.504" y="0"/>
	<anchor name="right" x="480.016" y="0"/>
</glyph>
<glyph name="j" format="2">
  <advance width="523.272"/>
  <unicode hex="006A"/>
  <anchor x="270.712" y="1373.984" name="top"/>
  <anchor x="266.472" y="-505.76" name="bottom"/>
  <outline>
    <contour>
      <point x="272.408" y="1126.728" type="curve" smooth="yes"/>
      <point x="361.216" y="1126.728"/>
      <point x="420.816" y="1191.024"/>
      <point x="420.816" y="1275.832" type="curve" smooth="yes"/>
      <point x="420.816" y="1359.368"/>
      <point x="361.216" y="1423.24"/>
      <point x="272.408" y="1423.24" type="curve" smooth="yes"/>
      <point x="184.448" y="1423.24"/>
      <point x="124.424" y="1359.368"/>
      <point x="124.424" y="1275.832" type="curve" smooth="yes"/>
      <point x="124.424" y="1191.024"/>
      <point x="184.448" y="1126.728"/>
    </contour>
    <contour>
      <point x="162.344" y="672.008" type="curve"/>
      <point x="162.344" y="-130.256" type="line" smooth="yes"/>
      <point x="162.344" y="-265.488"/>
      <point x="145.584" y="-311.976"/>
      <point x="-6.84" y="-475.88" type="curve"/>
      <point x="39.736000000000004" y="-530.0" type="line"/>
      <point x="362.816" y="-302.648"/>
      <point x="393.992" y="-257.96"/>
      <point x="393.992" y="-40.70400000000001" type="curve" smooth="yes"/>
      <point x="393.992" y="692.616" type="line"/>
      <point x="403.808" y="884.72" type="line"/>
      <point x="368.424" y="884.72" type="line"/>
      <point x="25.792" y="796.272" type="line"/>
      <point x="25.792" y="760.184" type="line"/>
      <point x="81.70400000000001" y="738.216"/>
      <point x="136.10399999999998" y="705.336"/>
    </contour>
  </outline>
</glyph>
<glyph name="k" format="2">
	<unicode hex="006B"/>
	<advance width="1101.112"/>
	<outline>
		<contour>
			<point x="557.56" y="465.184" type="line"/>
			<point x="908.896" y="773.272" type="line"/>
			<point x="1041.56" y="815.36" type="line"/>
			<point x="1041.56" y="860.48" type="line"/>
			<point x="648.272" y="860.48" type="line"/>
			<point x="648.272" y="815.36" type="line"/>
			<point x="771.488" y="774.544" type="line"/>
			<point x="505.888" y="525.96" type="line"/>
			<point x="318.928" y="525.96" type="line"/>
			<point x="318.928" y="429" type="line"/>
			<point x="472.128" y="429" type="line"/>
			<point x="737.88" y="81.12" type="line"/>
			<point x="642.08" y="39.12" type="line"/>
			<point x="642.08" y="0" type="line"/>
			<point x="1119.472" y="0" type="line"/>
			<point x="1119.472" y="39.12" type="line"/>
			<point x="1006.072" y="89.512" type="line"/>
			<point x="637.432" y="575.72" type="line"/>
		</contour>
		<contour>
			<point x="390.872" y="87.968" type="line"/>
			<point x="390.872" y="1228.048" type="line"/>
			<point x="405.96" y="1423.24" type="line"/>
			<point x="377.904" y="1423.24" type="line"/>
			<point x="6.92" y="1320.16" type="line"/>
			<point x="6.92" y="1284.472" type="line"/>
			<point x="84.92" y="1249.776"/>
			<point x="129.408" y="1219.32"/>
			<point x="159.224" y="1181.96" type="curve"/>
			<point x="159.224" y="90.088" type="line"/>
			<point x="26.728" y="39.12" type="line"/>
			<point x="26.728" y="0" type="line"/>
			<point x="516.616" y="0" type="line"/>
			<point x="516.616" y="39.12" type="line"/>
		</contour>
	</outline>
	<anchor name="bottom" x="567.648" y="0"/>
	<anchor name="UCtop" x="563.408" y="1373.984"/>
</glyph>
<glyph name="l" format="2">
	<unicode hex="006C"/>
	<advance width="554.128"/>
	<outline>
		<contour>
			<point x="392.6" y="90.088" type="line"/>
			<point x="392.6" y="1228.048" type="line"/>
			<point x="407.688" y="1423.24" type="line"/>
			<point x="379.632" y="1423.24" type="line"/>
			<point x="8.648" y="1320.16" type="line"/>
			<point x="8.648" y="1284.472" type="line"/>
			<point x="86.648" y="1249.776"/>
			<point x="131.136" y="1219.32"/>
			<point x="160.952" y="1181.96" type="curve"/>
			<point x="160.952" y="90.088" type="line"/>
			<point x="28.456" y="39.12" type="line"/>
			<point x="28.456" y="0" type="line"/>
			<point x="526.824" y="0" type="line"/>
			<point x="526.824" y="39.12" type="line"/>
		</contour>
	</outline>
	<anchor name="UCtop" x="264.2" y="1373.984"/>
	<anchor name="right" x="392.6" y="1399"/>
	<anchor name="bottom" x="276.776" y="0"/>
	<anchor name="mid" x="595.408" y="548.544"/>
</glyph>
<glyph name="m" format="2">
	<unicode hex="006D"/>
	<advance width="1656.72"/>
	<outline>
		<contour>
			<point x="412.024" y="689" type="line"/>
			<point x="367.608" y="884.72" type="line"/>
			<point x="338.976" y="884.72" type="line"/>
			<point x="43.4" y="773.392" type="line"/>
			<point x="43.4" y="740.76" type="line"/>
			<point x="116.168" y="714.576"/>
			<point x="152.44" y="691.76"/>
			<point x="180.376" y="656.616" type="curve"/>
			<point x="180.376" y="90.088" type="line"/>
			<point x="47.88" y="39.12" type="line"/>
			<point x="47.88" y="0" type="line"/>
			<point x="524.376" y="0" type="line"/>
			<point x="524.376" y="39.12" type="line"/>
			<point x="412.024" y="85.848" type="line"/>
		</contour>
		<contour>
			<point x="958.624" y="611.952" type="line" smooth="yes"/>
			<point x="958.624" y="770.504"/>
			<point x="887.296" y="884.72"/>
			<point x="719.512" y="884.72" type="curve" smooth="yes"/>
			<point x="594.144" y="884.72"/>
			<point x="499.96" y="843.472"/>
			<point x="348.88" y="679.424" type="curve"/>
			<point x="387.152" y="639.88" type="line"/>
			<point x="421.696" y="681.008"/>
			<point x="497.768" y="708.984"/>
			<point x="576.048" y="708.984" type="curve" smooth="yes"/>
			<point x="670.056" y="708.984"/>
			<point x="727.4" y="667.28"/>
			<point x="727.4" y="574.12" type="curve" smooth="yes"/>
			<point x="727.4" y="85.848" type="line"/>
			<point x="614.624" y="39.12" type="line"/>
			<point x="614.624" y="0" type="line"/>
			<point x="1070.824" y="0" type="line"/>
			<point x="1070.824" y="39.12" type="line"/>
			<point x="958.624" y="85.848" type="line"/>
		</contour>
		<contour>
			<point x="1505.648" y="577.968" type="line" smooth="yes"/>
			<point x="1505.648" y="777.992"/>
			<point x="1433.168" y="884.72"/>
			<point x="1266.536" y="884.72" type="curve" smooth="yes"/>
			<point x="1141.168" y="884.72"/>
			<point x="1046.984" y="843.472"/>
			<point x="895.904" y="679.424" type="curve"/>
			<point x="934.176" y="639.88" type="line"/>
			<point x="968.72" y="681.008"/>
			<point x="1044.792" y="708.984"/>
			<point x="1123.072" y="708.984" type="curve" smooth="yes"/>
			<point x="1216.504" y="708.984"/>
			<point x="1274.424" y="667.856"/>
			<point x="1274.424" y="574.12" type="curve" smooth="yes"/>
			<point x="1274.424" y="85.848" type="line"/>
			<point x="1162.072" y="39.12" type="line"/>
			<point x="1162.072" y="0" type="line"/>
			<point x="1640.144" y="0" type="line"/>
			<point x="1640.144" y="39.12" type="line"/>
			<point x="1505.648" y="90.088" type="line"/>
		</contour>
	</outline>
	<anchor name="top" x="843.224" y="860.48"/>
	<anchor name="bottom" x="843.224" y="0"/>
</glyph>
<glyph name="o" format="2">
  <advance width="1037.408"/>
  <unicode hex="006F"/>
  <anchor x="518.992" y="860.48" name="top"/>
  <anchor x="518.992" y="0.0" name="bottom"/>
  <anchor x="675.68" y="860.48" name="horn"/>
  <anchor x="733.08" y="0.0" name="right"/>
  <outline>
    <contour>
      <point x="524.112" y="68.44800000000001" type="curve" smooth="yes"/>
      <point x="390.672" y="68.44800000000001"/>
      <point x="311.656" y="206.872"/>
      <point x="311.656" y="467.384" type="curve" smooth="yes"/>
      <point x="311.656" y="701.992"/>
      <point x="395.944" y="792.032"/>
      <point x="513.296" y="792.032" type="curve" smooth="yes"/>
      <point x="646.736" y="792.032"/>
      <point x="725.752" y="653.608"/>
      <point x="725.752" y="393.096" type="curve" smooth="yes"/>
      <point x="725.752" y="158.488"/>
      <point x="641.464" y="68.44800000000001"/>
    </contour>
    <contour>
      <point x="513.024" y="-24.240000000000002" type="curve" smooth="yes"/>
      <point x="782.224" y="-24.240000000000002"/>
      <point x="973.856" y="171.152"/>
      <point x="973.856" y="442.36" type="curve" smooth="yes"/>
      <point x="973.856" y="704.448"/>
      <point x="799.432" y="884.72"/>
      <point x="524.384" y="884.72" type="curve" smooth="yes"/>
      <point x="255.184" y="884.72"/>
      <point x="63.552" y="689.328"/>
      <point x="63.552" y="418.12" type="curve" smooth="yes"/>
      <point x="63.552" y="156.032"/>
      <point x="237.976" y="-24.240000000000002"/>
    </contour>
  </outline>
</glyph>
<glyph name="p" format="2">
  <advance width="1116"/>
  <unicode hex="0070"/>
  <anchor x="556.928" y="860.48" name="top"/>
  <anchor x="285.23199999999997" y="-505.76" name="bottom"/>
  <outline>
    <contour>
      <point x="803.352" y="419.456" type="curve" smooth="yes"/>
      <point x="803.352" y="186.464"/>
      <point x="720.464" y="71.056"/>
      <point x="582.84" y="71.056" type="curve" smooth="yes"/>
      <point x="464.096" y="71.056"/>
      <point x="392.992" y="150.936"/>
      <point x="392.992" y="258.968" type="curve" smooth="yes"/>
      <point x="392.992" y="760.024" type="line"/>
      <point x="361.296" y="888.96" type="line"/>
      <point x="332.664" y="888.96" type="line"/>
      <point x="24.368000000000002" y="777.632" type="line"/>
      <point x="24.368000000000002" y="745.0" type="line"/>
      <point x="88.616" y="718.728"/>
      <point x="133.224" y="694.216"/>
      <point x="161.344" y="660.856" type="curve"/>
      <point x="161.344" y="-415.672" type="line"/>
      <point x="28.848" y="-466.64" type="line"/>
      <point x="28.848" y="-505.76" type="line"/>
      <point x="545.608" y="-505.76" type="line"/>
      <point x="545.608" y="-466.64" type="line"/>
      <point x="392.992" y="-412.28" type="line"/>
      <point x="392.992" y="52.76" type="line"/>
      <point x="260.656" y="52.76" type="line"/>
      <point x="379.016" y="-2.24"/>
      <point x="464.592" y="-24.240000000000002"/>
      <point x="565.68" y="-24.240000000000002" type="curve" smooth="yes"/>
      <point x="828.008" y="-24.240000000000002"/>
      <point x="1051.216" y="163.608"/>
      <point x="1051.216" y="478.48" type="curve" smooth="yes"/>
      <point x="1051.216" y="712.512"/>
      <point x="919.336" y="884.72"/>
      <point x="675.968" y="884.72" type="curve" smooth="yes"/>
      <point x="578.064" y="884.72"/>
      <point x="459.18399999999997" y="834.304"/>
      <point x="319.512" y="749.088" type="curve"/>
      <point x="336.048" y="673.0" type="line"/>
      <point x="400.632" y="721.28"/>
      <point x="483.248" y="742.8"/>
      <point x="567.872" y="742.8" type="curve" smooth="yes"/>
      <point x="709.28" y="742.8"/>
      <point x="803.352" y="632.672"/>
    </contour>
  </outline>
</glyph>
<glyph name="r" format="2">
  <advance width="817.752"/>
  <unicode hex="0072"/>
  <anchor x="420.656" y="860.48" name="top"/>
  <anchor x="296.2" y="0.0" name="bottom"/>
  <outline>
    <contour>
      <point x="692.272" y="875.6" type="curve" smooth="yes"/>
      <point x="605.768" y="875.6"/>
      <point x="496.648" y="809.848"/>
      <point x="351.096" y="670.952" type="curve"/>
      <point x="373.944" y="624.928" type="line"/>
      <point x="413.368" y="658.2"/>
      <point x="466.104" y="676.232"/>
      <point x="511.68" y="676.232" type="curve" smooth="yes"/>
      <point x="573.92" y="676.232"/>
      <point x="604.472" y="641.96"/>
      <point x="673.064" y="641.96" type="curve" smooth="yes"/>
      <point x="742.76" y="641.96"/>
      <point x="802.84" y="685.352"/>
      <point x="802.84" y="767.4" type="curve" smooth="yes"/>
      <point x="802.84" y="827.88"/>
      <point x="771.296" y="875.6"/>
    </contour>
    <contour>
      <point x="412.024" y="689.0" type="line"/>
      <point x="391.424" y="884.72" type="line"/>
      <point x="362.79200000000003" y="884.72" type="line"/>
      <point x="43.824" y="773.392" type="line"/>
      <point x="43.824" y="740.76" type="line"/>
      <point x="106.376" y="717.456"/>
      <point x="150.136" y="694.64"/>
      <point x="180.376" y="656.616" type="curve"/>
      <point x="180.376" y="90.088" type="line"/>
      <point x="47.88" y="39.12" type="line"/>
      <point x="47.88" y="0.0" type="line"/>
      <point x="556.0" y="0.0" type="line"/>
      <point x="556.0" y="39.12" type="line"/>
      <point x="412.024" y="93.48" type="line"/>
    </contour>
  </outline>
</glyph>
<glyph name="s" format="2">
  <advance width="760.424"/>
  <unicode hex="0073"/>
  <anchor x="375.264" y="860.48" name="top"/>
  <anchor x="386.472" y="0.0" name="bottom"/>
  <outline>
    <contour>
      <point x="406.864" y="884.72" type="curve" smooth="yes"/>
      <point x="232.024" y="884.72"/>
      <point x="84.888" y="790.936"/>
      <point x="84.888" y="623.16" type="curve" smooth="yes"/>
      <point x="84.888" y="488.52"/>
      <point x="153.288" y="408.44"/>
      <point x="285.48" y="359.016" type="curve" smooth="yes"/>
      <point x="417.672" y="309.168"/>
      <point x="502.328" y="278.168"/>
      <point x="502.328" y="189.216" type="curve" smooth="yes"/>
      <point x="502.328" y="98.968"/>
      <point x="425.72" y="54.751999999999995"/>
      <point x="307.352" y="54.751999999999995" type="curve" smooth="yes"/>
      <point x="255.568" y="54.751999999999995"/>
      <point x="207.728" y="60.872"/>
      <point x="135.272" y="92.36" type="curve"/>
      <point x="268.296" y="11.815999999999999" type="line"/>
      <point x="126.24" y="266.752" type="line"/>
      <point x="69.912" y="266.752" type="line"/>
      <point x="104.312" y="18.968" type="line"/>
      <point x="172.792" y="-10.848"/>
      <point x="248.872" y="-24.240000000000002"/>
      <point x="338.168" y="-24.240000000000002" type="curve" smooth="yes"/>
      <point x="538.912" y="-24.240000000000002"/>
      <point x="691.688" y="70.424"/>
      <point x="691.688" y="257.048" type="curve" smooth="yes"/>
      <point x="691.688" y="407.688"/>
      <point x="598.376" y="483.376"/>
      <point x="460.64" y="532.768" type="curve" smooth="yes"/>
      <point x="322.904" y="582.16"/>
      <point x="260.584" y="616.312"/>
      <point x="260.584" y="695.656" type="curve" smooth="yes"/>
      <point x="260.584" y="764.328"/>
      <point x="317.072" y="804.544"/>
      <point x="415.376" y="804.544" type="curve" smooth="yes"/>
      <point x="465.56" y="804.544"/>
      <point x="511.648" y="787.664"/>
      <point x="561.648" y="753.328" type="curve"/>
      <point x="485.592" y="836.48" type="line"/>
      <point x="598.432" y="595.6" type="line"/>
      <point x="656.272" y="595.6" type="line"/>
      <point x="644.664" y="833.296" type="line"/>
      <point x="562.0" y="869.6"/>
      <point x="500.79200000000003" y="884.72"/>
    </contour>
  </outline>
</glyph>
<glyph name="t" format="2">
  <advance width="716"/>
  <unicode hex="0074"/>
  <anchor x="414.912" y="0.0" name="bottom"/>
  <anchor x="362.28" y="1352.344" name="right"/>
  <outline>
    <contour>
      <point x="382.744" y="257.384" type="curve" smooth="yes"/>
      <point x="382.744" y="834.72" type="line"/>
      <point x="382.744" y="1025.4" type="line"/>
      <point x="327.152" y="1025.4" type="line"/>
      <point x="237.824" y="961.824"/>
      <point x="116.52" y="881.96"/>
      <point x="28.256" y="822.72" type="curve"/>
      <point x="28.256" y="789.456" type="line"/>
      <point x="151.52" y="697.92" type="line"/>
      <point x="151.52" y="224.32" type="line" smooth="yes"/>
      <point x="151.52" y="56.456"/>
      <point x="256.024" y="-21.936"/>
      <point x="410.648" y="-21.936" type="curve" smooth="yes"/>
      <point x="486.976" y="-21.936"/>
      <point x="580.96" y="14.328"/>
      <point x="710.528" y="113.288" type="curve"/>
      <point x="710.528" y="168.344" type="line"/>
      <point x="643.136" y="146.376"/>
      <point x="585.168" y="136.10399999999998"/>
      <point x="537.048" y="136.10399999999998" type="curve" smooth="yes"/>
      <point x="438.32" y="136.10399999999998"/>
      <point x="382.744" y="178.832"/>
    </contour>
    <contour>
      <point x="288.856" y="743.888" type="line"/>
      <point x="658.744" y="743.888" type="line"/>
      <point x="677.288" y="860.48" type="line"/>
      <point x="288.856" y="860.48" type="line"/>
    </contour>
  </outline>
</glyph>
<glyph name="v" format="2">
  <advance width="1042"/>
  <unicode hex="0076"/>
  <anchor x="545.736" y="860.48" name="top"/>
  <anchor x="529.56" y="0.0" name="bottom"/>
  <outline>
    <contour>
      <point x="919.904" y="776.24" type="line"/>
      <point x="1021.816" y="815.784" type="line"/>
      <point x="1021.816" y="860.48" type="line"/>
      <point x="697.304" y="860.48" type="line"/>
      <point x="697.304" y="815.784" type="line"/>
      <point x="814.16" y="777.088" type="line"/>
      <point x="582.16" y="167.88" type="line"/>
      <point x="634.472" y="169.152" type="line"/>
      <point x="359.528" y="775.904" type="line"/>
      <point x="477.656" y="815.784" type="line"/>
      <point x="477.656" y="860.48" type="line"/>
      <point x="-13.48" y="860.48" type="line"/>
      <point x="-13.48" y="816.632" type="line"/>
      <point x="107.128" y="767.512" type="line"/>
      <point x="472.464" y="-11.52" type="line"/>
      <point x="595.512" y="-11.52" type="line"/>
    </contour>
  </outline>
</glyph>
<glyph name="y" format="2">
  <advance width="1054.816"/>
  <unicode hex="0079"/>
  <anchor x="574.216" y="860.48" name="top"/>
  <anchor x="727.48" y="-141.16" name="bottom"/>
  <outline>
    <contour>
      <point x="648.2" y="173.712" type="line"/>
      <point x="371.832" y="775.904" type="line"/>
      <point x="489.96" y="815.784" type="line"/>
      <point x="489.96" y="860.48" type="line"/>
      <point x="-3.719999999999999" y="860.48" type="line"/>
      <point x="-3.719999999999999" y="816.632" type="line"/>
      <point x="116.888" y="767.088" type="line"/>
      <point x="533.616" y="-99.328" type="line"/>
    </contour>
    <contour>
      <point x="237.38400000000001" y="-530.0" type="curve" smooth="yes"/>
      <point x="370.4" y="-530.0"/>
      <point x="446.944" y="-467.784"/>
      <point x="552.088" y="-206.432" type="curve" smooth="yes"/>
      <point x="946.928" y="778.784" type="line"/>
      <point x="1046.84" y="815.784" type="line"/>
      <point x="1046.84" y="860.48" type="line"/>
      <point x="720.872" y="860.48" type="line"/>
      <point x="720.872" y="815.784" type="line"/>
      <point x="834.488" y="780.48" type="line"/>
      <point x="618.968" y="178.688" type="line"/>
      <point x="571.392" y="58.592" type="line"/>
      <point x="453.544" y="-212.696" type="line" smooth="yes"/>
      <point x="405.976" y="-317.928"/>
      <point x="367.616" y="-340.624"/>
      <point x="310.776" y="-340.624" type="curve" smooth="yes"/>
      <point x="250.088" y="-340.624"/>
      <point x="220.272" y="-306.744"/>
      <point x="182.664" y="-306.744" type="curve" smooth="yes"/>
      <point x="144.632" y="-306.744"/>
      <point x="99.304" y="-346.712"/>
      <point x="99.304" y="-407.888" type="curve" smooth="yes"/>
      <point x="99.304" y="-484.064"/>
      <point x="157.512" y="-530.0"/>
    </contour>
  </outline>
</glyph>
<glyph name="z" format="2">
	<unicode hex="007A"/>
	<advance width="870.424"/>
	<outline>
		<contour>
			<point x="58.912" y="0" type="line"/>
			<point x="770.48" y="0" type="line"/>
			<point x="841.688" y="289.352" type="line"/>
			<point x="785.088" y="289.352" type="line"/>
			<point x="612.344" y="34.12" type="line"/>
			<point x="689.936" y="100.352" type="line"/>
			<point x="203.968" y="84.664" type="line"/>
			<point x="305.504" y="36.184" type="line"/>
			<point x="807.272" y="827.576" type="line"/>
			<point x="807.272" y="860.48" type="line"/>
			<point x="218.12" y="860.48" type="line"/>
			<point x="135.824" y="884.72" type="line"/>
			<point x="105.096" y="884.72" type="line"/>
			<point x="56.616" y="578.64" type="line"/>
			<point x="113.456" y="578.64" type="line"/>
			<point x="260.056" y="833.208" type="line"/>
			<point x="139.128" y="760.976" type="line"/>
			<point x="662.888" y="774.968" type="line"/>
			<point x="556.68" y="822.296" type="line"/>
			<point x="58.912" y="32.48" type="line"/>
		</contour>
	</outline>
	<anchor name="top" x="464.504" y="860.48"/>
	<anchor name="bottom" x="451.744" y="0"/>
</glyph>
<glyph name="braceleft" format="2">
  <advance width="611.216"/>
  <unicode hex="007B"/>
  <outline>
    <contour>
      <point x="30.088" y="531.88" type="line"/>
      <point x="101.584" y="528.88" type="line" smooth="yes"/>
      <point x="192.888" y="524.608"/>
      <point x="230.136" y="488.576"/>
      <point x="230.136" y="400.336" type="curve" smooth="yes"/>
      <point x="230.136" y="260.928"/>
      <point x="175.472" y="136.064"/>
      <point x="175.472" y="22.728" type="curve" smooth="yes"/>
      <point x="175.472" y="-119.056"/>
      <point x="283.78645664925716" y="-245.2802456649257"/>
      <point x="481.584" y="-266.544" type="curve" smooth="yes"/>
      <point x="567.944" y="-275.816" type="line"/>
      <point x="576.216" y="-204.216" type="line"/>
      <point x="519.576" y="-196.64" type="line" smooth="yes"/>
      <point x="404.568" y="-181.488"/>
      <point x="365.72" y="-111.088"/>
      <point x="365.72" y="-10.968" type="curve" smooth="yes"/>
      <point x="365.72" y="91.52"/>
      <point x="393.36" y="210.064"/>
      <point x="393.36" y="351.032" type="curve" smooth="yes"/>
      <point x="393.36" y="454.72"/>
      <point x="334.784" y="547.088"/>
      <point x="201.056" y="579.424" type="curve"/>
      <point x="201.056" y="562.816" type="line"/>
      <point x="334.784" y="595.152"/>
      <point x="393.36" y="687.52"/>
      <point x="393.36" y="791.208" type="curve" smooth="yes"/>
      <point x="393.36" y="932.176"/>
      <point x="365.72" y="1050.72"/>
      <point x="365.72" y="1153.208" type="curve" smooth="yes"/>
      <point x="365.72" y="1253.328"/>
      <point x="404.568" y="1323.728"/>
      <point x="519.576" y="1338.88" type="curve" smooth="yes"/>
      <point x="576.216" y="1346.456" type="line"/>
      <point x="567.944" y="1418.056" type="line"/>
      <point x="481.584" y="1408.784" type="line" smooth="yes"/>
      <point x="283.7868080316381" y="1387.5202808031638"/>
      <point x="175.472" y="1261.296"/>
      <point x="175.472" y="1119.512" type="curve" smooth="yes"/>
      <point x="175.472" y="1006.176"/>
      <point x="230.136" y="881.312"/>
      <point x="230.136" y="741.904" type="curve" smooth="yes"/>
      <point x="230.136" y="653.664"/>
      <point x="192.888" y="617.632"/>
      <point x="101.584" y="613.36" type="curve" smooth="yes"/>
      <point x="30.088" y="610.36" type="line"/>
    </contour>
  </outline>
</glyph>
<glyph name="bar" format="2">
	<unicode hex="007C"/>
	<advance width="464.496"/>
	<outline>
		<contour>
			<point x="174.008" y="-530" type="line"/>
			<point x="290.488" y="-530" type="line"/>
			<point x="290.488" y="1470" type="line"/>
			<point x="174.008" y="1470" type="line"/>
		</contour>
	</outline>
</glyph>
<glyph name="braceright" format="2">
  <advance width="611.216"/>
  <unicode hex="007D"/>
  <outline>
    <contour>
      <point x="581.128" y="610.36" type="line"/>
      <point x="509.632" y="613.36" type="line" smooth="yes"/>
      <point x="418.328" y="617.632"/>
      <point x="381.08" y="653.664"/>
      <point x="381.08" y="741.904" type="curve" smooth="yes"/>
      <point x="381.08" y="881.312"/>
      <point x="435.744" y="1006.176"/>
      <point x="435.744" y="1119.512" type="curve" smooth="yes"/>
      <point x="435.744" y="1261.296"/>
      <point x="327.352" y="1387.24"/>
      <point x="129.632" y="1408.784" type="curve" smooth="yes"/>
      <point x="43.272" y="1418.056" type="line"/>
      <point x="35.0" y="1346.456" type="line"/>
      <point x="91.64" y="1338.88" type="line" smooth="yes"/>
      <point x="206.648" y="1323.728"/>
      <point x="245.496" y="1253.328"/>
      <point x="245.496" y="1153.208" type="curve" smooth="yes"/>
      <point x="245.496" y="1050.72"/>
      <point x="217.856" y="932.176"/>
      <point x="217.856" y="791.208" type="curve" smooth="yes"/>
      <point x="217.856" y="687.52"/>
      <point x="276.432" y="595.152"/>
      <point x="410.16" y="562.816" type="curve"/>
      <point x="410.16" y="579.424" type="line"/>
      <point x="276.432" y="547.088"/>
      <point x="217.856" y="454.72"/>
      <point x="217.856" y="351.032" type="curve" smooth="yes"/>
      <point x="217.856" y="210.064"/>
      <point x="245.496" y="91.52"/>
      <point x="245.496" y="-10.968" type="curve" smooth="yes"/>
      <point x="245.496" y="-111.088"/>
      <point x="206.648" y="-181.488"/>
      <point x="91.64" y="-196.64" type="curve" smooth="yes"/>
      <point x="35.0" y="-204.216" type="line"/>
      <point x="43.272" y="-275.816" type="line"/>
      <point x="129.632" y="-266.544" type="line" smooth="yes"/>
      <point x="327.352" y="-245.0"/>
      <point x="435.744" y="-119.056"/>
      <point x="435.744" y="22.728" type="curve" smooth="yes"/>
      <point x="435.744" y="136.064"/>
      <point x="381.08" y="260.928"/>
      <point x="381.08" y="400.336" type="curve" smooth="yes"/>
      <point x="381.08" y="488.576"/>
      <point x="418.328" y="524.608"/>
      <point x="509.632" y="528.88" type="curve" smooth="yes"/>
      <point x="581.128" y="531.88" type="line"/>
    </contour>
  </outline>
</glyph>
<glyph name="exclamdown" format="2">
	<unicode hex="00A1"/>
	<advance width="506.888"/>
	<outline>
		<contour>
			<point x="111.992" y="-423.512" type="line" smooth="yes"/>
			<point x="111.416" y="-482.04"/>
			<point x="182.248" y="-510.304"/>
			<point x="253.08" y="-510.304" type="curve" smooth="yes"/>
			<point x="323.912" y="-510.304"/>
			<point x="394.744" y="-482.04"/>
			<point x="394.168" y="-423.512" type="curve" smooth="yes"/>
			<point x="391.864" y="-322.112" type="line" smooth="yes"/>
			<point x="390.136" y="-211.704"/>
			<point x="347.112" y="-0.912"/>
			<point x="285.624" y="412.992" type="curve"/>
			<point x="220.536" y="412.992" type="line"/>
			<point x="159.048" y="-0.912"/>
			<point x="116.024" y="-211.704"/>
			<point x="114.296" y="-322.112" type="curve" smooth="yes"/>
		</contour>
		<contour>
			<point x="253.384" y="576.936" type="curve" smooth="yes"/>
			<point x="340.768" y="576.936"/>
			<point x="404.064" y="642.656"/>
			<point x="404.064" y="724.344" type="curve" smooth="yes"/>
			<point x="404.064" y="806.456"/>
			<point x="340.768" y="872.176"/>
			<point x="253.384" y="872.176" type="curve" smooth="yes"/>
			<point x="166" y="872.176"/>
			<point x="102.704" y="806.456"/>
			<point x="102.704" y="724.344" type="curve" smooth="yes"/>
			<point x="102.704" y="642.656"/>
			<point x="166" y="576.936"/>
		</contour>
	</outline>
</glyph>
<glyph name="currency" format="2">
	<unicode hex="00A4"/>
	<advance width="883.936"/>
	<outline>
		<contour>
			<point x="188.968" y="765.808" type="line"/>
			<point x="112.16" y="689" type="line"/>
			<point x="227.968" y="573.192" type="line"/>
			<point x="304.776" y="650" type="line"/>
		</contour>
		<contour>
			<point x="112.16" y="183" type="line"/>
			<point x="188.968" y="106.192" type="line"/>
			<point x="301.776" y="219" type="line"/>
			<point x="224.968" y="295.808" type="line"/>
		</contour>
		<contour>
			<point x="441.968" y="715.72" type="curve" smooth="yes"/>
			<point x="278.336" y="715.72"/>
			<point x="161.248" y="599.208"/>
			<point x="161.248" y="436" type="curve" smooth="yes"/>
			<point x="161.248" y="272.792"/>
			<point x="278.336" y="156.28"/>
			<point x="441.968" y="156.28" type="curve" smooth="yes"/>
			<point x="605.6" y="156.28"/>
			<point x="722.688" y="272.792"/>
			<point x="722.688" y="436" type="curve" smooth="yes"/>
			<point x="722.688" y="599.208"/>
			<point x="605.6" y="715.72"/>
		</contour>
		<contour>
			<point x="441.968" y="256.328" type="curve" smooth="yes"/>
			<point x="339.056" y="256.328"/>
			<point x="266.296" y="328.512"/>
			<point x="266.296" y="436" type="curve" smooth="yes"/>
			<point x="266.296" y="543.488"/>
			<point x="339.056" y="615.672"/>
			<point x="441.968" y="615.672" type="curve" smooth="yes"/>
			<point x="544.88" y="615.672"/>
			<point x="617.64" y="543.488"/>
			<point x="617.64" y="436" type="curve" smooth="yes"/>
			<point x="617.64" y="328.512"/>
			<point x="544.88" y="256.328"/>
		</contour>
		<contour>
			<point x="771.776" y="689" type="line"/>
			<point x="694.968" y="765.808" type="line"/>
			<point x="579.16" y="650" type="line"/>
			<point x="655.968" y="573.192" type="line"/>
		</contour>
		<contour>
			<point x="771.776" y="183" type="line"/>
			<point x="658.968" y="295.808" type="line"/>
			<point x="582.16" y="219" type="line"/>
			<point x="694.968" y="106.192" type="line"/>
		</contour>
	</outline>
</glyph>
<glyph name="copyright" format="2">
  <advance width="1614.912"/>
  <unicode hex="00A9"/>
  <outline>
    <contour>
      <point x="806.608" y="1364.24" type="curve" smooth="yes"/>
      <point x="398.488" y="1364.24"/>
      <point x="106.216" y="1076.12"/>
      <point x="106.216" y="669.576" type="curve" smooth="yes"/>
      <point x="106.216" y="263.032"/>
      <point x="398.488" y="-24.240000000000002"/>
      <point x="806.608" y="-24.240000000000002" type="curve" smooth="yes"/>
      <point x="1215.576" y="-24.240000000000002"/>
      <point x="1508.696" y="263.032"/>
      <point x="1508.696" y="669.576" type="curve" smooth="yes"/>
      <point x="1508.696" y="1076.12"/>
      <point x="1215.576" y="1364.24"/>
    </contour>
    <contour>
      <point x="806.608" y="1269.184" type="curve" smooth="yes"/>
      <point x="1150.336" y="1269.184"/>
      <point x="1400.064" y="1021.88"/>
      <point x="1400.064" y="669.576" type="curve" smooth="yes"/>
      <point x="1400.064" y="317.696"/>
      <point x="1150.336" y="70.392"/>
      <point x="806.608" y="70.392" type="curve" smooth="yes"/>
      <point x="464.152" y="70.392"/>
      <point x="214.424" y="317.696"/>
      <point x="214.424" y="669.576" type="curve" smooth="yes"/>
      <point x="214.424" y="1021.88"/>
      <point x="464.152" y="1269.184"/>
    </contour>
    <contour>
      <point x="896.472" y="367.032" type="curve"/>
      <point x="752.184" y="367.032"/>
      <point x="641.568" y="498.272"/>
      <point x="641.568" y="709.208" type="curve" smooth="yes"/>
      <point x="641.568" y="890.2"/>
      <point x="721.88" y="983.544"/>
      <point x="868.816" y="983.544" type="curve" smooth="yes"/>
      <point x="917.0" y="983.544"/>
      <point x="959.272" y="972.0"/>
      <point x="1009.52" y="941.88" type="curve"/>
      <point x="952.76" y="996.968" type="line"/>
      <point x="1075.24" y="788.096" type="line"/>
      <point x="1117.056" y="798.792" type="line"/>
      <point x="1077.056" y="1092.152" type="line"/>
      <point x="1055.608" y="1092.152" type="line"/>
      <point x="973.0" y="1035.064" type="line"/>
      <point x="1027.904" y="1044.304" type="line"/>
      <point x="961.36" y="1059.576"/>
      <point x="922.784" y="1065.0"/>
      <point x="873.392" y="1065.0" type="curve" smooth="yes"/>
      <point x="594.392" y="1065.0"/>
      <point x="427.304" y="906.968"/>
      <point x="427.304" y="674.512" type="curve" smooth="yes"/>
      <point x="427.304" y="429.64"/>
      <point x="597.576" y="285.576"/>
      <point x="860.176" y="285.576" type="curve" smooth="yes"/>
      <point x="942.536" y="285.576"/>
      <point x="1016.24" y="296.304"/>
      <point x="1087.632" y="317.336" type="curve"/>
      <point x="1130.384" y="538.488" type="line"/>
      <point x="1087.84" y="538.488" type="line"/>
      <point x="960.216" y="339.608" type="line"/>
      <point x="1031.76" y="397.88" type="line"/>
      <point x="983.208" y="373.576"/>
      <point x="943.84" y="367.032"/>
    </contour>
  </outline>
</glyph>
<glyph name="ordfeminine" format="2">
	<unicode hex="00AA"/>
	<advance width="893.536"/>
	<outline>
		<contour>
			<point x="121.088" y="455.096" type="line"/>
			<point x="792.592" y="455.096" type="line"/>
			<point x="792.592" y="562.328" type="line"/>
			<point x="121.088" y="562.328" type="line"/>
		</contour>
		<contour>
			<point x="548.024" y="1032.312" type="curve"/>
			<point x="539.96" y="1108.216" type="line"/>
			<point x="201.592" y="1030.032"/>
			<point x="124.288" y="958.184"/>
			<point x="124.288" y="846.728" type="curve" smooth="yes"/>
			<point x="124.288" y="733.064"/>
			<point x="203.44" y="675.184"/>
			<point x="314.864" y="675.184" type="curve" smooth="yes"/>
			<point x="407.104" y="675.184"/>
			<point x="485.616" y="734.696"/>
			<point x="510.648" y="833.84" type="curve"/>
			<point x="505.104" y="833.84" type="line"/>
			<point x="506.376" y="743.6"/>
			<point x="553.712" y="676.336"/>
			<point x="649.216" y="676.336" type="curve" smooth="yes"/>
			<point x="697.272" y="676.336"/>
			<point x="743.048" y="693.696"/>
			<point x="798.44" y="735.968" type="curve"/>
			<point x="798.44" y="788.176" type="line"/>
			<point x="777.288" y="779.296"/>
			<point x="755.104" y="775.144"/>
			<point x="736.072" y="775.144" type="curve" smooth="yes"/>
			<point x="706.16" y="775.144"/>
			<point x="691.704" y="792.6"/>
			<point x="691.704" y="830.424" type="curve" smooth="yes"/>
			<point x="691.704" y="1163.768" type="line" smooth="yes"/>
			<point x="691.704" y="1283.008"/>
			<point x="639.76" y="1360"/>
			<point x="462.84" y="1360" type="curve" smooth="yes"/>
			<point x="297.912" y="1360"/>
			<point x="128.8" y="1267.848"/>
			<point x="128.8" y="1187.248" type="curve" smooth="yes"/>
			<point x="128.8" y="1157.28"/>
			<point x="153.344" y="1139.704"/>
			<point x="195.128" y="1139.704" type="curve" smooth="yes"/>
			<point x="225.672" y="1139.704"/>
			<point x="253.096" y="1147.856"/>
			<point x="273.944" y="1170.4" type="curve" smooth="yes"/>
			<point x="295.216" y="1192.944"/>
			<point x="305.456" y="1230.728"/>
			<point x="313.88" y="1304.816" type="curve"/>
			<point x="280.48" y="1250.792" type="line"/>
			<point x="313.152" y="1264.704"/>
			<point x="353.096" y="1272.16"/>
			<point x="384.976" y="1272.16" type="curve" smooth="yes"/>
			<point x="461.648" y="1272.16"/>
			<point x="495.256" y="1231.944"/>
			<point x="495.256" y="1168.544" type="curve" smooth="yes"/>
			<point x="495.256" y="897.544" type="line" smooth="yes"/>
			<point x="495.256" y="840.688"/>
			<point x="455.008" y="791.408"/>
			<point x="399.272" y="791.408" type="curve" smooth="yes"/>
			<point x="352.992" y="791.408"/>
			<point x="316.016" y="820.624"/>
			<point x="316.016" y="883.808" type="curve" smooth="yes"/>
			<point x="316.016" y="947.088"/>
			<point x="354.296" y="989.912"/>
		</contour>
	</outline>
</glyph>
<glyph name="guillemotleft" format="2">
  <advance width="996.376"/>
  <unicode hex="00AB"/>
  <outline>
    <contour>
      <point x="252.584" y="509.4" type="line"/>
      <point x="252.584" y="356.84" type="line"/>
      <point x="515.448" y="811.36" type="line"/>
      <point x="464.272" y="851.84" type="line"/>
      <point x="51.248000000000005" y="463.84" type="line"/>
      <point x="51.248000000000005" y="402.4" type="line"/>
      <point x="464.272" y="14.4" type="line"/>
      <point x="515.448" y="54.88" type="line"/>
    </contour>
    <contour>
      <point x="662.264" y="509.4" type="line"/>
      <point x="662.264" y="356.84" type="line"/>
      <point x="925.128" y="811.36" type="line"/>
      <point x="873.952" y="851.84" type="line"/>
      <point x="460.928" y="463.84" type="line"/>
      <point x="460.928" y="402.4" type="line"/>
      <point x="873.952" y="14.4" type="line"/>
      <point x="925.128" y="54.88" type="line"/>
    </contour>
  </outline>
</glyph>
<glyph name="logicalnot" format="2">
  <advance width="1000.0"/>
  <unicode hex="00AC"/>
  <outline>
    <contour>
      <point x="125.584" y="660.72" type="line"/>
      <point x="125.584" y="551.28" type="line"/>
      <point x="865.024" y="551.28" type="line"/>
      <point x="865.024" y="660.72" type="line"/>
    </contour>
    <contour>
      <point x="865.024" y="615.72" type="line"/>
      <point x="755.584" y="615.72" type="line"/>
      <point x="755.584" y="211.28" type="line"/>
      <point x="865.024" y="211.28" type="line"/>
    </contour>
  </outline>
</glyph>
<glyph name="registered" format="2">
	<unicode hex="00AE"/>
	<advance width="1078.216"/>
	<outline>
		<contour>
			<point x="536.608" y="1364.24" type="curve" smooth="yes"/>
			<point x="286.608" y="1364.24"/>
			<point x="103.368" y="1185.544"/>
			<point x="103.368" y="934" type="curve" smooth="yes"/>
			<point x="103.368" y="683.456"/>
			<point x="286.608" y="501.76"/>
			<point x="536.608" y="501.76" type="curve" smooth="yes"/>
			<point x="788.608" y="501.76"/>
			<point x="974.848" y="683.456"/>
			<point x="974.848" y="934" type="curve" smooth="yes"/>
			<point x="974.848" y="1185.544"/>
			<point x="788.608" y="1364.24"/>
		</contour>
		<contour>
			<point x="536.608" y="1287.032" type="curve" smooth="yes"/>
			<point x="740.216" y="1287.032"/>
			<point x="891.064" y="1143.304"/>
			<point x="891.064" y="934" type="curve" smooth="yes"/>
			<point x="891.064" y="726.696"/>
			<point x="740.216" y="579.968"/>
			<point x="536.608" y="579.968" type="curve" smooth="yes"/>
			<point x="335" y="579.968"/>
			<point x="187.152" y="726.696"/>
			<point x="187.152" y="934" type="curve" smooth="yes"/>
			<point x="187.152" y="1143.304"/>
			<point x="335" y="1287.032"/>
		</contour>
		<contour>
			<point x="435.992" y="966.424" type="line"/>
			<point x="433.96" y="909.184" type="line"/>
			<point x="537.488" y="909.184" type="line" smooth="yes"/>
			<point x="574.88" y="909.184"/>
			<point x="587.608" y="897.792"/>
			<point x="599.248" y="857.392" type="curve" smooth="yes"/>
			<point x="616.768" y="792.416" type="line" smooth="yes"/>
			<point x="632.952" y="718.424"/>
			<point x="655.648" y="707.336"/>
			<point x="777.272" y="717.424" type="curve"/>
			<point x="777.272" y="752.152" type="line"/>
			<point x="752.696" y="752.152"/>
			<point x="742.968" y="758.152"/>
			<point x="731.208" y="799.608" type="curve" smooth="yes"/>
			<point x="706.504" y="877.584" type="line" smooth="yes"/>
			<point x="693.472" y="928.488"/>
			<point x="667.112" y="946.848"/>
			<point x="599.72" y="948.12" type="curve"/>
			<point x="599.72" y="943.088" type="line"/>
			<point x="694.328" y="948.696"/>
			<point x="736.72" y="1000.848"/>
			<point x="736.72" y="1055.664" type="curve" smooth="yes"/>
			<point x="736.72" y="1119.848"/>
			<point x="694.84" y="1166"/>
			<point x="577.688" y="1166" type="curve" smooth="yes"/>
			<point x="428.504" y="1166" type="line"/>
			<point x="439.016" y="1111.184" type="line"/>
			<point x="536.688" y="1111.184" type="line" smooth="yes"/>
			<point x="599.76" y="1111.184"/>
			<point x="622.64" y="1087.272"/>
			<point x="622.64" y="1040.848" type="curve" smooth="yes"/>
			<point x="622.64" y="990.12"/>
			<point x="595.728" y="966.424"/>
			<point x="551.152" y="966.424" type="curve" smooth="yes"/>
		</contour>
		<contour>
			<point x="382.192" y="1116.304" type="line"/>
			<point x="382.192" y="768.696" type="line"/>
			<point x="332.008" y="749.848" type="line"/>
			<point x="332.008" y="717" type="line"/>
			<point x="543.392" y="717" type="line"/>
			<point x="543.392" y="749.848" type="line"/>
			<point x="494.784" y="768.696" type="line"/>
			<point x="494.784" y="1166" type="line"/>
			<point x="332.008" y="1166" type="line"/>
			<point x="332.008" y="1135.152" type="line"/>
		</contour>
	</outline>
</glyph>
<glyph name="degree" format="2">
  <advance width="751.28"/>
  <unicode hex="00B0"/>
  <outline>
    <contour>
      <point x="375.64" y="1354.24" type="curve" smooth="yes"/>
      <point x="197.096" y="1354.24"/>
      <point x="69.4" y="1228.544"/>
      <point x="69.4" y="1050.0" type="curve" smooth="yes"/>
      <point x="69.4" y="871.456"/>
      <point x="197.096" y="745.76"/>
      <point x="375.64" y="745.76" type="curve" smooth="yes"/>
      <point x="554.184" y="745.76"/>
      <point x="681.88" y="871.456"/>
      <point x="681.88" y="1050.0" type="curve" smooth="yes"/>
      <point x="681.88" y="1228.544"/>
      <point x="554.184" y="1354.24"/>
    </contour>
    <contour>
      <point x="375.64" y="831.936" type="curve" smooth="yes"/>
      <point x="251.032" y="831.936"/>
      <point x="161.152" y="919.392"/>
      <point x="161.152" y="1050.0" type="curve" smooth="yes"/>
      <point x="161.152" y="1180.608"/>
      <point x="251.032" y="1268.064"/>
      <point x="375.64" y="1268.064" type="curve" smooth="yes"/>
      <point x="500.248" y="1268.064"/>
      <point x="590.128" y="1180.608"/>
      <point x="590.128" y="1050.0" type="curve" smooth="yes"/>
      <point x="590.128" y="919.392"/>
      <point x="500.248" y="831.936"/>
    </contour>
  </outline>
</glyph>
<glyph name="plusminus" format="2">
	<unicode hex="00B1"/>
	<advance width="1000"/>
	<outline>
		<contour>
			<point x="445.28" y="860.48" type="line"/>
			<point x="445.28" y="121.04" type="line"/>
			<point x="554.72" y="121.04" type="line"/>
			<point x="554.72" y="860.48" type="line"/>
		</contour>
		<contour>
			<point x="130.28" y="545.48" type="line"/>
			<point x="130.28" y="436.04" type="line"/>
			<point x="869.72" y="436.04" type="line"/>
			<point x="869.72" y="545.48" type="line"/>
		</contour>
		<contour>
			<point x="130.28" y="109.44" type="line"/>
			<point x="130.28" y="0" type="line"/>
			<point x="869.72" y="0" type="line"/>
			<point x="869.72" y="109.44" type="line"/>
		</contour>
	</outline>
</glyph>
<glyph name="uni00B2" format="2">
	<unicode hex="00B2"/>
	<advance width="706.528"/>
	<outline>
		<contour>
			<point x="468.24" y="679.936" type="line"/>
			<point x="602.848" y="757.528" type="line"/>
			<point x="210.744" y="757.528" type="line"/>
			<point x="214.744" y="702.44" type="line"/>
			<point x="345.088" y="816.064" type="line" smooth="yes"/>
			<point x="536.68" y="974.4"/>
			<point x="597.648" y="1050.64"/>
			<point x="597.648" y="1152.032" type="curve" smooth="yes"/>
			<point x="597.648" y="1278.424"/>
			<point x="499.408" y="1356.544"/>
			<point x="354.416" y="1356.544" type="curve" smooth="yes"/>
			<point x="200.576" y="1356.544"/>
			<point x="96.608" y="1268.152"/>
			<point x="54.824" y="1080.92" type="curve"/>
			<point x="110.512" y="1066.832" type="line"/>
			<point x="140.24" y="1167.168"/>
			<point x="198.76" y="1206.44"/>
			<point x="277.096" y="1206.44" type="curve" smooth="yes"/>
			<point x="354.16" y="1206.44"/>
			<point x="403.344" y="1159.256"/>
			<point x="403.344" y="1095.224" type="curve" smooth="yes"/>
			<point x="403.344" y="1018.856"/>
			<point x="366.04" y="949.552"/>
			<point x="259.92" y="836.488" type="curve" smooth="yes"/>
			<point x="67.792" y="630.2" type="line"/>
			<point x="67.792" y="592" type="line"/>
			<point x="512.288" y="592" type="line"/>
			<point x="587.376" y="565.336" type="line"/>
			<point x="605.616" y="565.336" type="line"/>
			<point x="656.248" y="869.56" type="line"/>
			<point x="624.736" y="869.56" type="line"/>
		</contour>
	</outline>
</glyph>
<glyph name="uni00B3" format="2">
  <advance width="667"/>
  <unicode hex="00B3"/>
  <outline>
    <contour>
      <point x="237.016" y="575.456" type="curve" smooth="yes"/>
      <point x="474.248" y="575.456"/>
      <point x="619.824" y="702.544"/>
      <point x="619.824" y="857.696" type="curve" smooth="yes"/>
      <point x="619.824" y="978.544"/>
      <point x="524.28" y="1058.232"/>
      <point x="347.352" y="1026.512" type="curve"/>
      <point x="337.688" y="1021.36" type="line"/>
      <point x="455.744" y="1036.032"/>
      <point x="543.344" y="1107.272"/>
      <point x="543.344" y="1205.088" type="curve" smooth="yes"/>
      <point x="543.344" y="1294.816"/>
      <point x="475.496" y="1359.512"/>
      <point x="345.744" y="1359.512" type="curve" smooth="yes"/>
      <point x="194.424" y="1359.512"/>
      <point x="112.272" y="1276.968"/>
      <point x="73.672" y="1130.128" type="curve"/>
      <point x="128.816" y="1113.16" type="line"/>
      <point x="154.088" y="1194.68"/>
      <point x="205.968" y="1235.224"/>
      <point x="281.424" y="1235.224" type="curve" smooth="yes"/>
      <point x="344.488" y="1235.224"/>
      <point x="379.248" y="1196.192"/>
      <point x="379.248" y="1144.128" type="curve" smooth="yes"/>
      <point x="379.248" y="1078.4"/>
      <point x="341.608" y="1032.336"/>
      <point x="191.936" y="987.032" type="curve"/>
      <point x="209.48" y="928.128" type="line"/>
      <point x="247.36" y="937.704" type="line" smooth="yes"/>
      <point x="367.088" y="968.856"/>
      <point x="436.064" y="923.64"/>
      <point x="436.064" y="814.304" type="curve" smooth="yes"/>
      <point x="436.064" y="703.936"/>
      <point x="369.512" y="653.512"/>
      <point x="298.36" y="653.512" type="curve" smooth="yes"/>
      <point x="204.24" y="653.512"/>
      <point x="185.544" y="740.656"/>
      <point x="113.76" y="740.656" type="curve" smooth="yes"/>
      <point x="74.55199999999999" y="740.656"/>
      <point x="47.432" y="714.416"/>
      <point x="47.432" y="676.6" type="curve" smooth="yes"/>
      <point x="47.432" y="626.24"/>
      <point x="95.792" y="575.456"/>
    </contour>
  </outline>
</glyph>
<glyph name="paragraph" format="2">
  <advance width="1233.328"/>
  <unicode hex="00B6"/>
  <outline>
    <contour>
      <point x="684.32" y="1340.0" type="line"/>
      <point x="449.536" y="1340.0" type="line" smooth="yes"/>
      <point x="165.544" y="1340.0"/>
      <point x="52.032" y="1173.944"/>
      <point x="52.032" y="984.616" type="curve" smooth="yes"/>
      <point x="52.032" y="788.288"/>
      <point x="170.968" y="643.08"/>
      <point x="449.536" y="643.08" type="curve" smooth="yes"/>
      <point x="684.32" y="643.08" type="line"/>
    </contour>
    <contour>
      <point x="729.52" y="-252.88" type="line"/>
      <point x="729.52" y="1235.4" type="line"/>
      <point x="904.76" y="1235.4" type="line"/>
      <point x="904.76" y="1340.0" type="line"/>
      <point x="616.56" y="1340.0" type="line"/>
      <point x="616.56" y="-252.88" type="line"/>
    </contour>
    <contour>
      <point x="993.72" y="-252.88" type="line"/>
      <point x="993.72" y="1244.4" type="line"/>
      <point x="1160.2" y="1296.368" type="line"/>
      <point x="1160.2" y="1340.0" type="line"/>
      <point x="880.76" y="1340.0" type="line"/>
      <point x="880.76" y="-252.88" type="line"/>
    </contour>
  </outline>
</glyph>
<glyph name="uni00B9" format="2">
  <advance width="541.768"/>
  <unicode hex="00B9"/>
  <outline>
    <contour>
      <point x="217.304" y="658.936" type="line"/>
      <point x="103.184" y="627.24" type="line"/>
      <point x="103.184" y="592.0" type="line"/>
      <point x="504.79200000000003" y="592.0" type="line"/>
      <point x="504.79200000000003" y="627.24" type="line"/>
      <point x="398.096" y="658.936" type="line"/>
      <point x="398.096" y="1342.88" type="line"/>
      <point x="302.392" y="1342.88" type="line"/>
      <point x="29.128" y="1197.52" type="line"/>
      <point x="44.944" y="1148.496" type="line"/>
      <point x="260.936" y="1208.432" type="line"/>
      <point x="217.304" y="1281.456" type="line"/>
    </contour>
  </outline>
</glyph>
<glyph name="ordmasculine" format="2">
	<unicode hex="00BA"/>
	<advance width="910.592"/>
	<outline>
		<contour>
			<point x="137.4" y="452.792" type="line"/>
			<point x="773.192" y="452.792" type="line"/>
			<point x="773.192" y="565.208" type="line"/>
			<point x="137.4" y="565.208" type="line"/>
		</contour>
		<contour>
			<point x="460.72" y="766.936" type="curve" smooth="yes"/>
			<point x="362.984" y="766.936"/>
			<point x="306.368" y="863.24"/>
			<point x="306.368" y="1041.632" type="curve" smooth="yes"/>
			<point x="306.368" y="1203.664"/>
			<point x="366.68" y="1267.52"/>
			<point x="451.176" y="1267.52" type="curve" smooth="yes"/>
			<point x="548.76" y="1267.52"/>
			<point x="605.528" y="1171.368"/>
			<point x="605.528" y="991.4" type="curve" smooth="yes"/>
			<point x="605.528" y="828.792"/>
			<point x="544.488" y="766.936"/>
		</contour>
		<contour>
			<point x="451.328" y="675.184" type="curve" smooth="yes"/>
			<point x="660.256" y="675.184"/>
			<point x="809.16" y="822.032"/>
			<point x="809.16" y="1024.848" type="curve" smooth="yes"/>
			<point x="809.16" y="1223.272"/>
			<point x="674.192" y="1360"/>
			<point x="460.992" y="1360" type="curve" smooth="yes"/>
			<point x="251.064" y="1360"/>
			<point x="101.432" y="1212"/>
			<point x="101.432" y="1007.456" type="curve" smooth="yes"/>
			<point x="101.432" y="811.488"/>
			<point x="237.552" y="675.184"/>
		</contour>
	</outline>
</glyph>
<glyph name="guillemotright" format="2">
	<unicode hex="00BB"/>
	<advance width="1037.04"/>
	<outline>
		<contour>
			<point x="347.808" y="357.84" type="line"/>
			<point x="347.808" y="510.4" type="line"/>
			<point x="84.944" y="55.88" type="line"/>
			<point x="136.12" y="15.4" type="line"/>
			<point x="549.144" y="403.4" type="line"/>
			<point x="549.144" y="464.84" type="line"/>
			<point x="136.12" y="852.84" type="line"/>
			<point x="84.944" y="812.36" type="line"/>
		</contour>
		<contour>
			<point x="757.488" y="357.84" type="line"/>
			<point x="757.488" y="510.4" type="line"/>
			<point x="494.624" y="55.88" type="line"/>
			<point x="545.8" y="15.4" type="line"/>
			<point x="958.824" y="403.4" type="line"/>
			<point x="958.824" y="464.84" type="line"/>
			<point x="545.8" y="852.84" type="line"/>
			<point x="494.624" y="812.36" type="line"/>
		</contour>
	</outline>
</glyph>
<glyph name="questiondown" format="2">
  <advance width="894"/>
  <unicode hex="00BF"/>
  <outline>
    <contour>
      <point x="612.84" y="-506.064" type="curve" smooth="yes"/>
      <point x="783.976" y="-506.064"/>
      <point x="861.856" y="-454.16"/>
      <point x="861.856" y="-381.344" type="curve" smooth="yes"/>
      <point x="861.856" y="-320.472"/>
      <point x="814.92" y="-273.688"/>
      <point x="754.256" y="-273.688" type="curve" smooth="yes"/>
      <point x="638.176" y="-273.688"/>
      <point x="592.44" y="-385.952"/>
      <point x="463.864" y="-385.952" type="curve" smooth="yes"/>
      <point x="335.79200000000003" y="-385.952"/>
      <point x="257.264" y="-308.728"/>
      <point x="257.264" y="-173.92000000000002" type="curve" smooth="yes"/>
      <point x="257.264" y="-29.304000000000002"/>
      <point x="372.816" y="58.184000000000005"/>
      <point x="646.088" y="45.664" type="curve"/>
      <point x="559.52" y="417.23199999999997" type="line"/>
      <point x="508.464" y="417.23199999999997" type="line"/>
      <point x="491.504" y="96.28" type="line"/>
      <point x="560.016" y="238.112" type="line"/>
      <point x="219.136" y="245.024"/>
      <point x="106.112" y="120.048"/>
      <point x="106.112" y="-81.248" type="curve" smooth="yes"/>
      <point x="106.112" y="-345.344"/>
      <point x="305.696" y="-506.064"/>
    </contour>
    <contour>
      <point x="527.672" y="576.936" type="curve" smooth="yes"/>
      <point x="615.056" y="576.936"/>
      <point x="678.352" y="642.656"/>
      <point x="678.352" y="724.344" type="curve" smooth="yes"/>
      <point x="678.352" y="806.456"/>
      <point x="615.056" y="872.176"/>
      <point x="527.672" y="872.176" type="curve" smooth="yes"/>
      <point x="440.288" y="872.176"/>
      <point x="376.992" y="806.456"/>
      <point x="376.992" y="724.344" type="curve" smooth="yes"/>
      <point x="376.992" y="642.656"/>
      <point x="440.288" y="576.936"/>
    </contour>
  </outline>
</glyph>
<glyph name="AE" format="2">
	<unicode hex="00C6"/>
	<advance width="2000.8"/>
	<outline>
		<contour>
			<point x="441.336" y="464.112" type="line"/>
			<point x="1030.744" y="464.112" type="line"/>
			<point x="1030.744" y="573.344" type="line"/>
			<point x="441.336" y="573.344" type="line"/>
		</contour>
		<contour>
			<point x="868.272" y="1340" type="line"/>
			<point x="126.456" y="98.632" type="line"/>
			<point x="-30.784" y="41.968" type="line"/>
			<point x="-30.784" y="0" type="line"/>
			<point x="414.024" y="0" type="line"/>
			<point x="414.024" y="41.968" type="line"/>
			<point x="256.112" y="98.632" type="line"/>
			<point x="961.904" y="1274.984" type="line"/>
			<point x="961.904" y="1340" type="line"/>
		</contour>
		<contour>
			<point x="646.288" y="1298.032" type="line"/>
			<point x="847.544" y="1218.984" type="line"/>
			<point x="916.8" y="1340" type="line"/>
			<point x="646.288" y="1340" type="line"/>
		</contour>
		<contour>
			<point x="1641.016" y="965" type="line"/>
			<point x="1551.328" y="965" type="line"/>
			<point x="1529.328" y="759.328" type="line"/>
			<point x="1051.536" y="759.328" type="line"/>
			<point x="1051.536" y="646.672" type="line"/>
			<point x="1529.328" y="646.672" type="line"/>
			<point x="1551.328" y="441" type="line"/>
			<point x="1641.016" y="441" type="line"/>
			<point x="1641.016" y="703" type="line"/>
		</contour>
		<contour>
			<point x="1908.432" y="954.792" type="line"/>
			<point x="1833.256" y="1400.448" type="line"/>
			<point x="1807.928" y="1400.448" type="line"/>
			<point x="1688.72" y="1340" type="line"/>
			<point x="1051.536" y="1340" type="line"/>
			<point x="1051.536" y="1227.344" type="line"/>
			<point x="1728.536" y="1227.344" type="line"/>
			<point x="1655.728" y="1264.88" type="line"/>
			<point x="1854.648" y="942.824" type="line"/>
		</contour>
		<contour>
			<point x="1684.328" y="73.936" type="line"/>
			<point x="1740.776" y="112.656" type="line"/>
			<point x="1051.536" y="112.656" type="line"/>
			<point x="1051.536" y="0" type="line"/>
			<point x="1710.536" y="0" type="line"/>
			<point x="1838.256" y="-68.328" type="line"/>
			<point x="1865.704" y="-68.328" type="line"/>
			<point x="1945.76" y="401.376" type="line"/>
			<point x="1898.4" y="413.648" type="line"/>
		</contour>
		<contour>
			<point x="783.504" y="0" type="line"/>
			<point x="1190.544" y="0" type="line"/>
			<point x="1190.544" y="1340" type="line"/>
			<point x="933.024" y="1340" type="line"/>
			<point x="933.024" y="98.208" type="line"/>
			<point x="783.504" y="41.968" type="line"/>
		</contour>
	</outline>
	<anchor name="UCtop" x="1065.6" y="1340"/>
	<anchor name="bottom" x="1010.48" y="0"/>
</glyph>
<glyph name="Ccedilla" format="2">
  <advance width="1400.928"/>
  <unicode hex="00C7"/>
  <outline>
    <contour>
      <point x="898.064" y="91.2" type="curve" smooth="yes"/>
      <point x="580.72" y="91.2"/>
      <point x="350.224" y="314.208"/>
      <point x="350.224" y="743.656" type="curve" smooth="yes"/>
      <point x="350.224" y="1069.632"/>
      <point x="521.024" y="1248.92"/>
      <point x="838.088" y="1248.92" type="curve" smooth="yes"/>
      <point x="940.936" y="1248.92"/>
      <point x="1027.448" y="1227.104"/>
      <point x="1135.632" y="1158.624" type="curve"/>
      <point x="1066.8" y="1231.272" type="line"/>
      <point x="1261.024" y="908.528" type="line"/>
      <point x="1318.048" y="920.92" type="line"/>
      <point x="1251.992" y="1406.48" type="line"/>
      <point x="1220.848" y="1406.48" type="line"/>
      <point x="1089.912" y="1313.304" type="line"/>
      <point x="1160.448" y="1329.24" type="line"/>
      <point x="1044.328" y="1356.24"/>
      <point x="969.784" y="1364.24"/>
      <point x="885.088" y="1364.24" type="curve" smooth="yes"/>
      <point x="384.152" y="1364.24"/>
      <point x="81.28" y="1081.032"/>
      <point x="81.28" y="658.0" type="curve" smooth="yes"/>
      <point x="81.28" y="223.824"/>
      <point x="375.104" y="-24.240000000000002"/>
      <point x="846.392" y="-24.240000000000002" type="curve" smooth="yes"/>
      <point x="1017.784" y="-24.240000000000002"/>
      <point x="1173.12" y="5.52"/>
      <point x="1283.32" y="52.488" type="curve"/>
      <point x="1323.528" y="388.344" type="line"/>
      <point x="1267.984" y="388.344" type="line"/>
      <point x="1101.848" y="98.144" type="line"/>
      <point x="1161.416" y="142.352" type="line"/>
      <point x="1065.112" y="104.656"/>
      <point x="988.224" y="91.2"/>
    </contour>
    <contour>
      <point x="681.96" y="-530.0" type="curve" smooth="yes"/>
      <point x="832.28" y="-530.0"/>
      <point x="949.224" y="-426.16"/>
      <point x="949.224" y="-302.52" type="curve" smooth="yes"/>
      <point x="949.224" y="-217.944"/>
      <point x="894.04" y="-150.64"/>
      <point x="698.832" y="-112.432" type="curve"/>
      <point x="696.744" y="-221.0" type="line"/>
      <point x="886.96" y="49.576" type="line"/>
      <point x="800.632" y="49.576" type="line"/>
      <point x="602.72" y="-222.872" type="line"/>
      <point x="602.72" y="-237.904" type="line"/>
      <point x="787.168" y="-267.384"/>
      <point x="834.176" y="-305.08"/>
      <point x="834.176" y="-365.936" type="curve" smooth="yes"/>
      <point x="834.176" y="-419.576"/>
      <point x="793.568" y="-452.64"/>
      <point x="737.08" y="-452.64" type="curve" smooth="yes"/>
      <point x="668.232" y="-452.64"/>
      <point x="652.296" y="-384.552"/>
      <point x="594.72" y="-384.552" type="curve" smooth="yes"/>
      <point x="559.48" y="-384.552"/>
      <point x="537.904" y="-408.64"/>
      <point x="537.904" y="-441.336" type="curve" smooth="yes"/>
      <point x="537.904" y="-487.304"/>
      <point x="582.84" y="-530.0"/>
    </contour>
  </outline>
</glyph>
<glyph name="multiply" format="2">
	<unicode hex="00D7"/>
	<advance width="1000"/>
	<outline>
		<contour>
			<point x="170.192" y="183" type="line"/>
			<point x="247" y="106.192" type="line"/>
			<point x="829.808" y="689" type="line"/>
			<point x="753" y="765.808" type="line"/>
		</contour>
		<contour>
			<point x="170.192" y="689" type="line"/>
			<point x="753" y="106.192" type="line"/>
			<point x="829.808" y="183" type="line"/>
			<point x="247" y="765.808" type="line"/>
		</contour>
	</outline>
</glyph>
<glyph name="Oslash" format="2">
  <advance width="1572"/>
  <unicode hex="00D8"/>
  <anchor x="785.752" y="1340.0" name="UCtop"/>
  <anchor x="785.752" y="0.0" name="bottom"/>
  <outline>
    <contour>
      <point x="383.23199999999997" y="300.376" type="line"/>
      <point x="315.456" y="242.232" type="line"/>
      <point x="90.288" y="0.0" type="line"/>
      <point x="247.728" y="0.0" type="line"/>
      <point x="394.176" y="157.632" type="line"/>
      <point x="449.04" y="210.168" type="line"/>
      <point x="1192.76" y="1038.776" type="line"/>
      <point x="1261.384" y="1097.768" type="line"/>
      <point x="1486.552" y="1340.0" type="line"/>
      <point x="1329.112" y="1340.0" type="line"/>
      <point x="1182.664" y="1182.368" type="line"/>
      <point x="1126.952" y="1128.984" type="line"/>
    </contour>
    <contour>
      <point x="794.08" y="1364.24" type="curve" smooth="yes"/>
      <point x="384.456" y="1364.24"/>
      <point x="93.584" y="1078.936"/>
      <point x="93.584" y="668.0" type="curve" smooth="yes"/>
      <point x="93.584" y="255.096"/>
      <point x="372.312" y="-24.240000000000002"/>
      <point x="777.576" y="-24.240000000000002" type="curve" smooth="yes"/>
      <point x="1187.2" y="-24.240000000000002"/>
      <point x="1478.072" y="261.064"/>
      <point x="1478.072" y="672.0" type="curve" smooth="yes"/>
      <point x="1478.072" y="1084.904"/>
      <point x="1199.344" y="1364.24"/>
    </contour>
    <contour>
      <point x="795.176" y="94.048" type="curve" smooth="yes"/>
      <point x="543.728" y="94.048"/>
      <point x="365.104" y="310.752"/>
      <point x="365.104" y="718.232" type="curve" smooth="yes"/>
      <point x="365.104" y="1060.72"/>
      <point x="530.328" y="1245.952"/>
      <point x="776.48" y="1245.952" type="curve" smooth="yes"/>
      <point x="1027.928" y="1245.952"/>
      <point x="1206.552" y="1029.248"/>
      <point x="1206.552" y="621.768" type="curve" smooth="yes"/>
      <point x="1206.552" y="279.28"/>
      <point x="1041.328" y="94.048"/>
    </contour>
  </outline>
</glyph>
<glyph name="Thorn" format="2">
	<unicode hex="00DE"/>
	<advance width="1286.016"/>
	<outline>
		<contour>
			<point x="961.424" y="691.152" type="curve" smooth="yes"/>
			<point x="961.424" y="511.36"/>
			<point x="843.992" y="416.328"/>
			<point x="680.744" y="416.328" type="curve" smooth="yes"/>
			<point x="298.52" y="416.328" type="line"/>
			<point x="306.008" y="303.672" type="line"/>
			<point x="708.32" y="303.672" type="line" smooth="yes"/>
			<point x="1067.224" y="303.672"/>
			<point x="1220.888" y="483.368"/>
			<point x="1220.888" y="699.76" type="curve" smooth="yes"/>
			<point x="1220.888" y="910.848"/>
			<point x="1075.072" y="1078.48"/>
			<point x="708.32" y="1078.48" type="curve" smooth="yes"/>
			<point x="306.008" y="1078.48" type="line"/>
			<point x="298.52" y="965.824" type="line"/>
			<point x="606.208" y="965.824" type="line" smooth="yes"/>
			<point x="866.024" y="965.824"/>
			<point x="961.424" y="866.368"/>
		</contour>
		<contour>
			<point x="630.536" y="41.968" type="line"/>
			<point x="481.016" y="98.208" type="line"/>
			<point x="481.016" y="1241.792" type="line"/>
			<point x="630.536" y="1298.032" type="line"/>
			<point x="630.536" y="1340" type="line"/>
			<point x="73.976" y="1340" type="line"/>
			<point x="73.976" y="1298.032" type="line"/>
			<point x="223.496" y="1241.792" type="line"/>
			<point x="223.496" y="98.208" type="line"/>
			<point x="73.976" y="41.968" type="line"/>
			<point x="73.976" y="0" type="line"/>
			<point x="630.536" y="0" type="line"/>
		</contour>
	</outline>
</glyph>
<glyph name="germandbls" format="2">
  <advance width="1273"/>
  <unicode hex="00DF"/>
  <outline>
    <contour>
      <point x="194.584" y="861.44" type="curve" smooth="yes"/>
      <point x="194.584" y="90.088" type="line"/>
      <point x="62.088" y="39.12" type="line"/>
      <point x="62.088" y="0.0" type="line"/>
      <point x="524.24" y="0.0" type="line"/>
      <point x="524.24" y="39.12" type="line"/>
      <point x="426.23199999999997" y="90.936" type="line"/>
      <point x="426.23199999999997" y="1011.88" type="line" smooth="yes"/>
      <point x="426.23199999999997" y="1226.048"/>
      <point x="521.512" y="1332.064"/>
      <point x="690.128" y="1332.064" type="curve" smooth="yes"/>
      <point x="833.04" y="1332.064"/>
      <point x="910.824" y="1246.4"/>
      <point x="910.824" y="1146.584" type="curve" smooth="yes"/>
      <point x="910.824" y="933.464"/>
      <point x="627.064" y="900.488"/>
      <point x="627.064" y="674.712" type="curve" smooth="yes"/>
      <point x="627.064" y="372.752"/>
      <point x="1032.616" y="454.68"/>
      <point x="1032.616" y="214.824" type="curve" smooth="yes"/>
      <point x="1032.616" y="105.848"/>
      <point x="956.64" y="54.751999999999995"/>
      <point x="830.728" y="54.751999999999995" type="curve" smooth="yes"/>
      <point x="776.76" y="54.751999999999995"/>
      <point x="727.16" y="58.568"/>
      <point x="651.368" y="92.36" type="curve"/>
      <point x="791.6" y="11.815999999999999" type="line"/>
      <point x="649.544" y="266.752" type="line"/>
      <point x="593.216" y="266.752" type="line"/>
      <point x="627.616" y="14.728" type="line"/>
      <point x="696.704" y="-11.968"/>
      <point x="774.848" y="-24.240000000000002"/>
      <point x="860.696" y="-24.240000000000002" type="curve" smooth="yes"/>
      <point x="1058.656" y="-24.240000000000002"/>
      <point x="1214.856" y="98.904"/>
      <point x="1214.856" y="293.016" type="curve" smooth="yes"/>
      <point x="1214.856" y="648.608"/>
      <point x="807.5840000000001" y="591.92"/>
      <point x="807.5840000000001" y="770.44" type="curve" smooth="yes"/>
      <point x="807.5840000000001" y="938.872"/>
      <point x="1100.224" y="963.704"/>
      <point x="1100.224" y="1179.336" type="curve" smooth="yes"/>
      <point x="1100.224" y="1313.576"/>
      <point x="973.768" y="1423.24"/>
      <point x="730.888" y="1423.24" type="curve" smooth="yes"/>
      <point x="442.184" y="1423.24"/>
      <point x="194.584" y="1245.16"/>
    </contour>
    <contour>
      <point x="209.432" y="869.808" type="line"/>
      <point x="23.312" y="795.664" type="line"/>
      <point x="23.312" y="756.608" type="line"/>
      <point x="194.584" y="713.104" type="line"/>
    </contour>
  </outline>
</glyph>
<glyph name="ae" format="2">
  <advance width="1391"/>
  <unicode hex="00E6"/>
  <anchor x="702.504" y="860.48" name="top"/>
  <anchor x="680.616" y="0.0" name="bottom"/>
  <outline>
    <contour>
      <point x="411.728" y="774.608" type="curve" smooth="yes"/>
      <point x="512.008" y="774.608"/>
      <point x="554.616" y="720.664"/>
      <point x="554.616" y="637.384" type="curve" smooth="yes"/>
      <point x="554.616" y="292.088" type="line" smooth="yes"/>
      <point x="554.616" y="179.232"/>
      <point x="490.512" y="122.92"/>
      <point x="403.92" y="122.92" type="curve" smooth="yes"/>
      <point x="338.368" y="122.92"/>
      <point x="290.36" y="163.864"/>
      <point x="290.36" y="251.048" type="curve" smooth="yes"/>
      <point x="290.36" y="329.84"/>
      <point x="325.424" y="394.936"/>
      <point x="612.504" y="460.704" type="curve"/>
      <point x="603.288" y="539.12" type="line"/>
      <point x="149.216" y="429.752"/>
      <point x="64.888" y="338.632"/>
      <point x="64.888" y="200.816" type="curve" smooth="yes"/>
      <point x="64.888" y="52.64"/>
      <point x="165.888" y="-24.240000000000002"/>
      <point x="307.704" y="-24.240000000000002" type="curve" smooth="yes"/>
      <point x="454.76800000000003" y="-24.240000000000002"/>
      <point x="572.304" y="66.76"/>
      <point x="592.944" y="279.808" type="curve"/>
      <point x="557.192" y="281.536" type="line"/>
      <point x="608.104" y="91.032"/>
      <point x="747.128" y="-24.240000000000002"/>
      <point x="954.832" y="-24.240000000000002" type="curve" smooth="yes"/>
      <point x="1107.128" y="-24.240000000000002"/>
      <point x="1225.848" y="50.928"/>
      <point x="1335.088" y="181.928" type="curve"/>
      <point x="1303.728" y="223.344" type="line"/>
      <point x="1230.912" y="167.888"/>
      <point x="1161.728" y="143.248"/>
      <point x="1081.64" y="143.248" type="curve" smooth="yes"/>
      <point x="899.272" y="143.248"/>
      <point x="777.784" y="269.528"/>
      <point x="777.784" y="484.744" type="curve" smooth="yes"/>
      <point x="777.784" y="707.072"/>
      <point x="848.336" y="794.696"/>
      <point x="946.32" y="794.696" type="curve" smooth="yes"/>
      <point x="1045.936" y="794.696"/>
      <point x="1093.152" y="703.752"/>
      <point x="1102.912" y="545.912" type="curve"/>
      <point x="1212.464" y="579.84" type="line"/>
      <point x="724.648" y="553.296" type="line"/>
      <point x="723.496" y="474.848" type="line"/>
      <point x="1330.512" y="474.848" type="line"/>
      <point x="1310.392" y="733.24"/>
      <point x="1189.76" y="884.72"/>
      <point x="966.832" y="884.72" type="curve" smooth="yes"/>
      <point x="827.808" y="884.72"/>
      <point x="713.744" y="819.656"/>
      <point x="657.776" y="720.864" type="curve"/>
      <point x="758.904" y="720.864" type="line"/>
      <point x="735.24" y="820.96"/>
      <point x="667.368" y="879.536"/>
      <point x="509.192" y="879.536" type="curve" smooth="yes"/>
      <point x="296.632" y="879.536"/>
      <point x="78.736" y="759.992"/>
      <point x="78.736" y="658.064" type="curve" smooth="yes"/>
      <point x="78.736" y="621.28"/>
      <point x="108.824" y="599.432"/>
      <point x="161.424" y="599.432" type="curve" smooth="yes"/>
      <point x="200.632" y="599.432"/>
      <point x="239.296" y="614.096"/>
      <point x="261.296" y="637.944" type="curve" smooth="yes"/>
      <point x="283.72" y="661.368"/>
      <point x="295.568" y="712.616"/>
      <point x="307.656" y="806.776" type="curve"/>
      <point x="267.68" y="746.36" type="line"/>
      <point x="311.536" y="766.88"/>
      <point x="368.392" y="774.608"/>
    </contour>
  </outline>
</glyph>
<glyph name="ccedilla" format="2">
  <advance width="875"/>
  <unicode hex="00E7"/>
  <outline>
    <contour>
      <point x="577.8" y="884.72" type="curve" smooth="yes"/>
      <point x="249.632" y="884.72"/>
      <point x="63.128" y="669.416"/>
      <point x="63.128" y="405.816" type="curve" smooth="yes"/>
      <point x="63.128" y="161.848"/>
      <point x="225.912" y="-24.240000000000002"/>
      <point x="472.536" y="-24.240000000000002" type="curve" smooth="yes"/>
      <point x="604.656" y="-24.240000000000002"/>
      <point x="721.04" y="39.696"/>
      <point x="836.544" y="182.776" type="curve"/>
      <point x="804.488" y="223.344" type="line"/>
      <point x="734.248" y="167.888"/>
      <point x="667.216" y="143.248"/>
      <point x="588.28" y="143.248" type="curve" smooth="yes"/>
      <point x="402.0" y="143.248"/>
      <point x="283.632" y="273.44"/>
      <point x="283.632" y="514.256" type="curve" smooth="yes"/>
      <point x="283.632" y="703.416"/>
      <point x="375.312" y="785.576"/>
      <point x="469.624" y="785.576" type="curve" smooth="yes"/>
      <point x="558.72" y="785.576"/>
      <point x="605.56" y="642.92"/>
      <point x="714.584" y="642.92" type="curve" smooth="yes"/>
      <point x="778.336" y="642.92"/>
      <point x="828.208" y="686.128"/>
      <point x="828.208" y="752.456" type="curve" smooth="yes"/>
      <point x="828.208" y="817.6"/>
      <point x="760.456" y="884.72"/>
    </contour>
    <contour>
      <point x="372.264" y="-530.0" type="curve" smooth="yes"/>
      <point x="522.584" y="-530.0"/>
      <point x="639.528" y="-426.16"/>
      <point x="639.528" y="-302.52" type="curve" smooth="yes"/>
      <point x="639.528" y="-217.944"/>
      <point x="584.344" y="-150.64"/>
      <point x="389.136" y="-112.432" type="curve"/>
      <point x="387.048" y="-221.0" type="line"/>
      <point x="577.264" y="49.576" type="line"/>
      <point x="490.936" y="49.576" type="line"/>
      <point x="293.024" y="-222.872" type="line"/>
      <point x="293.024" y="-237.904" type="line"/>
      <point x="477.472" y="-267.384"/>
      <point x="524.48" y="-305.08"/>
      <point x="524.48" y="-365.936" type="curve" smooth="yes"/>
      <point x="524.48" y="-419.576"/>
      <point x="483.872" y="-452.64"/>
      <point x="427.384" y="-452.64" type="curve" smooth="yes"/>
      <point x="358.536" y="-452.64"/>
      <point x="342.6" y="-384.552"/>
      <point x="285.024" y="-384.552" type="curve" smooth="yes"/>
      <point x="249.784" y="-384.552"/>
      <point x="228.208" y="-408.64"/>
      <point x="228.208" y="-441.336" type="curve" smooth="yes"/>
      <point x="228.208" y="-487.304"/>
      <point x="273.144" y="-530.0"/>
    </contour>
  </outline>
</glyph>
<glyph name="eth" format="2">
  <advance width="1058.56"/>
  <unicode hex="00F0"/>
  <outline>
    <contour>
      <point x="513.448" y="-24.240000000000002" type="curve" smooth="yes"/>
      <point x="789.616" y="-24.240000000000002"/>
      <point x="974.28" y="152.008"/>
      <point x="974.28" y="524.0" type="curve" smooth="yes"/>
      <point x="974.28" y="991.136"/>
      <point x="807.736" y="1315.456"/>
      <point x="166.4" y="1422.088" type="curve"/>
      <point x="143.192" y="1344.096" type="line"/>
      <point x="561.808" y="1241.64"/>
      <point x="721.808" y="1080.096"/>
      <point x="743.896" y="675.896" type="curve"/>
      <point x="791.608" y="699.6" type="line"/>
      <point x="753.264" y="814.752"/>
      <point x="642.624" y="884.72"/>
      <point x="511.808" y="884.72" type="curve" smooth="yes"/>
      <point x="255.608" y="884.72"/>
      <point x="63.976" y="689.328"/>
      <point x="63.976" y="418.12" type="curve" smooth="yes"/>
      <point x="63.976" y="156.032"/>
      <point x="238.4" y="-24.240000000000002"/>
    </contour>
    <contour>
      <point x="524.536" y="68.44800000000001" type="curve" smooth="yes"/>
      <point x="391.096" y="68.44800000000001"/>
      <point x="312.08" y="206.872"/>
      <point x="312.08" y="467.384" type="curve" smooth="yes"/>
      <point x="312.08" y="701.992"/>
      <point x="396.368" y="792.032"/>
      <point x="513.72" y="792.032" type="curve" smooth="yes"/>
      <point x="647.16" y="792.032"/>
      <point x="726.176" y="653.608"/>
      <point x="726.176" y="393.096" type="curve" smooth="yes"/>
      <point x="726.176" y="158.488"/>
      <point x="641.888" y="68.44800000000001"/>
    </contour>
    <contour>
      <point x="356.832" y="960.432" type="line"/>
      <point x="888.576" y="1348.184" type="line"/>
      <point x="832.792" y="1425.36" type="line"/>
      <point x="300.624" y="1037.608" type="line"/>
    </contour>
  </outline>
</glyph>
<glyph name="divide" format="2">
	<unicode hex="00F7"/>
	<advance width="1000"/>
	<outline>
		<contour>
			<point x="500" y="246.72" type="curve" smooth="yes"/>
			<point x="428.368" y="246.72"/>
			<point x="377.28" y="191.784"/>
			<point x="377.28" y="125" type="curve" smooth="yes"/>
			<point x="377.28" y="58.216"/>
			<point x="428.368" y="3.28"/>
			<point x="500" y="3.28" type="curve" smooth="yes"/>
			<point x="571.632" y="3.28"/>
			<point x="622.72" y="58.216"/>
			<point x="622.72" y="125" type="curve" smooth="yes"/>
			<point x="622.72" y="191.784"/>
			<point x="571.632" y="246.72"/>
		</contour>
		<contour>
			<point x="500" y="868.72" type="curve" smooth="yes"/>
			<point x="428.368" y="868.72"/>
			<point x="377.28" y="813.784"/>
			<point x="377.28" y="747" type="curve" smooth="yes"/>
			<point x="377.28" y="680.216"/>
			<point x="428.368" y="625.28"/>
			<point x="500" y="625.28" type="curve" smooth="yes"/>
			<point x="571.632" y="625.28"/>
			<point x="622.72" y="680.216"/>
			<point x="622.72" y="747" type="curve" smooth="yes"/>
			<point x="622.72" y="813.784"/>
			<point x="571.632" y="868.72"/>
		</contour>
		<contour>
			<point x="130.28" y="490.72" type="line"/>
			<point x="130.28" y="381.28" type="line"/>
			<point x="869.72" y="381.28" type="line"/>
			<point x="869.72" y="490.72" type="line"/>
		</contour>
	</outline>
</glyph>
<glyph name="oslash" format="2">
  <advance width="1071"/>
  <unicode hex="00F8"/>
  <anchor x="536.176" y="860.48" name="top"/>
  <anchor x="536.176" y="0.0" name="bottom"/>
  <outline>
    <contour>
      <point x="54.976" y="0.0" type="line"/>
      <point x="192.784" y="0.0" type="line"/>
      <point x="294.872" y="106.968" type="line"/>
      <point x="342.44" y="142.816" type="line"/>
      <point x="801.816" y="663.848" type="line"/>
      <point x="849.96" y="686.608" type="line"/>
      <point x="1016.8" y="860.48" type="line"/>
      <point x="878.992" y="860.48" type="line"/>
      <point x="778.632" y="755.24" type="line"/>
      <point x="731.064" y="719.392" type="line"/>
      <point x="273.416" y="200.088" type="line"/>
      <point x="225.272" y="177.328" type="line"/>
    </contour>
    <contour>
      <point x="541.296" y="68.44800000000001" type="curve" smooth="yes"/>
      <point x="407.856" y="68.44800000000001"/>
      <point x="328.84000000000003" y="206.872"/>
      <point x="328.84000000000003" y="467.384" type="curve" smooth="yes"/>
      <point x="328.84000000000003" y="701.992"/>
      <point x="413.128" y="792.032"/>
      <point x="530.48" y="792.032" type="curve" smooth="yes"/>
      <point x="663.92" y="792.032"/>
      <point x="742.936" y="653.608"/>
      <point x="742.936" y="393.096" type="curve" smooth="yes"/>
      <point x="742.936" y="158.488"/>
      <point x="658.648" y="68.44800000000001"/>
    </contour>
    <contour>
      <point x="530.208" y="-24.240000000000002" type="curve" smooth="yes"/>
      <point x="799.408" y="-24.240000000000002"/>
      <point x="991.04" y="171.152"/>
      <point x="991.04" y="442.36" type="curve" smooth="yes"/>
      <point x="991.04" y="704.448"/>
      <point x="816.616" y="884.72"/>
      <point x="541.568" y="884.72" type="curve" smooth="yes"/>
      <point x="272.368" y="884.72"/>
      <point x="80.736" y="689.328"/>
      <point x="80.736" y="418.12" type="curve" smooth="yes"/>
      <point x="80.736" y="156.032"/>
      <point x="255.16" y="-24.240000000000002"/>
    </contour>
  </outline>
</glyph>
<glyph name="thorn" format="2">
	<unicode hex="00FE"/>
	<advance width="1082.28"/>
	<outline>
		<contour>
			<point x="127.432" y="1181.96" type="curve"/>
			<point x="127.432" y="-415.672" type="line"/>
			<point x="-5.064" y="-466.64" type="line"/>
			<point x="-5.064" y="-505.76" type="line"/>
			<point x="511.696" y="-505.76" type="line"/>
			<point x="511.696" y="-466.64" type="line"/>
			<point x="359.08" y="-412.28" type="line"/>
			<point x="359.08" y="52.76" type="line"/>
			<point x="226.744" y="52.76" type="line"/>
			<point x="345.104" y="-2.24"/>
			<point x="430.68" y="-24.24"/>
			<point x="531.768" y="-24.24" type="curve" smooth="yes"/>
			<point x="794.096" y="-24.24"/>
			<point x="1017.304" y="163.608"/>
			<point x="1017.304" y="478.48" type="curve" smooth="yes"/>
			<point x="1017.304" y="712.512"/>
			<point x="885.424" y="884.72"/>
			<point x="642.056" y="884.72" type="curve" smooth="yes"/>
			<point x="544.152" y="884.72"/>
			<point x="425.272" y="834.304"/>
			<point x="285.6" y="749.088" type="curve"/>
			<point x="302.136" y="673" type="line"/>
			<point x="366.72" y="721.28"/>
			<point x="449.336" y="742.8"/>
			<point x="533.96" y="742.8" type="curve" smooth="yes"/>
			<point x="675.368" y="742.8"/>
			<point x="769.44" y="632.672"/>
			<point x="769.44" y="419.456" type="curve" smooth="yes"/>
			<point x="769.44" y="186.464"/>
			<point x="686.552" y="71.056"/>
			<point x="548.928" y="71.056" type="curve" smooth="yes"/>
			<point x="430.184" y="71.056"/>
			<point x="359.08" y="150.936"/>
			<point x="359.08" y="258.968" type="curve" smooth="yes"/>
			<point x="359.08" y="1228.048" type="line"/>
			<point x="374.168" y="1423.24" type="line"/>
			<point x="346.112" y="1423.24" type="line"/>
			<point x="-24.872" y="1320.16" type="line"/>
			<point x="-24.872" y="1284.472" type="line"/>
			<point x="53.128" y="1249.776"/>
			<point x="97.616" y="1219.32"/>
		</contour>
	</outline>
</glyph>
<glyph name="Aogonek" format="2">
	<unicode hex="0104"/>
	<advance width="1457.68"/>
	<outline>
		<contour>
			<point x="344.64" y="464.112" type="line"/>
			<point x="1017.088" y="464.112" type="line"/>
			<point x="1017.088" y="573.344" type="line"/>
			<point x="344.64" y="573.344" type="line"/>
		</contour>
		<contour>
			<point x="1331.888" y="100.632" type="line"/>
			<point x="793.616" y="1351.52" type="line"/>
			<point x="649.096" y="1351.52" type="line"/>
			<point x="132.64" y="98.632" type="line"/>
			<point x="-20.36" y="41.968" type="line"/>
			<point x="-20.36" y="0" type="line"/>
			<point x="417.328" y="0" type="line"/>
			<point x="417.328" y="41.968" type="line"/>
			<point x="259.416" y="98.632" type="line"/>
			<point x="670.792" y="1136.064" type="line"/>
			<point x="620.328" y="1136.064" type="line"/>
			<point x="1056.888" y="98.632" type="line"/>
			<point x="888.976" y="41.968" type="line"/>
			<point x="888.976" y="0" type="line"/>
			<point x="1479.888" y="0" type="line"/>
			<point x="1479.888" y="41.968" type="line"/>
		</contour>
		<contour>
			<point x="1176.328" y="-91.024" type="curve" smooth="yes"/>
			<point x="1248.368" y="46" type="line"/>
			<point x="1182.224" y="46" type="line"/>
			<point x="1084.184" y="-93.048" type="line" smooth="yes"/>
			<point x="985.44" y="-227.216"/>
			<point x="965.048" y="-291.488"/>
			<point x="965.048" y="-361" type="curve" smooth="yes"/>
			<point x="965.048" y="-461.488"/>
			<point x="1032.112" y="-530"/>
			<point x="1143.528" y="-530" type="curve" smooth="yes"/>
			<point x="1236.344" y="-530"/>
			<point x="1309.344" y="-488.24"/>
			<point x="1392.552" y="-377.632" type="curve"/>
			<point x="1358.04" y="-338.184" type="line"/>
			<point x="1298.944" y="-394.344"/>
			<point x="1258.064" y="-412.192"/>
			<point x="1215.064" y="-412.192" type="curve" smooth="yes"/>
			<point x="1147.824" y="-412.192"/>
			<point x="1103.248" y="-371.648"/>
			<point x="1103.248" y="-301.528" type="curve" smooth="yes"/>
			<point x="1103.248" y="-251.104"/>
			<point x="1117.944" y="-195.648"/>
		</contour>
	</outline>
</glyph>
<glyph name="aogonek" format="2">
  <advance width="923"/>
  <unicode hex="0105"/>
  <outline>
    <contour>
      <point x="930.632" y="71.544" type="line"/>
      <point x="930.632" y="128.992" type="line"/>
      <point x="898.48" y="108.992"/>
      <point x="865.72" y="98.96000000000001"/>
      <point x="838.112" y="98.96000000000001" type="curve" smooth="yes"/>
      <point x="792.896" y="98.96000000000001"/>
      <point x="770.136" y="125.29599999999999"/>
      <point x="770.136" y="180.088" type="curve" smooth="yes"/>
      <point x="770.136" y="619.704" type="line" smooth="yes"/>
      <point x="770.136" y="777.184"/>
      <point x="702.68" y="879.536"/>
      <point x="493.064" y="879.536" type="curve" smooth="yes"/>
      <point x="289.144" y="879.536"/>
      <point x="79.888" y="759.992"/>
      <point x="79.888" y="658.064" type="curve" smooth="yes"/>
      <point x="79.888" y="621.28"/>
      <point x="109.976" y="599.432"/>
      <point x="162.576" y="599.432" type="curve" smooth="yes"/>
      <point x="201.784" y="599.432"/>
      <point x="240.448" y="614.096"/>
      <point x="262.448" y="637.944" type="curve" smooth="yes"/>
      <point x="284.872" y="661.368"/>
      <point x="296.72" y="712.616"/>
      <point x="308.808" y="806.776" type="curve"/>
      <point x="268.832" y="746.36" type="line"/>
      <point x="308.08" y="764.576"/>
      <point x="356.872" y="774.608"/>
      <point x="395.6" y="774.608" type="curve" smooth="yes"/>
      <point x="495.88" y="774.608"/>
      <point x="538.488" y="720.664"/>
      <point x="538.488" y="637.384" type="curve" smooth="yes"/>
      <point x="538.488" y="264.24" type="line" smooth="yes"/>
      <point x="538.488" y="188.07999999999998"/>
      <point x="478.72" y="122.92"/>
      <point x="405.072" y="122.92" type="curve" smooth="yes"/>
      <point x="339.52" y="122.92"/>
      <point x="291.512" y="163.864"/>
      <point x="291.512" y="251.048" type="curve" smooth="yes"/>
      <point x="291.512" y="339.632"/>
      <point x="343.856" y="401.272"/>
      <point x="596.376" y="460.704" type="curve"/>
      <point x="587.16" y="542.576" type="line"/>
      <point x="164.192" y="439.544"/>
      <point x="66.03999999999999" y="346.696"/>
      <point x="66.03999999999999" y="200.816" type="curve" smooth="yes"/>
      <point x="66.03999999999999" y="51.488"/>
      <point x="164.16" y="-24.240000000000002"/>
      <point x="303.672" y="-24.240000000000002" type="curve" smooth="yes"/>
      <point x="421.456" y="-24.240000000000002"/>
      <point x="519.488" y="49.672"/>
      <point x="554.12" y="179.48" type="curve"/>
      <point x="545.576" y="173.72" type="line"/>
      <point x="547.696" y="55.088"/>
      <point x="602.424" y="-23.088"/>
      <point x="725.288" y="-23.088" type="curve" smooth="yes"/>
      <point x="750.832" y="-23.088"/>
      <point x="778.8" y="-17.240000000000002"/>
      <point x="807.192" y="-6.24" type="curve"/>
      <point x="797.04" y="10.184000000000001" type="line"/>
      <point x="698.6" y="-86.98400000000001" type="line" smooth="yes"/>
      <point x="570.552" y="-212.064"/>
      <point x="538.4" y="-280.672"/>
      <point x="538.4" y="-361.0" type="curve" smooth="yes"/>
      <point x="538.4" y="-461.488"/>
      <point x="605.4639999999999" y="-530.0"/>
      <point x="714.0" y="-530.0" type="curve" smooth="yes"/>
      <point x="806.816" y="-530.0"/>
      <point x="879.816" y="-488.24"/>
      <point x="963.024" y="-377.632" type="curve"/>
      <point x="928.512" y="-338.184" type="line"/>
      <point x="869.4159999999999" y="-394.344"/>
      <point x="828.5360000000001" y="-412.192"/>
      <point x="785.5360000000001" y="-412.192" type="curve" smooth="yes"/>
      <point x="721.176" y="-412.192"/>
      <point x="676.6" y="-374.616"/>
      <point x="676.6" y="-307.888" type="curve" smooth="yes"/>
      <point x="676.6" y="-254.072"/>
      <point x="703.688" y="-189.40800000000002"/>
      <point x="797.648" y="-82.84" type="curve" smooth="yes"/>
    </contour>
  </outline>
</glyph>
<glyph name="Dcroat" format="2">
  <advance width="1536.856"/>
  <unicode hex="0110"/>
  <outline>
    <contour>
      <point x="76.824" y="625.52" type="line"/>
      <point x="773.672" y="625.52" type="line"/>
      <point x="773.672" y="734.784" type="line"/>
      <point x="76.824" y="734.784" type="line"/>
    </contour>
    <contour>
      <point x="1182.632" y="687.576" type="curve" smooth="yes"/>
      <point x="1182.632" y="280.72"/>
      <point x="966.792" y="112.656"/>
      <point x="644.456" y="112.656" type="curve" smooth="yes"/>
      <point x="352.912" y="112.656" type="line"/>
      <point x="336.376" y="0.0" type="line"/>
      <point x="675.576" y="0.0" type="line" smooth="yes"/>
      <point x="1119.576" y="0.0"/>
      <point x="1454.576" y="260.0"/>
      <point x="1454.576" y="710.0" type="curve" smooth="yes"/>
      <point x="1454.576" y="1134.0"/>
      <point x="1197.576" y="1340.0"/>
      <point x="673.576" y="1340.0" type="curve" smooth="yes"/>
      <point x="336.376" y="1340.0" type="line"/>
      <point x="352.912" y="1227.344" type="line"/>
      <point x="625.424" y="1227.344" type="line" smooth="yes"/>
      <point x="970.368" y="1227.344"/>
      <point x="1182.632" y="1057.52"/>
    </contour>
    <contour>
      <point x="76.824" y="0.0" type="line"/>
      <point x="483.86400000000003" y="0.0" type="line"/>
      <point x="483.86400000000003" y="1340.0" type="line"/>
      <point x="76.824" y="1340.0" type="line"/>
      <point x="76.824" y="1298.032" type="line"/>
      <point x="226.344" y="1241.792" type="line"/>
      <point x="226.344" y="98.208" type="line"/>
      <point x="76.824" y="41.968" type="line"/>
    </contour>
  </outline>
</glyph>
<glyph name="dcroat" format="2">
  <advance width="1104.4"/>
  <unicode hex="0111"/>
  <outline>
    <contour>
      <point x="723.2" y="601.512" type="curve" smooth="yes"/>
      <point x="723.2" y="136.0" type="line"/>
      <point x="746.528" y="-21.936" type="line"/>
      <point x="774.584" y="-21.936" type="line"/>
      <point x="1083.544" y="50.272" type="line"/>
      <point x="1083.544" y="85.784" type="line"/>
      <point x="1034.76" y="99.416"/>
      <point x="983.512" y="127.144"/>
      <point x="954.848" y="158.232" type="curve"/>
      <point x="954.848" y="1226.896" type="line"/>
      <point x="968.936" y="1423.24" type="line"/>
      <point x="941.456" y="1423.24" type="line"/>
      <point x="585.872" y="1324.192" type="line"/>
      <point x="585.872" y="1289.656" type="line"/>
      <point x="651.776" y="1259.568"/>
      <point x="694.5360000000001" y="1234.296"/>
      <point x="723.2" y="1198.088" type="curve"/>
      <point x="723.2" y="774.888" type="line"/>
      <point x="863.168" y="807.72" type="line"/>
      <point x="743.536" y="862.72"/>
      <point x="657.112" y="884.72"/>
      <point x="555.176" y="884.72" type="curve" smooth="yes"/>
      <point x="303.056" y="884.72"/>
      <point x="64.976" y="706.656"/>
      <point x="64.976" y="386.24" type="curve" smooth="yes"/>
      <point x="64.976" y="144.152"/>
      <point x="196.432" y="-24.240000000000002"/>
      <point x="444.464" y="-24.240000000000002" type="curve" smooth="yes"/>
      <point x="532.832" y="-24.240000000000002"/>
      <point x="604.584" y="1.1520000000000001"/>
      <point x="773.112" y="105.70400000000001" type="curve"/>
      <point x="773.112" y="189.0" type="line"/>
      <point x="702.192" y="136.96"/>
      <point x="624.456" y="114.288"/>
      <point x="548.32" y="114.288" type="curve" smooth="yes"/>
      <point x="406.912" y="114.288"/>
      <point x="312.84000000000003" y="225.688"/>
      <point x="312.84000000000003" y="446.112" type="curve" smooth="yes"/>
      <point x="312.84000000000003" y="674.016"/>
      <point x="395.728" y="789.424"/>
      <point x="539.112" y="789.424" type="curve" smooth="yes"/>
      <point x="660.16" y="789.424"/>
      <point x="723.2" y="709.544"/>
    </contour>
    <contour>
      <point x="454.904" y="1020.912" type="line"/>
      <point x="1135.672" y="1020.912" type="line"/>
      <point x="1135.672" y="1129.024" type="line"/>
      <point x="454.904" y="1129.024" type="line"/>
    </contour>
  </outline>
</glyph>
<glyph name="Eogonek" format="2">
  <advance width="1291.272"/>
  <unicode hex="0118"/>
  <outline>
    <contour>
      <point x="931.488" y="965.0" type="line"/>
      <point x="841.8" y="965.0" type="line"/>
      <point x="819.8" y="759.328" type="line"/>
      <point x="342.008" y="759.328" type="line"/>
      <point x="342.008" y="646.672" type="line"/>
      <point x="819.8" y="646.672" type="line"/>
      <point x="841.8" y="441.0" type="line"/>
      <point x="931.488" y="441.0" type="line"/>
      <point x="931.488" y="703.0" type="line"/>
    </contour>
    <contour>
      <point x="1198.904" y="954.792" type="line"/>
      <point x="1123.728" y="1400.448" type="line"/>
      <point x="1098.4" y="1400.448" type="line"/>
      <point x="979.192" y="1340.0" type="line"/>
      <point x="342.008" y="1340.0" type="line"/>
      <point x="342.008" y="1227.344" type="line"/>
      <point x="1019.008" y="1227.344" type="line"/>
      <point x="946.2" y="1264.88" type="line"/>
      <point x="1145.12" y="942.824" type="line"/>
    </contour>
    <contour>
      <point x="974.8" y="73.936" type="line"/>
      <point x="1031.248" y="112.656" type="line"/>
      <point x="342.008" y="112.656" type="line"/>
      <point x="342.008" y="0.0" type="line"/>
      <point x="1001.008" y="0.0" type="line"/>
      <point x="1128.728" y="-68.328" type="line"/>
      <point x="1156.176" y="-68.328" type="line"/>
      <point x="1236.232" y="401.376" type="line"/>
      <point x="1188.872" y="413.648" type="line"/>
    </contour>
    <contour>
      <point x="73.976" y="0.0" type="line"/>
      <point x="481.01599999999996" y="0.0" type="line"/>
      <point x="481.01599999999996" y="1340.0" type="line"/>
      <point x="73.976" y="1340.0" type="line"/>
      <point x="73.976" y="1298.032" type="line"/>
      <point x="223.496" y="1241.792" type="line"/>
      <point x="223.496" y="98.208" type="line"/>
      <point x="73.976" y="41.968" type="line"/>
    </contour>
    <contour>
      <point x="959.264" y="-91.024" type="curve" smooth="yes"/>
      <point x="1031.304" y="46.0" type="line"/>
      <point x="965.16" y="46.0" type="line"/>
      <point x="867.12" y="-93.048" type="line" smooth="yes"/>
      <point x="768.376" y="-227.216"/>
      <point x="747.984" y="-291.488"/>
      <point x="747.984" y="-361.0" type="curve" smooth="yes"/>
      <point x="747.984" y="-461.488"/>
      <point x="815.048" y="-530.0"/>
      <point x="926.4639999999999" y="-530.0" type="curve" smooth="yes"/>
      <point x="1019.28" y="-530.0"/>
      <point x="1092.28" y="-488.24"/>
      <point x="1175.488" y="-377.632" type="curve"/>
      <point x="1140.976" y="-338.184" type="line"/>
      <point x="1081.88" y="-394.344"/>
      <point x="1041.0" y="-412.192"/>
      <point x="998.0" y="-412.192" type="curve" smooth="yes"/>
      <point x="930.76" y="-412.192"/>
      <point x="886.184" y="-371.648"/>
      <point x="886.184" y="-301.528" type="curve" smooth="yes"/>
      <point x="886.184" y="-251.10399999999998"/>
      <point x="900.88" y="-195.648"/>
    </contour>
  </outline>
</glyph>
<glyph name="Hbar" format="2">
  <advance width="1625"/>
  <unicode hex="0126"/>
  <outline>
    <contour>
      <point x="482.44" y="98.208" type="line"/>
      <point x="482.44" y="1241.792" type="line"/>
      <point x="631.96" y="1298.032" type="line"/>
      <point x="631.96" y="1340.0" type="line"/>
      <point x="75.4" y="1340.0" type="line"/>
      <point x="75.4" y="1298.032" type="line"/>
      <point x="224.92000000000002" y="1241.792" type="line"/>
      <point x="224.92000000000002" y="98.208" type="line"/>
      <point x="75.4" y="41.968" type="line"/>
      <point x="75.4" y="0.0" type="line"/>
      <point x="631.96" y="0.0" type="line"/>
      <point x="631.96" y="41.968" type="line"/>
    </contour>
    <contour>
      <point x="1400.104" y="98.208" type="line"/>
      <point x="1400.104" y="1241.792" type="line"/>
      <point x="1549.624" y="1298.032" type="line"/>
      <point x="1549.624" y="1340.0" type="line"/>
      <point x="993.064" y="1340.0" type="line"/>
      <point x="993.064" y="1298.032" type="line"/>
      <point x="1142.584" y="1241.792" type="line"/>
      <point x="1142.584" y="98.208" type="line"/>
      <point x="993.064" y="41.968" type="line"/>
      <point x="993.064" y="0.0" type="line"/>
      <point x="1549.624" y="0.0" type="line"/>
      <point x="1549.624" y="41.968" type="line"/>
    </contour>
    <contour>
      <point x="75.4" y="949.76" type="line"/>
      <point x="1549.624" y="949.76" type="line"/>
      <point x="1549.624" y="1059.024" type="line"/>
      <point x="75.4" y="1059.024" type="line"/>
    </contour>
    <contour>
      <point x="336.224" y="627.52" type="line"/>
      <point x="1289.224" y="627.52" type="line"/>
      <point x="1289.224" y="740.176" type="line"/>
      <point x="336.224" y="740.176" type="line"/>
    </contour>
  </outline>
</glyph>
<glyph name="Iogonek" format="2">
	<unicode hex="012E"/>
	<advance width="704.512"/>
	<outline>
		<contour>
			<point x="630.536" y="41.968" type="line"/>
			<point x="481.016" y="98.208" type="line"/>
			<point x="481.016" y="1241.792" type="line"/>
			<point x="630.536" y="1298.032" type="line"/>
			<point x="630.536" y="1340" type="line"/>
			<point x="73.976" y="1340" type="line"/>
			<point x="73.976" y="1298.032" type="line"/>
			<point x="223.496" y="1241.792" type="line"/>
			<point x="223.496" y="98.208" type="line"/>
			<point x="73.976" y="41.968" type="line"/>
			<point x="73.976" y="0" type="line"/>
			<point x="630.536" y="0" type="line"/>
		</contour>
		<contour>
			<point x="352.664" y="-91.024" type="curve" smooth="yes"/>
			<point x="424.704" y="46" type="line"/>
			<point x="358.56" y="46" type="line"/>
			<point x="260.52" y="-93.048" type="line" smooth="yes"/>
			<point x="161.776" y="-227.216"/>
			<point x="141.384" y="-291.488"/>
			<point x="141.384" y="-361" type="curve" smooth="yes"/>
			<point x="141.384" y="-461.488"/>
			<point x="208.448" y="-530"/>
			<point x="319.864" y="-530" type="curve" smooth="yes"/>
			<point x="412.68" y="-530"/>
			<point x="485.68" y="-488.24"/>
			<point x="568.888" y="-377.632" type="curve"/>
			<point x="534.376" y="-338.184" type="line"/>
			<point x="475.28" y="-394.344"/>
			<point x="434.4" y="-412.192"/>
			<point x="391.4" y="-412.192" type="curve" smooth="yes"/>
			<point x="324.16" y="-412.192"/>
			<point x="279.584" y="-371.648"/>
			<point x="279.584" y="-301.528" type="curve" smooth="yes"/>
			<point x="279.584" y="-251.104"/>
			<point x="294.28" y="-195.648"/>
		</contour>
	</outline>
</glyph>
<glyph name="iogonek" format="2">
	<unicode hex="012F"/>
	<advance width="575.128"/>
	<outline>
		<contour>
			<point x="291.168" y="1126.728" type="curve" smooth="yes"/>
			<point x="379.976" y="1126.728"/>
			<point x="439.576" y="1191.024"/>
			<point x="439.576" y="1275.832" type="curve" smooth="yes"/>
			<point x="439.576" y="1359.368"/>
			<point x="379.976" y="1423.24"/>
			<point x="291.168" y="1423.24" type="curve" smooth="yes"/>
			<point x="203.208" y="1423.24"/>
			<point x="143.184" y="1359.368"/>
			<point x="143.184" y="1275.832" type="curve" smooth="yes"/>
			<point x="143.184" y="1191.024"/>
			<point x="203.208" y="1126.728"/>
		</contour>
		<contour>
			<point x="422.568" y="884.72" type="line"/>
			<point x="387.184" y="884.72" type="line"/>
			<point x="44.552" y="796.272" type="line"/>
			<point x="44.552" y="760.184" type="line"/>
			<point x="100.464" y="738.216"/>
			<point x="154.864" y="705.336"/>
			<point x="181.104" y="672.008" type="curve"/>
			<point x="181.104" y="90.088" type="line"/>
			<point x="48.608" y="39.12" type="line"/>
			<point x="48.608" y="0" type="line"/>
			<point x="546.976" y="0" type="line"/>
			<point x="546.976" y="39.12" type="line"/>
			<point x="412.752" y="90.088" type="line"/>
			<point x="412.752" y="692.616" type="line"/>
		</contour>
		<contour>
			<point x="296.184" y="-91.024" type="curve" smooth="yes"/>
			<point x="368.224" y="46" type="line"/>
			<point x="302.08" y="46" type="line"/>
			<point x="204.04" y="-93.048" type="line" smooth="yes"/>
			<point x="105.296" y="-227.216"/>
			<point x="84.904" y="-291.488"/>
			<point x="84.904" y="-361" type="curve" smooth="yes"/>
			<point x="84.904" y="-461.488"/>
			<point x="151.968" y="-530"/>
			<point x="263.384" y="-530" type="curve" smooth="yes"/>
			<point x="356.2" y="-530"/>
			<point x="429.2" y="-488.24"/>
			<point x="512.408" y="-377.632" type="curve"/>
			<point x="477.896" y="-338.184" type="line"/>
			<point x="418.8" y="-394.344"/>
			<point x="377.92" y="-412.192"/>
			<point x="334.92" y="-412.192" type="curve" smooth="yes"/>
			<point x="267.68" y="-412.192"/>
			<point x="223.104" y="-371.648"/>
			<point x="223.104" y="-301.528" type="curve" smooth="yes"/>
			<point x="223.104" y="-251.104"/>
			<point x="237.8" y="-195.648"/>
		</contour>
	</outline>
</glyph>
<glyph name="dotlessi" format="2">
	<unicode hex="0131"/>
	<advance width="575.128"/>
	<outline>
		<contour>
			<point x="422.568" y="884.72" type="line"/>
			<point x="387.184" y="884.72" type="line"/>
			<point x="44.552" y="796.272" type="line"/>
			<point x="44.552" y="760.184" type="line"/>
			<point x="100.464" y="738.216"/>
			<point x="154.864" y="705.336"/>
			<point x="181.104" y="672.008" type="curve"/>
			<point x="181.104" y="90.088" type="line"/>
			<point x="48.608" y="39.12" type="line"/>
			<point x="48.608" y="0" type="line"/>
			<point x="546.976" y="0" type="line"/>
			<point x="546.976" y="39.12" type="line"/>
			<point x="412.752" y="90.088" type="line"/>
			<point x="412.752" y="692.616" type="line"/>
		</contour>
	</outline>
	<anchor name="top" x="291.416" y="860.48"/>
	<anchor name="bottom" x="296.928" y="0"/>
	<anchor name="right" x="378.064" y="0"/>
</glyph>
<glyph name="kgreenlandic" format="2">
	<unicode hex="0138"/>
	<advance width="1122.264"/>
	<outline>
		<contour>
			<point x="493.28" y="406.76" type="line"/>
			<point x="755.576" y="81.12" type="line"/>
			<point x="659.776" y="39.12" type="line"/>
			<point x="659.776" y="0" type="line"/>
			<point x="1140.624" y="0" type="line"/>
			<point x="1140.624" y="39.12" type="line"/>
			<point x="1027.224" y="89.512" type="line"/>
			<point x="661.464" y="551.752" type="line"/>
			<point x="578.712" y="442.944" type="line"/>
			<point x="930.048" y="773.272" type="line"/>
			<point x="1062.712" y="815.36" type="line"/>
			<point x="1062.712" y="860.48" type="line"/>
			<point x="669.424" y="860.48" type="line"/>
			<point x="669.424" y="815.36" type="line"/>
			<point x="792.64" y="774.544" type="line"/>
			<point x="527.04" y="503.72" type="line"/>
			<point x="340.08" y="503.72" type="line"/>
			<point x="340.08" y="406.76" type="line"/>
		</contour>
		<contour>
			<point x="421.84" y="884.72" type="line"/>
			<point x="386.456" y="884.72" type="line"/>
			<point x="43.824" y="796.272" type="line"/>
			<point x="43.824" y="760.184" type="line"/>
			<point x="99.736" y="738.216"/>
			<point x="154.136" y="705.336"/>
			<point x="180.376" y="672.008" type="curve"/>
			<point x="180.376" y="90.088" type="line"/>
			<point x="47.88" y="39.12" type="line"/>
			<point x="47.88" y="0" type="line"/>
			<point x="537.768" y="0" type="line"/>
			<point x="537.768" y="39.12" type="line"/>
			<point x="412.024" y="87.968" type="line"/>
			<point x="412.024" y="692.616" type="line"/>
		</contour>
	</outline>
</glyph>
<glyph name="Lslash" format="2">
  <advance width="1265"/>
  <unicode hex="0141"/>
  <outline>
    <contour>
      <point x="333.048" y="573.936" type="line"/>
      <point x="419.832" y="593.88" type="line"/>
      <point x="795.88" y="818.024" type="line"/>
      <point x="795.88" y="941.864" type="line"/>
      <point x="419.832" y="717.72" type="line"/>
      <point x="333.048" y="697.776" type="line"/>
      <point x="75.272" y="543.904" type="line"/>
      <point x="75.272" y="420.064" type="line"/>
    </contour>
    <contour>
      <point x="1146.152" y="-72.992" type="line"/>
      <point x="1238.176" y="427.192" type="line"/>
      <point x="1186.848" y="439.736" type="line"/>
      <point x="950.84" y="74.752" type="line"/>
      <point x="1058.496" y="112.656" type="line"/>
      <point x="374.408" y="112.656" type="line"/>
      <point x="374.408" y="0.0" type="line"/>
      <point x="976.896" y="0.0" type="line"/>
      <point x="1112.008" y="-72.992" type="line"/>
    </contour>
    <contour>
      <point x="513.4159999999999" y="1241.792" type="line"/>
      <point x="662.936" y="1298.032" type="line"/>
      <point x="662.936" y="1340.0" type="line"/>
      <point x="106.376" y="1340.0" type="line"/>
      <point x="106.376" y="1298.032" type="line"/>
      <point x="255.89600000000002" y="1241.792" type="line"/>
      <point x="255.89600000000002" y="98.208" type="line"/>
      <point x="106.376" y="41.968" type="line"/>
      <point x="106.376" y="0.0" type="line"/>
      <point x="513.4159999999999" y="0.0" type="line"/>
    </contour>
  </outline>
</glyph>
<glyph name="lslash" format="2">
  <advance width="649"/>
  <unicode hex="0142"/>
  <outline>
    <contour>
      <point x="283.872" y="527.792" type="line"/>
      <point x="387.79200000000003" y="562.456" type="line"/>
      <point x="607.936" y="749.272" type="line"/>
      <point x="607.936" y="885.992" type="line"/>
      <point x="387.79200000000003" y="699.176" type="line"/>
      <point x="283.872" y="664.512" type="line"/>
      <point x="62.552" y="477.216" type="line"/>
      <point x="62.552" y="340.496" type="line"/>
    </contour>
    <contour>
      <point x="442.176" y="90.088" type="line"/>
      <point x="442.176" y="1228.048" type="line"/>
      <point x="457.264" y="1423.24" type="line"/>
      <point x="429.20799999999997" y="1423.24" type="line"/>
      <point x="58.224000000000004" y="1320.16" type="line"/>
      <point x="58.224000000000004" y="1284.472" type="line"/>
      <point x="136.224" y="1249.776"/>
      <point x="180.712" y="1219.32"/>
      <point x="210.528" y="1181.96" type="curve"/>
      <point x="210.528" y="90.088" type="line"/>
      <point x="78.032" y="39.12" type="line"/>
      <point x="78.032" y="0.0" type="line"/>
      <point x="576.4" y="0.0" type="line"/>
      <point x="576.4" y="39.12" type="line"/>
    </contour>
  </outline>
</glyph>
<glyph name="Eng" format="2">
  <advance width="1509.328"/>
  <unicode hex="014A"/>
  <outline>
    <contour>
      <point x="1239.936" y="347.75199999999995" type="line"/>
      <point x="501.64" y="1340.0" type="line"/>
      <point x="63.344" y="1340.0" type="line"/>
      <point x="63.344" y="1301.0" type="line"/>
      <point x="226.344" y="1223.672" type="line"/>
      <point x="226.344" y="98.208" type="line"/>
      <point x="76.824" y="41.968" type="line"/>
      <point x="76.824" y="0.0" type="line"/>
      <point x="500.976" y="0.0" type="line"/>
      <point x="500.976" y="41.968" type="line"/>
      <point x="336.76" y="98.208" type="line"/>
      <point x="336.76" y="1230.0" type="line"/>
      <point x="293.16" y="1194.0" type="line"/>
      <point x="1236.48" y="-85.032" type="line"/>
    </contour>
    <contour>
      <point x="1299.832" y="-80.328" type="curve" smooth="yes"/>
      <point x="1299.832" y="1241.792" type="line"/>
      <point x="1449.352" y="1298.032" type="line"/>
      <point x="1449.352" y="1340.0" type="line"/>
      <point x="1025.2" y="1340.0" type="line"/>
      <point x="1025.2" y="1298.032" type="line"/>
      <point x="1189.416" y="1241.792" type="line"/>
      <point x="1189.416" y="-95.112" type="line" smooth="yes"/>
      <point x="1189.416" y="-328.344"/>
      <point x="1102.688" y="-405.432"/>
      <point x="989.936" y="-405.432" type="curve" smooth="yes"/>
      <point x="916.96" y="-405.432"/>
      <point x="847.272" y="-301.168"/>
      <point x="795.272" y="-301.168" type="curve" smooth="yes"/>
      <point x="739.608" y="-301.168"/>
      <point x="707.4" y="-348.256"/>
      <point x="707.4" y="-398.76800000000003" type="curve" smooth="yes"/>
      <point x="707.4" y="-480.216"/>
      <point x="779.216" y="-530.0"/>
      <point x="922.84" y="-530.0" type="curve" smooth="yes"/>
      <point x="1160.376" y="-530.0"/>
      <point x="1299.832" y="-389.272"/>
    </contour>
  </outline>
</glyph>
<glyph name="eng" format="2">
  <advance width="1107.12"/>
  <unicode hex="014B"/>
  <outline>
    <contour>
      <point x="412.024" y="689.0" type="line"/>
      <point x="367.608" y="884.72" type="line"/>
      <point x="338.976" y="884.72" type="line"/>
      <point x="43.4" y="773.392" type="line"/>
      <point x="43.4" y="740.76" type="line"/>
      <point x="116.168" y="714.576"/>
      <point x="152.44" y="691.76"/>
      <point x="180.376" y="656.616" type="curve"/>
      <point x="180.376" y="90.088" type="line"/>
      <point x="47.88" y="39.12" type="line"/>
      <point x="47.88" y="0.0" type="line"/>
      <point x="535.648" y="0.0" type="line"/>
      <point x="535.648" y="39.12" type="line"/>
      <point x="412.024" y="85.848" type="line"/>
    </contour>
    <contour>
      <point x="761.192" y="-130.256" type="line" smooth="yes"/>
      <point x="761.192" y="-265.488"/>
      <point x="744.432" y="-311.976"/>
      <point x="592.008" y="-475.88" type="curve"/>
      <point x="638.584" y="-530.0" type="line"/>
      <point x="961.664" y="-302.648"/>
      <point x="992.84" y="-257.96"/>
      <point x="992.84" y="-40.70400000000001" type="curve" smooth="yes"/>
      <point x="992.84" y="557.48" type="line" smooth="yes"/>
      <point x="992.84" y="781.48"/>
      <point x="911.6" y="884.72"/>
      <point x="740.848" y="884.72" type="curve" smooth="yes"/>
      <point x="608.176" y="884.72"/>
      <point x="508.688" y="841.32"/>
      <point x="349.456" y="668.12" type="curve"/>
      <point x="389.728" y="629.76" type="line"/>
      <point x="426.696" y="672.312"/>
      <point x="506.76800000000003" y="705.168"/>
      <point x="596.232" y="705.168" type="curve" smooth="yes"/>
      <point x="705.456" y="705.168"/>
      <point x="761.192" y="653.976"/>
      <point x="761.192" y="558.424" type="curve" smooth="yes"/>
    </contour>
  </outline>
</glyph>
<glyph name="oe" format="2">
  <advance width="1587"/>
  <unicode hex="0153"/>
  <anchor x="827.408" y="860.48" name="top"/>
  <anchor x="827.408" y="0.0" name="bottom"/>
  <outline>
    <contour>
      <point x="524.112" y="68.44800000000001" type="curve" smooth="yes"/>
      <point x="390.672" y="68.44800000000001"/>
      <point x="311.656" y="206.872"/>
      <point x="311.656" y="467.384" type="curve" smooth="yes"/>
      <point x="311.656" y="701.992"/>
      <point x="395.944" y="792.032"/>
      <point x="513.296" y="792.032" type="curve" smooth="yes"/>
      <point x="646.736" y="792.032"/>
      <point x="725.752" y="653.608"/>
      <point x="725.752" y="393.096" type="curve" smooth="yes"/>
      <point x="725.752" y="158.488"/>
      <point x="641.464" y="68.44800000000001"/>
    </contour>
    <contour>
      <point x="901.952" y="197.48" type="curve"/>
      <point x="794.752" y="197.48" type="line"/>
      <point x="869.176" y="55.392"/>
      <point x="1001.448" y="-24.240000000000002"/>
      <point x="1158.44" y="-24.240000000000002" type="curve" smooth="yes"/>
      <point x="1307.28" y="-24.240000000000002"/>
      <point x="1424.272" y="54.96"/>
      <point x="1530.632" y="181.928" type="curve"/>
      <point x="1499.272" y="223.344" type="line"/>
      <point x="1426.456" y="167.888"/>
      <point x="1357.272" y="143.248"/>
      <point x="1277.184" y="143.248" type="curve" smooth="yes"/>
      <point x="1084.448" y="143.248"/>
      <point x="956.048" y="269.528"/>
      <point x="956.048" y="484.744" type="curve" smooth="yes"/>
      <point x="956.048" y="707.072"/>
      <point x="1033.512" y="794.696"/>
      <point x="1141.864" y="794.696" type="curve" smooth="yes"/>
      <point x="1241.48" y="794.696"/>
      <point x="1288.696" y="703.752"/>
      <point x="1298.456" y="545.912" type="curve"/>
      <point x="1408.008" y="595.968" type="line"/>
      <point x="902.912" y="569.424" type="line"/>
      <point x="901.76" y="490.976" type="line"/>
      <point x="1526.056" y="490.976" type="line"/>
      <point x="1504.208" y="739.0"/>
      <point x="1380.12" y="884.72"/>
      <point x="1162.376" y="884.72" type="curve" smooth="yes"/>
      <point x="1003.96" y="884.72"/>
      <point x="885.928" y="806.936"/>
      <point x="810.08" y="678.752" type="curve"/>
      <point x="904.56" y="678.752" type="line"/>
      <point x="823.984" y="810.36"/>
      <point x="694.224" y="884.72"/>
      <point x="524.384" y="884.72" type="curve" smooth="yes"/>
      <point x="255.184" y="884.72"/>
      <point x="63.552" y="689.328"/>
      <point x="63.552" y="418.12" type="curve" smooth="yes"/>
      <point x="63.552" y="156.032"/>
      <point x="237.976" y="-24.240000000000002"/>
      <point x="513.024" y="-24.240000000000002" type="curve" smooth="yes"/>
      <point x="676.44" y="-24.240000000000002"/>
      <point x="818.256" y="53.544"/>
    </contour>
  </outline>
</glyph>
<glyph name="scedilla" format="2">
  <advance width="760"/>
  <unicode hex="015F"/>
  <outline>
    <contour>
      <point x="406.864" y="884.72" type="curve" smooth="yes"/>
      <point x="232.024" y="884.72"/>
      <point x="84.888" y="790.936"/>
      <point x="84.888" y="623.16" type="curve" smooth="yes"/>
      <point x="84.888" y="488.52"/>
      <point x="153.288" y="408.44"/>
      <point x="285.48" y="359.016" type="curve" smooth="yes"/>
      <point x="417.672" y="309.168"/>
      <point x="502.328" y="278.168"/>
      <point x="502.328" y="189.216" type="curve" smooth="yes"/>
      <point x="502.328" y="98.968"/>
      <point x="425.72" y="54.751999999999995"/>
      <point x="307.352" y="54.751999999999995" type="curve" smooth="yes"/>
      <point x="255.568" y="54.751999999999995"/>
      <point x="207.728" y="60.872"/>
      <point x="135.272" y="92.36" type="curve"/>
      <point x="268.296" y="11.815999999999999" type="line"/>
      <point x="126.24" y="266.752" type="line"/>
      <point x="69.912" y="266.752" type="line"/>
      <point x="104.312" y="18.968" type="line"/>
      <point x="172.792" y="-10.848"/>
      <point x="248.872" y="-24.240000000000002"/>
      <point x="338.168" y="-24.240000000000002" type="curve" smooth="yes"/>
      <point x="538.912" y="-24.240000000000002"/>
      <point x="691.688" y="70.424"/>
      <point x="691.688" y="257.048" type="curve" smooth="yes"/>
      <point x="691.688" y="407.688"/>
      <point x="598.376" y="483.376"/>
      <point x="460.64" y="532.768" type="curve" smooth="yes"/>
      <point x="322.904" y="582.16"/>
      <point x="260.584" y="616.312"/>
      <point x="260.584" y="695.656" type="curve" smooth="yes"/>
      <point x="260.584" y="764.328"/>
      <point x="317.072" y="804.544"/>
      <point x="415.376" y="804.544" type="curve" smooth="yes"/>
      <point x="465.56" y="804.544"/>
      <point x="511.648" y="787.664"/>
      <point x="561.648" y="753.328" type="curve"/>
      <point x="485.592" y="836.48" type="line"/>
      <point x="598.432" y="595.6" type="line"/>
      <point x="656.272" y="595.6" type="line"/>
      <point x="644.664" y="833.296" type="line"/>
      <point x="562.0" y="869.6"/>
      <point x="500.79200000000003" y="884.72"/>
    </contour>
    <contour>
      <point x="282.112" y="-530.0" type="curve" smooth="yes"/>
      <point x="432.432" y="-530.0"/>
      <point x="549.376" y="-426.16"/>
      <point x="549.376" y="-302.52" type="curve" smooth="yes"/>
      <point x="549.376" y="-217.944"/>
      <point x="494.192" y="-150.64"/>
      <point x="298.984" y="-112.432" type="curve"/>
      <point x="296.896" y="-221.0" type="line"/>
      <point x="487.112" y="49.576" type="line"/>
      <point x="400.784" y="49.576" type="line"/>
      <point x="202.872" y="-222.872" type="line"/>
      <point x="202.872" y="-237.904" type="line"/>
      <point x="387.32" y="-267.384"/>
      <point x="434.328" y="-305.08"/>
      <point x="434.328" y="-365.936" type="curve" smooth="yes"/>
      <point x="434.328" y="-419.576"/>
      <point x="393.72" y="-452.64"/>
      <point x="337.23199999999997" y="-452.64" type="curve" smooth="yes"/>
      <point x="268.384" y="-452.64"/>
      <point x="252.448" y="-384.552"/>
      <point x="194.872" y="-384.552" type="curve" smooth="yes"/>
      <point x="159.632" y="-384.552"/>
      <point x="138.056" y="-408.64"/>
      <point x="138.056" y="-441.336" type="curve" smooth="yes"/>
      <point x="138.056" y="-487.304"/>
      <point x="182.992" y="-530.0"/>
    </contour>
  </outline>
</glyph>
<glyph name="uni0162" format="2">
  <advance width="1353"/>
  <unicode hex="0162"/>
  <outline>
    <contour>
      <point x="544.408" y="1276.032" type="line"/>
      <point x="544.408" y="98.208" type="line"/>
      <point x="394.888" y="41.968" type="line"/>
      <point x="394.888" y="0.0" type="line"/>
      <point x="951.448" y="0.0" type="line"/>
      <point x="951.448" y="41.968" type="line"/>
      <point x="801.928" y="98.208" type="line"/>
      <point x="801.928" y="1276.032" type="line"/>
    </contour>
    <contour>
      <point x="1190.168" y="1227.344" type="line"/>
      <point x="1099.44" y="1256.096" type="line"/>
      <point x="1260.304" y="951.44" type="line"/>
      <point x="1317.328" y="962.984" type="line"/>
      <point x="1275.632" y="1410.968" type="line"/>
      <point x="1245.76" y="1410.968" type="line"/>
      <point x="1085.256" y="1318.912" type="line"/>
      <point x="1167.168" y="1340.0" type="line"/>
      <point x="162.208" y="1340.0" type="line"/>
      <point x="267.864" y="1318.912" type="line"/>
      <point x="107.36" y="1410.968" type="line"/>
      <point x="77.488" y="1410.968" type="line"/>
      <point x="35.792" y="962.984" type="line"/>
      <point x="92.816" y="951.44" type="line"/>
      <point x="253.68" y="1256.096" type="line"/>
      <point x="139.208" y="1227.344" type="line"/>
    </contour>
    <contour>
      <point x="572.2" y="-530.0" type="curve" smooth="yes"/>
      <point x="722.52" y="-530.0"/>
      <point x="839.4639999999999" y="-426.16"/>
      <point x="839.4639999999999" y="-302.52" type="curve" smooth="yes"/>
      <point x="839.4639999999999" y="-217.944"/>
      <point x="784.28" y="-150.64"/>
      <point x="589.072" y="-112.432" type="curve"/>
      <point x="586.984" y="-221.0" type="line"/>
      <point x="777.2" y="49.576" type="line"/>
      <point x="690.872" y="49.576" type="line"/>
      <point x="492.96" y="-222.872" type="line"/>
      <point x="492.96" y="-237.904" type="line"/>
      <point x="677.408" y="-267.384"/>
      <point x="724.416" y="-305.08"/>
      <point x="724.416" y="-365.936" type="curve" smooth="yes"/>
      <point x="724.416" y="-419.576"/>
      <point x="683.808" y="-452.64"/>
      <point x="627.32" y="-452.64" type="curve" smooth="yes"/>
      <point x="558.472" y="-452.64"/>
      <point x="542.536" y="-384.552"/>
      <point x="484.96" y="-384.552" type="curve" smooth="yes"/>
      <point x="449.72" y="-384.552"/>
      <point x="428.144" y="-408.64"/>
      <point x="428.144" y="-441.336" type="curve" smooth="yes"/>
      <point x="428.144" y="-487.304"/>
      <point x="473.08" y="-530.0"/>
    </contour>
  </outline>
</glyph>
<glyph name="uni0163" format="2">
	<unicode hex="0163"/>
	<advance width="715.504"/>
	<outline>
		<contour>
			<point x="382.744" y="257.384" type="curve" smooth="yes"/>
			<point x="382.744" y="834.72" type="line"/>
			<point x="382.744" y="1025.4" type="line"/>
			<point x="327.152" y="1025.4" type="line"/>
			<point x="237.824" y="961.824"/>
			<point x="116.52" y="881.96"/>
			<point x="28.256" y="822.72" type="curve"/>
			<point x="28.256" y="789.456" type="line"/>
			<point x="151.52" y="697.92" type="line"/>
			<point x="151.52" y="224.32" type="line" smooth="yes"/>
			<point x="151.52" y="56.456"/>
			<point x="256.024" y="-21.936"/>
			<point x="410.648" y="-21.936" type="curve" smooth="yes"/>
			<point x="486.976" y="-21.936"/>
			<point x="580.96" y="14.328"/>
			<point x="710.528" y="113.288" type="curve"/>
			<point x="710.528" y="168.344" type="line"/>
			<point x="643.136" y="146.376"/>
			<point x="585.168" y="136.104"/>
			<point x="537.048" y="136.104" type="curve" smooth="yes"/>
			<point x="438.32" y="136.104"/>
			<point x="382.744" y="178.832"/>
		</contour>
		<contour>
			<point x="288.856" y="743.888" type="line"/>
			<point x="658.744" y="743.888" type="line"/>
			<point x="677.288" y="860.48" type="line"/>
			<point x="288.856" y="860.48" type="line"/>
		</contour>
		<contour>
			<point x="310.552" y="-530" type="curve" smooth="yes"/>
			<point x="460.872" y="-530"/>
			<point x="577.816" y="-426.16"/>
			<point x="577.816" y="-302.52" type="curve" smooth="yes"/>
			<point x="577.816" y="-217.944"/>
			<point x="522.632" y="-150.64"/>
			<point x="327.424" y="-112.432" type="curve"/>
			<point x="325.336" y="-221" type="line"/>
			<point x="515.552" y="49.576" type="line"/>
			<point x="429.224" y="49.576" type="line"/>
			<point x="231.312" y="-222.872" type="line"/>
			<point x="231.312" y="-237.904" type="line"/>
			<point x="415.76" y="-267.384"/>
			<point x="462.768" y="-305.08"/>
			<point x="462.768" y="-365.936" type="curve" smooth="yes"/>
			<point x="462.768" y="-419.576"/>
			<point x="422.16" y="-452.64"/>
			<point x="365.672" y="-452.64" type="curve" smooth="yes"/>
			<point x="296.824" y="-452.64"/>
			<point x="280.888" y="-384.552"/>
			<point x="223.312" y="-384.552" type="curve" smooth="yes"/>
			<point x="188.072" y="-384.552"/>
			<point x="166.496" y="-408.64"/>
			<point x="166.496" y="-441.336" type="curve" smooth="yes"/>
			<point x="166.496" y="-487.304"/>
			<point x="211.432" y="-530"/>
		</contour>
	</outline>
</glyph>
<glyph name="Tbar" format="2">
  <advance width="1356.696"/>
  <unicode hex="0166"/>
  <outline>
    <contour>
      <point x="276.184" y="625.68" type="line"/>
      <point x="1074.152" y="625.68" type="line"/>
      <point x="1074.152" y="734.944" type="line"/>
      <point x="276.184" y="734.944" type="line"/>
    </contour>
    <contour>
      <point x="546.408" y="1276.032" type="line"/>
      <point x="546.408" y="98.208" type="line"/>
      <point x="396.888" y="41.968" type="line"/>
      <point x="396.888" y="0.0" type="line"/>
      <point x="953.448" y="0.0" type="line"/>
      <point x="953.448" y="41.968" type="line"/>
      <point x="803.928" y="98.208" type="line"/>
      <point x="803.928" y="1276.032" type="line"/>
    </contour>
    <contour>
      <point x="1192.168" y="1227.344" type="line"/>
      <point x="1101.44" y="1256.096" type="line"/>
      <point x="1262.304" y="951.44" type="line"/>
      <point x="1319.328" y="962.984" type="line"/>
      <point x="1277.632" y="1410.968" type="line"/>
      <point x="1247.76" y="1410.968" type="line"/>
      <point x="1087.256" y="1318.912" type="line"/>
      <point x="1169.168" y="1340.0" type="line"/>
      <point x="164.208" y="1340.0" type="line"/>
      <point x="269.864" y="1318.912" type="line"/>
      <point x="109.36" y="1410.968" type="line"/>
      <point x="79.488" y="1410.968" type="line"/>
      <point x="37.792" y="962.984" type="line"/>
      <point x="94.816" y="951.44" type="line"/>
      <point x="255.68" y="1256.096" type="line"/>
      <point x="141.208" y="1227.344" type="line"/>
    </contour>
  </outline>
</glyph>
<glyph name="tbar" format="2">
  <advance width="727.896"/>
  <unicode hex="0167"/>
  <outline>
    <contour>
      <point x="26.248" y="412.0" type="line"/>
      <point x="635.496" y="412.0" type="line"/>
      <point x="635.496" y="520.112" type="line"/>
      <point x="26.248" y="520.112" type="line"/>
    </contour>
    <contour>
      <point x="393.56" y="257.384" type="curve" smooth="yes"/>
      <point x="393.56" y="834.72" type="line"/>
      <point x="393.56" y="1025.4" type="line"/>
      <point x="337.968" y="1025.4" type="line"/>
      <point x="248.64" y="961.824"/>
      <point x="127.336" y="881.96"/>
      <point x="39.072" y="822.72" type="curve"/>
      <point x="39.072" y="789.456" type="line"/>
      <point x="162.336" y="697.92" type="line"/>
      <point x="162.336" y="224.32" type="line" smooth="yes"/>
      <point x="162.336" y="56.456"/>
      <point x="266.84" y="-21.936"/>
      <point x="421.464" y="-21.936" type="curve" smooth="yes"/>
      <point x="497.79200000000003" y="-21.936"/>
      <point x="591.776" y="14.328"/>
      <point x="721.344" y="113.288" type="curve"/>
      <point x="721.344" y="168.344" type="line"/>
      <point x="653.952" y="146.376"/>
      <point x="595.984" y="136.10399999999998"/>
      <point x="547.864" y="136.10399999999998" type="curve" smooth="yes"/>
      <point x="449.13599999999997" y="136.10399999999998"/>
      <point x="393.56" y="178.832"/>
    </contour>
    <contour>
      <point x="299.672" y="743.888" type="line"/>
      <point x="669.56" y="743.888" type="line"/>
      <point x="688.104" y="860.48" type="line"/>
      <point x="299.672" y="860.48" type="line"/>
    </contour>
  </outline>
</glyph>
<glyph name="uogonek" format="2">
  <advance width="1087.024"/>
  <unicode hex="0173"/>
  <outline>
    <contour>
      <point x="383.688" y="291.752" type="curve" smooth="yes"/>
      <point x="383.688" y="751.336" type="line"/>
      <point x="395.23199999999997" y="877.6" type="line"/>
      <point x="20.64" y="850.88" type="line"/>
      <point x="20.64" y="804.672" type="line"/>
      <point x="152.464" y="742.552" type="line"/>
      <point x="152.464" y="288.968" type="line" smooth="yes"/>
      <point x="152.464" y="79.456"/>
      <point x="230.704" y="-24.240000000000002"/>
      <point x="398.336" y="-24.240000000000002" type="curve" smooth="yes"/>
      <point x="523.976" y="-24.240000000000002"/>
      <point x="612.976" y="16.432000000000002"/>
      <point x="765.632" y="181.904" type="curve"/>
      <point x="726.36" y="224.992" type="line"/>
      <point x="691.088" y="183.864"/>
      <point x="614.592" y="155.888"/>
      <point x="536.04" y="155.888" type="curve" smooth="yes"/>
      <point x="421.872" y="155.888"/>
      <point x="383.688" y="190.10399999999998"/>
    </contour>
    <contour>
      <point x="716.912" y="-17.696" type="line"/>
      <point x="744.968" y="-17.696" type="line"/>
      <point x="1058.168" y="50.272" type="line"/>
      <point x="1058.168" y="85.784" type="line"/>
      <point x="1009.384" y="99.416"/>
      <point x="958.136" y="127.144"/>
      <point x="929.472" y="158.232" type="curve"/>
      <point x="929.472" y="747.096" type="line"/>
      <point x="943.288" y="877.6" type="line"/>
      <point x="577.72" y="850.88" type="line"/>
      <point x="577.72" y="804.672" type="line"/>
      <point x="697.248" y="746.792" type="line"/>
      <point x="697.248" y="177.448" type="line"/>
    </contour>
    <contour>
      <point x="744.4639999999999" y="-91.024" type="curve" smooth="yes"/>
      <point x="816.504" y="46.0" type="line"/>
      <point x="750.36" y="46.0" type="line"/>
      <point x="652.32" y="-93.048" type="line" smooth="yes"/>
      <point x="553.576" y="-227.216"/>
      <point x="533.184" y="-291.488"/>
      <point x="533.184" y="-361.0" type="curve" smooth="yes"/>
      <point x="533.184" y="-461.488"/>
      <point x="600.248" y="-530.0"/>
      <point x="711.664" y="-530.0" type="curve" smooth="yes"/>
      <point x="804.48" y="-530.0"/>
      <point x="877.48" y="-488.24"/>
      <point x="960.688" y="-377.632" type="curve"/>
      <point x="926.176" y="-338.184" type="line"/>
      <point x="867.08" y="-394.344"/>
      <point x="826.2" y="-412.192"/>
      <point x="783.2" y="-412.192" type="curve" smooth="yes"/>
      <point x="715.96" y="-412.192"/>
      <point x="671.384" y="-371.648"/>
      <point x="671.384" y="-301.528" type="curve" smooth="yes"/>
      <point x="671.384" y="-251.10399999999998"/>
      <point x="686.08" y="-195.648"/>
    </contour>
  </outline>
</glyph>
<glyph name="uni018F" format="2">
  <advance width="1388"/>
  <unicode hex="018F"/>
  <outline>
    <contour>
      <point x="254.928" y="461.936" type="line"/>
      <point x="1158.136" y="461.936" type="line"/>
      <point x="1159.864" y="574.592" type="line"/>
      <point x="71.824" y="574.592" type="line"/>
      <point x="105.096" y="196.872"/>
      <point x="300.64" y="-24.240000000000002"/>
      <point x="646.112" y="-24.240000000000002" type="curve" smooth="yes"/>
      <point x="1062.52" y="-24.240000000000002"/>
      <point x="1305.672" y="300.848"/>
      <point x="1305.672" y="688.12" type="curve" smooth="yes"/>
      <point x="1305.672" y="1078.088"/>
      <point x="1067.408" y="1364.24"/>
      <point x="672.904" y="1364.24" type="curve" smooth="yes"/>
      <point x="451.12" y="1364.24"/>
      <point x="279.376" y="1275.856"/>
      <point x="76.616" y="1093.408" type="curve"/>
      <point x="132.216" y="1020.84" type="line"/>
      <point x="270.304" y="1124.232"/>
      <point x="414.4" y="1174.784"/>
      <point x="603.888" y="1174.784" type="curve" smooth="yes"/>
      <point x="882.744" y="1174.784"/>
      <point x="1059.2" y="974.504"/>
      <point x="1059.2" y="610.16" type="curve" smooth="yes"/>
      <point x="1059.2" y="239.07999999999998"/>
      <point x="888.432" y="91.50399999999999"/>
      <point x="666.144" y="91.50399999999999" type="curve" smooth="yes"/>
      <point x="462.256" y="91.50399999999999"/>
      <point x="348.976" y="228.232"/>
      <point x="330.672" y="504.04" type="curve"/>
    </contour>
  </outline>
</glyph>
